<svg id="Livello_1" data-name="Livello 1" xmlns="http://www.w3.org/2000/svg" width="189.3009" height="140.6438" viewBox="0 0 189.3009 140.6438"><path d="M9.3589,149.8391c5.5663,0,5.5663,4,11.1326,4s5.565-4,11.13-4c5.5665,0,5.5665,4,11.133,4s5.5673-4,11.1347-4,5.5665,4,11.133,4,5.5667-4,11.1333-4,5.5673,4,11.1345,4,5.5682-4,11.1363-4,5.5672,4,11.1344,4,5.5678-4,11.1355-4,5.5663,4,11.1326,4,5.5664-4,11.1327-4c5.5679,0,5.5679,4,11.1357,4,5.57,0,5.57-4,11.1395-4,5.568,0,5.568,4,11.1359,4,5.5719,0,5.5719-4,11.1437-4s5.5718,4,11.1436,4" transform="translate(-9.3589 -13.9453)" fill="none" stroke="#fef480" stroke-miterlimit="10" stroke-width="1.5"/><g id="Portfolio"><path d="M126.0653,72.6105c-.0089,2.351-.4658,4.68-.38,7.0333a11.2964,11.2964,0,0,0,1.2919,5.7792,13.4887,13.4887,0,0,0,7.9289,7.9289,11.2964,11.2964,0,0,0,5.7792,1.2919l3.9876-.5358a14.9856,14.9856,0,0,0,6.619-3.8576l2.3455-3.0358a14.9315,14.9315,0,0,0,2.0479-7.5708c-.0856-2.3533.3713-4.6823.38-7.0333a11.2964,11.2964,0,0,0-1.2919-5.7792,13.4887,13.4887,0,0,0-7.9289-7.9289,11.2964,11.2964,0,0,0-5.7792-1.2919l-3.9876.5358a14.9865,14.9865,0,0,0-6.619,3.8576L128.1132,65.04a14.9305,14.9305,0,0,0-2.0479,7.5708Z" transform="translate(-9.3589 -13.9453)"/><path d="M148.8547,61.5679a10.5636,10.5636,0,0,0-2.0431-.517,58.083,58.083,0,0,0-6.21-.7494c-1.5553-.0752-3.1125-.0313-4.6687-.03a11.2973,11.2973,0,0,0-5.7792,1.2918,13.49,13.49,0,0,0-7.929,7.929,11.2973,11.2973,0,0,0-1.2918,5.7792l.5358,3.9876a14.9861,14.9861,0,0,0,3.8576,6.619l3.0358,2.3454a14.9311,14.9311,0,0,0,7.5708,2.048,51.25,51.25,0,0,1,6.4741.1834l-3.9876-.5358a11.3608,11.3608,0,0,1,2.46.5769,11.3627,11.3627,0,0,0,5.9814.2679,11.1643,11.1643,0,0,0,5.577-1.78,11.3359,11.3359,0,0,0,4.2085-3.8634,11.2972,11.2972,0,0,0,2.6849-5.1011l.5358-3.9876a14.9306,14.9306,0,0,0-2.048-7.5708l-2.3454-3.0358a14.9871,14.9871,0,0,0-6.619-3.8576Z" transform="translate(-9.3589 -13.9453)"/><path d="M128.1776,83.2171c.96,1.0221,1.8678,2.092,2.8007,3.1386A25.2994,25.2994,0,0,0,133.69,89.11a11.2437,11.2437,0,0,0,4.8274,3.1015,13.5723,13.5723,0,0,0,11.5584,0,11.2437,11.2437,0,0,0,4.8274-3.1015l2.3455-3.0358a14.9315,14.9315,0,0,0,2.0479-7.5708l-.5358-3.9876a14.9865,14.9865,0,0,0-3.8576-6.619,25.2994,25.2994,0,0,1-2.7119-2.7542c-.9329-1.0466-1.8407-2.1165-2.8007-3.1386a11.2437,11.2437,0,0,0-4.8274-3.1015,13.5723,13.5723,0,0,0-11.5584,0,11.2437,11.2437,0,0,0-4.8274,3.1015L125.8321,65.04a14.9315,14.9315,0,0,0-2.0479,7.5708l.5358,3.9876a14.9865,14.9865,0,0,0,3.8576,6.619Z" transform="translate(-9.3589 -13.9453)"/><path d="M139.3588,58.9067a19.8077,19.8077,0,0,0-4.2943,1.8257c-.1307.0764-.257.16-.38.2488-.57.4114-1.1558.8894-1.68,1.2941-.5335.4122-1.1358.8524-1.679,1.302a11.7854,11.7854,0,0,0-1.4328,1.4592c-.8482.9961-1.583,2.0929-2.476,3.05a11.2441,11.2441,0,0,0-3.1015,4.8274,11.2974,11.2974,0,0,0-1.2919,5.7792,11.2974,11.2974,0,0,0,1.2919,5.7792A11.2446,11.2446,0,0,0,127.4172,89.3l3.0359,2.3454a14.93,14.93,0,0,0,7.5707,2.048l3.9876-.5358A14.9865,14.9865,0,0,0,148.63,89.3c1.4031-1.5044,2.4336-3.3534,4.07-4.6388l-3.0358,2.3455a4.5568,4.5568,0,0,1,.9238-.5651l-3.5832,1.5121a3.3131,3.3131,0,0,1,.3288-.1187A11.296,11.296,0,0,0,152.435,85.15a11.3359,11.3359,0,0,0,3.8634-4.2085,11.1633,11.1633,0,0,0,1.78-5.577,11.3607,11.3607,0,0,0-.2679-5.9814L156.2984,65.8a15.0742,15.0742,0,0,0-5.3813-5.3813l-3.5832-1.5121a15.106,15.106,0,0,0-7.9751,0Z" transform="translate(-9.3589 -13.9453)"/><path d="M53.7807,78.8835c-.0072,2.92-.3743,5.8244-.38,8.7441a11.2964,11.2964,0,0,0,1.2919,5.7792,11.2428,11.2428,0,0,0,3.1015,4.8274,11.2437,11.2437,0,0,0,4.8274,3.1015,11.2964,11.2964,0,0,0,5.7792,1.2919l3.9876-.5358a14.9865,14.9865,0,0,0,6.619-3.8576l2.3455-3.0358a14.9315,14.9315,0,0,0,2.0479-7.5708c.0059-2.92.373-5.8244.38-8.7441a11.2964,11.2964,0,0,0-1.2919-5.7792,13.4892,13.4892,0,0,0-7.9289-7.929,11.2973,11.2973,0,0,0-5.7792-1.2918l-3.9876.5358a14.9856,14.9856,0,0,0-6.619,3.8576l-2.3455,3.0358a14.93,14.93,0,0,0-2.0479,7.5708Z" transform="translate(-9.3589 -13.9453)"/><path d="M55.3227,90.8207A8.2134,8.2134,0,0,1,56.6772,92.21L54.3317,89.174c.7227.9425,1.29,1.9877,1.9549,2.97.1629.24.3332.4751.5091.7062.9267,1.2175,1.81,2.5008,2.8471,3.6329a7.6032,7.6032,0,0,0,.6787.6562c1.0593.9006,2.2,1.74,3.3133,2.57.14.1041.281.2049.4264.3009a11.1643,11.1643,0,0,0,5.577,1.78,11.3627,11.3627,0,0,0,5.9814-.2679,11.2962,11.2962,0,0,0,5.1011-2.6849,11.3351,11.3351,0,0,0,3.8634-4.2085l1.5121-3.5832a15.1064,15.1064,0,0,0,0-7.9752l-1.5121-3.5832a15.075,15.075,0,0,0-5.3813-5.3813q-.2181-.144-.4264-.3008L81.8122,76.15a8.4139,8.4139,0,0,1-1.4578-1.4775L82.7,77.7082c-.6569-.8553-1.1875-1.7941-1.7752-2.6961a48.7,48.7,0,0,0-3.2135-4.2406,7.81,7.81,0,0,0-1.1752-1.164,11.2422,11.2422,0,0,0-4.8274-3.1015,11.2964,11.2964,0,0,0-5.7792-1.2919A11.2964,11.2964,0,0,0,60.15,66.506a11.2428,11.2428,0,0,0-4.8274,3.1015l-2.3454,3.0358a14.9306,14.9306,0,0,0-2.048,7.5708l.5358,3.9876a14.9865,14.9865,0,0,0,3.8576,6.619Z" transform="translate(-9.3589 -13.9453)"/><path d="M58.68,72.4532q-.0608.089-.1265.1742l2.3455-3.0359a4.9053,4.9053,0,0,1-.8157.7976l3.0358-2.3455c-.5.3815-1.045.6969-1.5611,1.0556-.64.4446-1.2618.9594-1.8648,1.4253-.62.4792-1.2809.9586-1.8891,1.4719-.2772.234-.5419.4824-.7957.7415-.9581.9781-1.7515,2.1006-2.6361,3.1425a11.2428,11.2428,0,0,0-3.1015,4.8274,11.2964,11.2964,0,0,0-1.2919,5.7792,11.2964,11.2964,0,0,0,1.2919,5.7792,11.2422,11.2422,0,0,0,3.1015,4.8274l3.0358,2.3455a14.9305,14.9305,0,0,0,7.5708,2.0479l3.9876-.5358a14.9856,14.9856,0,0,0,6.619-3.8576,27.361,27.361,0,0,1,3.803-4.1831l-3.0358,2.3454c.52-.3936,1.0842-.7193,1.6167-1.094a35.4841,35.4841,0,0,0,3.6819-2.8585,22.5447,22.5447,0,0,0,2.9328-3.7086,11.1643,11.1643,0,0,0,1.78-5.577,11.3627,11.3627,0,0,0-.2679-5.9814,11.2962,11.2962,0,0,0-2.6849-5.1011,11.3351,11.3351,0,0,0-4.2085-3.8634L75.62,65.56a15.1064,15.1064,0,0,0-7.9752,0l-3.5832,1.5121A15.0747,15.0747,0,0,0,58.68,72.4532Z" transform="translate(-9.3589 -13.9453)"/><path d="M64.2185,97.8753c2.7868.0054,5.5817.255,8.364,0a11.2973,11.2973,0,0,0,5.7792-1.2918,13.4892,13.4892,0,0,0,7.9289-7.929,11.2974,11.2974,0,0,0,1.2919-5.7792l-.5359-3.9876a14.986,14.986,0,0,0-3.8575-6.619l-3.0358-2.3454a14.9316,14.9316,0,0,0-7.5708-2.048c-2.7823.255-5.5772.0054-8.364,0a11.2974,11.2974,0,0,0-5.7792,1.2919,11.2446,11.2446,0,0,0-4.8274,3.1015A11.2437,11.2437,0,0,0,50.51,77.0961a11.2964,11.2964,0,0,0-1.2919,5.7792l.5358,3.9876a14.9865,14.9865,0,0,0,3.8576,6.619l3.0358,2.3455a14.9305,14.9305,0,0,0,7.5708,2.0479Z" transform="translate(-9.3589 -13.9453)"/><path d="M136.4983,50.3192a5.2654,5.2654,0,0,1-.0083-1l-.5358,3.9876a5.7694,5.7694,0,0,1,.3415-1.315l-1.5121,3.5832a5.0839,5.0839,0,0,1,.561-.9446l-2.3454,3.0358a4.3769,4.3769,0,0,1,.5919-.56l-3.0358,2.3454a2.6766,2.6766,0,0,1,.4774-.2716L127.45,60.6929a3.8946,3.8946,0,0,1,.911-.2689l-3.9876.5358.33.01-3.9876-.5358a2.0129,2.0129,0,0,1,.6276.1933L117.76,59.1156l.2786.1636-3.0358-2.3454a3.1485,3.1485,0,0,1,.55.5489l-2.3454-3.0358a5.6073,5.6073,0,0,1,.4482.8415l-1.5121-3.5832c.6677,1.6481,1.2434,3.3722,2.0663,4.9448a17.2724,17.2724,0,0,0,6.0748,6.3361,16.96,16.96,0,0,0,13.6993,1.9464,17.6619,17.6619,0,0,0,10.3131-8.2574,50.5685,50.5685,0,0,0,2.5507-5.9581L145.3353,54.3a5.4856,5.4856,0,0,1,.5989-1.1314l-2.3455,3.0359a2.2015,2.2015,0,0,1,.3176-.3212l-3.0358,2.3455a2.516,2.516,0,0,1,.5617-.3605l-3.5832,1.5122a2.0108,2.0108,0,0,1,.6458-.1806l-3.9876.5358.34,0L130.86,59.2a1.7676,1.7676,0,0,1,.5375.1388l-3.5832-1.5121a1.709,1.709,0,0,1,.4261.27l-3.0358-2.3454a2.2177,2.2177,0,0,1,.3353.3648L123.1945,53.08c.657.9685.9262,2.1324,1.5975,3.0972a19.08,19.08,0,0,0,6.4388,6.3174,17.5769,17.5769,0,0,0,8.4127,2.3013,16.8462,16.8462,0,0,0,8.5829-2.192,19.3587,19.3587,0,0,0,6.2807-6.1382,17.994,17.994,0,0,0,2.6835-7.0236,11.3627,11.3627,0,0,0,.2679-5.9814,11.1643,11.1643,0,0,0-1.78-5.577,11.3351,11.3351,0,0,0-3.8634-4.2085,11.2972,11.2972,0,0,0-5.1011-2.6849c-3.84-.8746-8.15-.6853-11.5584,1.5121-3.0979,1.9973-6.2426,5.18-6.8934,8.9645a13.29,13.29,0,0,1-.5666,2.3623l1.5121-3.5832a5.7356,5.7356,0,0,1-.6047,1.0781l2.3455-3.0358a3.8327,3.8327,0,0,1-.441.4791l3.0358-2.3455a1.5644,1.5644,0,0,1-.4585.2779l3.5832-1.5122a2.2478,2.2478,0,0,1-.5581.1482l3.9875-.5358a1.4106,1.4106,0,0,1-.4539-.0041l3.9876.5358a5.5216,5.5216,0,0,1-.68-.18l3.5832,1.5122a1.8145,1.8145,0,0,1-.449-.2577l3.0358,2.3455a4.9627,4.9627,0,0,1-.6809-.6342l2.3454,3.0358a30.7875,30.7875,0,0,1-1.6166-3.1116,17.0523,17.0523,0,0,0-18.649-7.77,17.42,17.42,0,0,0-10.7235,8.1132,46.31,46.31,0,0,0-2.3959,5.64l1.5121-3.5832a7.9127,7.9127,0,0,1-.9374,1.7219l2.3454-3.0358a3.5463,3.5463,0,0,1-.4961.49l3.0358-2.3455a2.7033,2.7033,0,0,1-.4348.2439l3.5832-1.5122a1.6922,1.6922,0,0,1-.324.0913l3.9876-.5358a2.6705,2.6705,0,0,1-.543.0133l3.9876.5358a3.8047,3.8047,0,0,1-.6183-.1547l3.5832,1.5122a3.0123,3.0123,0,0,1-.6556-.3842l3.0358,2.3455a2.3186,2.3186,0,0,1-.3249-.3446l2.3455,3.0358a5.0772,5.0772,0,0,1-.47-.8307l1.5121,3.5831c-.6573-1.573-1.2534-3.1742-1.9653-4.7243-.1015-.2211-.1979-.4335-.3191-.645a14.0623,14.0623,0,0,0-1.3018-1.7144q-.6519-.8562-1.3173-1.7019a17.2131,17.2131,0,0,0-16.854-4.4419,18.3642,18.3642,0,0,0-10.7717,8.539c-1.5749,2.8483-2.8464,6.85-2.4972,10.1366a11.2974,11.2974,0,0,0,1.2919,5.7792,11.2446,11.2446,0,0,0,3.1015,4.8274,11.2428,11.2428,0,0,0,4.8274,3.1015,11.2964,11.2964,0,0,0,5.7792,1.2919c3.8794-.1738,7.9029-1.4481,10.6066-4.3934,2.5263-2.752,4.806-6.7242,4.3934-10.6066Z" transform="translate(-9.3589 -13.9453)"/><path d="M139.6516,56.7737a10.7507,10.7507,0,0,1,.0867-1.2146l-.5358,3.9876a6.71,6.71,0,0,1,.318-1.1831l-1.5121,3.5832a4.2246,4.2246,0,0,1,.4247-.7433l-2.3455,3.0358a1.94,1.94,0,0,1,.3663-.34l-3.0358,2.3455a1.9835,1.9835,0,0,1,.4316-.233l-3.5832,1.5121a2.0047,2.0047,0,0,1,.4716-.12l-3.9876.5358a1.9588,1.9588,0,0,1,.4863-.002l-3.9876-.5358a1.88,1.88,0,0,1,.4757.1221l-3.5832-1.5121a1.851,1.851,0,0,1,.44.252l-3.0359-2.3455a2.2046,2.2046,0,0,1,.3752.3732l-2.3455-3.0358a7.2438,7.2438,0,0,1,.7089,1.3064,16.4542,16.4542,0,0,0,2.9288,4.116,18.9414,18.9414,0,0,0,3.8314,3.0229,13.2336,13.2336,0,0,0,4.0937,1.6438l3.9876.5358a9.7334,9.7334,0,0,0,2.2345-.2721,14.1607,14.1607,0,0,0,2.4446-.394,21.406,21.406,0,0,0,3.8927-1.695c2.7423-1.5213,4.2318-3.5129,6.0124-5.99.6183-.86,1.0641-1.8265,1.7108-2.6679l-2.3455,3.0358a4.5262,4.5262,0,0,1,.6184-.6033l-3.0358,2.3455a2.0637,2.0637,0,0,1,.4911-.2632l-3.5832,1.5121.2649-.0722-3.9876.5358a1.4271,1.4271,0,0,1,.5344.0035l-3.9875-.5358.249.071-3.5832-1.5122a1.9567,1.9567,0,0,1,.46.2523L126.48,63.285a4.26,4.26,0,0,1,.58.571L124.7152,60.82c.2888.3968.5247.8195.773,1.2421a26.2,26.2,0,0,0,3.0129,4.0488,16.9642,16.9642,0,0,0,21.0949,3.0034c2.8867-1.72,4.2194-3.4076,6.134-6.1033,2.184-3.075,2.7091-6.7753,3.0346-10.4084a11.2973,11.2973,0,0,0-1.2918-5.7792,11.2439,11.2439,0,0,0-3.1016-4.8274,11.2422,11.2422,0,0,0-4.8274-3.1015,11.2964,11.2964,0,0,0-5.7792-1.2919c-3.8793.1738-7.9028,1.4481-10.6066,4.3934l-2.3454,3.0358a14.9316,14.9316,0,0,0-2.048,7.5708l-.0278.3106.5358-3.9876a7.055,7.055,0,0,1-.3758,1.5074l1.5121-3.5832a5.3368,5.3368,0,0,1-.6642,1.1254L132.09,44.94a4.6694,4.6694,0,0,1-.5654.5454l3.0358-2.3455a2.362,2.362,0,0,1-.4358.2583l3.5832-1.5122a1.9039,1.9039,0,0,1-.477.1452l3.9876-.5358a1.7605,1.7605,0,0,1-.513.0076l3.9875.5358a2.0716,2.0716,0,0,1-.5006-.1349l3.5832,1.5121a3.3685,3.3685,0,0,1-.6043-.36l3.0358,2.3454a4.8752,4.8752,0,0,1-.4929-.5028l2.3455,3.0358c-.5438-.711-.9249-1.525-1.44-2.2551-1.7239-2.4407-3.3759-4.5575-6.0734-6.0236a18.7956,18.7956,0,0,0-8.4287-2.3267,16.4936,16.4936,0,0,0-8.3627,2.2577,20.4479,20.4479,0,0,0-6.238,6.1336c-.6252.8557-1.0722,1.8241-1.7107,2.6679l2.3455-3.0358a4.8225,4.8225,0,0,1-.5316.5389l3.0358-2.3454a2.0182,2.0182,0,0,1-.4091.253l3.5832-1.5121a1.4629,1.4629,0,0,1-.4508.126l3.9876-.5358-.2407.0042,3.9876.5358a1.528,1.528,0,0,1-.5105-.1317l3.5832,1.5121a1.7235,1.7235,0,0,1-.44-.2838l3.0358,2.3455a2.4344,2.4344,0,0,1-.3557-.3936l2.3455,3.0358a10.6493,10.6493,0,0,1-.7508-1.4542,5.9772,5.9772,0,0,0-.3152-.6019,2.5,2.5,0,0,0-.2262-.33l-2.3455-3.0359a2.2046,2.2046,0,0,0-.3752-.3732L135.723,40.36A16.6863,16.6863,0,0,0,131.7,38.5954a19.0908,19.0908,0,0,0-2.4695-.39,10.6687,10.6687,0,0,0-4.4739.002,15.804,15.804,0,0,0-6.48,2.1334l-3.0358,2.3454a1.94,1.94,0,0,0-.3663.34l-2.3454,3.0358a1.8334,1.8334,0,0,0-.2246.3387,25.3082,25.3082,0,0,0-1.7123,3.9878,7.3755,7.3755,0,0,0-.2637.8788,35.9489,35.9489,0,0,0-.63,4.5982c-.0262.303-.0418.604-.0469.9083a11.2964,11.2964,0,0,0,1.2919,5.7792A11.2422,11.2422,0,0,0,114.045,67.38a11.2433,11.2433,0,0,0,4.8274,3.1016,11.2973,11.2973,0,0,0,5.7792,1.2918c3.8793-.1737,7.9028-1.448,10.6066-4.3934a15.796,15.796,0,0,0,4.3934-10.6066Z" transform="translate(-9.3589 -13.9453)"/><path d="M133.2968,64.0026a8.3056,8.3056,0,0,1,.07-.8939l-.5358,3.9876a7.8018,7.8018,0,0,1,.4455-1.6155l-1.5122,3.5832a5.8109,5.8109,0,0,1,.7116-1.2154l-2.3454,3.0358a4.9879,4.9879,0,0,1,.4708-.477l-3.0359,2.3455a3.4256,3.4256,0,0,1,.7477-.44L124.73,73.8253a2.4036,2.4036,0,0,1,.4254-.1177l-3.9876.5359a3.3511,3.3511,0,0,1,.8636-.0066l-3.9876-.5358a2.73,2.73,0,0,1,.5022.1508L114.9627,72.34a1.6363,1.6363,0,0,1,.2735.1612L112.2,70.1555a2.482,2.482,0,0,1,.3317.32L110.1866,67.44a3.2438,3.2438,0,0,1,.3231.545l-1.5122-3.5832a19.5453,19.5453,0,0,1,.6389,2.4042,17.68,17.68,0,0,0,7.7967,10.5839,16.93,16.93,0,0,0,20.3285-2.4754,15.5519,15.5519,0,0,0,3.9906-6.1287c.5655-1.34.9417-2.6009,1.4232-3.9471l-1.5121,3.5832a3.4623,3.4623,0,0,1,.4186-.75l-2.3454,3.0358.1689-.1709L136.87,72.8815a1.5129,1.5129,0,0,1,.3771-.2434L133.6635,74.15a1.4253,1.4253,0,0,1,.4116-.1147l-3.9876.5358a1.4639,1.4639,0,0,1,.4247.0108l-3.9876-.5358a1.5867,1.5867,0,0,1,.4162.1334l-3.5832-1.5121a1.77,1.77,0,0,1,.3864.253l-3.0358-2.3454a2.0244,2.0244,0,0,1,.3351.37l-2.3454-3.0358a14.3527,14.3527,0,0,1,.8006,1.6836,15.1874,15.1874,0,0,0,3.1968,4.3717,19.067,19.067,0,0,0,7.5527,4.4991,16.0185,16.0185,0,0,0,7.3337.48,11.1027,11.1027,0,0,0,4.3149-1.1631,13.4544,13.4544,0,0,0,5.2551-3.3372,6.5416,6.5416,0,0,0,.5217-.4974l2.3455-3.0358a3.1841,3.1841,0,0,0,.2729-.4058,18.0945,18.0945,0,0,0,1.9575-4.7485,35.792,35.792,0,0,0,.6282-4.4748,8.5238,8.5238,0,0,0,.0568-.9285,15.4943,15.4943,0,0,0-4.3934-10.6066,11.2428,11.2428,0,0,0-4.8274-3.1015,11.2964,11.2964,0,0,0-5.7792-1.2919c-3.8794.1737-7.9028,1.448-10.6066,4.3934a15.5475,15.5475,0,0,0-4.3934,10.6066,7.3531,7.3531,0,0,1-.0568.9285l.5358-3.9876a6.2863,6.2863,0,0,1-.3207,1.2048l1.5121-3.5832a4.56,4.56,0,0,1-.49.8535l2.3455-3.0358a3.61,3.61,0,0,1-.5217.4974l3.0358-2.3454a2.2183,2.2183,0,0,1-.4277.2356l3.5832-1.5121a2.0526,2.0526,0,0,1-.5294.1391l3.9875-.5358a2.36,2.36,0,0,1-.5483.0035l3.9875.5358a3.96,3.96,0,0,1-.8039-.2152l3.5831,1.5121a4.1837,4.1837,0,0,1-.7074-.4336l3.0358,2.3455a3.1542,3.1542,0,0,1-.4246-.4292l2.3455,3.0358c-.641-.8545-.9026-1.8938-1.4536-2.7983a22.4435,22.4435,0,0,0-2.5929-3.32,13.6077,13.6077,0,0,0-3.3116-2.5719,17.206,17.206,0,0,0-8.2916-2.3035A16.76,16.76,0,0,0,116.1778,52.53c-1.2917,2.0127-1.7984,4.2925-2.5979,6.4889l1.5122-3.5832a4.52,4.52,0,0,1-.573.9986l2.3455-3.0358a2.2162,2.2162,0,0,1-.4316.3952l3.0358-2.3455-.2577.1523,3.5832-1.5122a2.004,2.004,0,0,1-.5665.1858l3.9876-.5358a1.6179,1.6179,0,0,1-.5842-.0065l3.9875.5358-.28-.0882,3.5832,1.5121a2.4113,2.4113,0,0,1-.41-.2535l3.0359,2.3455a2.7024,2.7024,0,0,1-.3168-.3441l2.3455,3.0358a3.6381,3.6381,0,0,1-.308-.57l1.5122,3.5832c-.3735-.967-.4678-2.012-.8228-2.9858a23.1558,23.1558,0,0,0-1.7749-4.08,25.7307,25.7307,0,0,0-2.4377-3.1607c-.0912-.09-.1791-.1824-.2715-.2714a17.5559,17.5559,0,0,0-6.9527-4.0672,17.2177,17.2177,0,0,0-4.587-.6983,15.2269,15.2269,0,0,0-2.76.2862,15.0077,15.0077,0,0,0-2.4192.3855,24.5,24.5,0,0,0-3.783,1.598c-.1609.0877-.3086.1858-.4608.2874a31.0867,31.0867,0,0,0-3.2056,2.4852,22.4973,22.4973,0,0,0-2.8733,3.6212,7.1863,7.1863,0,0,0-.5231.9237,32.3172,32.3172,0,0,0-1.7662,4.262,8.2914,8.2914,0,0,0-.24,1.0467,32.8708,32.8708,0,0,0-.6058,4.8815,11.2964,11.2964,0,0,0,1.2919,5.7792,11.2428,11.2428,0,0,0,3.1015,4.8274,11.2431,11.2431,0,0,0,4.8274,3.1015,11.2974,11.2974,0,0,0,5.7792,1.2919c3.8793-.1738,7.9028-1.4481,10.6066-4.3934a15.8785,15.8785,0,0,0,4.3934-10.6066Z" transform="translate(-9.3589 -13.9453)"/><path d="M68.923,73.9612a35.1549,35.1549,0,0,0,4.9613-.59,6.6517,6.6517,0,0,0,.9725-.2056,30.2836,30.2836,0,0,0,4.36-1.814,5.412,5.412,0,0,0,.7878-.4742A20.8233,20.8233,0,0,0,86.44,64.4349a5.4907,5.4907,0,0,0,.4048-.6573,30.6719,30.6719,0,0,0,1.8248-4.3262,5.3986,5.3986,0,0,0,.1817-.6989,33.0107,33.0107,0,0,0,.627-4.7815,5.4143,5.4143,0,0,0-.0179-.7159c-.1293-1.41-.3375-2.9079-.5742-4.3026-.0265-.1564-.0546-.3116-.0927-.4657a17.769,17.769,0,0,0-2.0843-4.9618,27.1908,27.1908,0,0,0-2.739-3.5822,5.3763,5.3763,0,0,0-.6033-.5926c-1.0358-.867-2.188-1.7732-3.3-2.5432q-.1555-.1077-.32-.2018a27.03,27.03,0,0,0-4.3366-1.86,5.775,5.775,0,0,0-.9087-.2369,30.8514,30.8514,0,0,0-4.9067-.6215,8.7132,8.7132,0,0,0-1.18.0661,36.8675,36.8675,0,0,0-5.04.7341A31.9557,31.9557,0,0,0,58.88,36.5075a5.9736,5.9736,0,0,0-.8562.4563A20.3351,20.3351,0,0,0,51.5,43.4117a4.892,4.892,0,0,0-.425.6971,28.3885,28.3885,0,0,0-1.7734,4.2555,17.73,17.73,0,0,0-.7307,5.5266,34.698,34.698,0,0,0,.6,4.6673,5.9118,5.9118,0,0,0,.1964.8242,31.7188,31.7188,0,0,0,1.83,4.371,5.5413,5.5413,0,0,0,.4563.7636,21.24,21.24,0,0,0,6.5376,6.5547,5.5268,5.5268,0,0,0,.8057.4691,24.4745,24.4745,0,0,0,4.3658,1.7823c.1667.0406.3341.0663.5034.0928.8256.129,3.2541.5276,4.0739.5458.034.0008.0681,0,.1022,0,.2935.004.5873,0,.8809,0a11.2964,11.2964,0,0,0,5.7792-1.2919A11.2437,11.2437,0,0,0,79.53,69.5678,11.2437,11.2437,0,0,0,82.6311,64.74a11.2964,11.2964,0,0,0,1.2919-5.7792l-.5358-3.9876a14.9865,14.9865,0,0,0-3.8576-6.619l-3.0358-2.3455a14.9305,14.9305,0,0,0-7.5708-2.0479,9.28,9.28,0,0,1-1.0694-.0095l3.9876.5358a4.7652,4.7652,0,0,1-1.2111-.33L74.2133,45.67a4.96,4.96,0,0,1-.9779-.5744l3.0358,2.3455a5.3911,5.3911,0,0,1-.9139-.9071L77.7027,49.57a5.8559,5.8559,0,0,1-.7366-1.2523l1.5121,3.5832a5.9,5.9,0,0,1-.4024-1.477l.5358,3.9876a5.4461,5.4461,0,0,1,.0025-1.3579l-.5359,3.9876a4.9017,4.9017,0,0,1,.3129-1.1536L76.879,59.4705a4.6167,4.6167,0,0,1,.5752-.9834l-2.3455,3.0358a4.8112,4.8112,0,0,1,.7948-.7883L72.8677,63.08a5.5976,5.5976,0,0,1,1.1534-.6684l-3.5832,1.5121a7.6135,7.6135,0,0,1,1.8406-.4907l-3.9876.5359a7.8915,7.8915,0,0,1,2.027-.0266L66.33,63.4066a5.63,5.63,0,0,1,1.3541.3646L64.1012,62.259a4.8785,4.8785,0,0,1,1.0236.5989L62.089,60.5124a4.7364,4.7364,0,0,1,.7923.7986l-2.3455-3.0358a4.9646,4.9646,0,0,1,.5928,1.022L59.6164,55.714a5.3811,5.3811,0,0,1,.3524,1.2921l-.5358-3.9876a5.713,5.713,0,0,1,.0042,1.43l.5358-3.9876a5.6644,5.6644,0,0,1-.374,1.3922L61.1112,48.27a5.4041,5.4041,0,0,1-.649,1.1219l2.3454-3.0359a5.1936,5.1936,0,0,1-.8782.8856l3.0358-2.3454a5.3311,5.3311,0,0,1-1.1386.6634L67.41,44.0475a6.11,6.11,0,0,1-1.5007.3954l3.9876-.5358a7.8815,7.8815,0,0,1-.9737.0541,11.2964,11.2964,0,0,0-5.7792,1.2919,11.2422,11.2422,0,0,0-4.8274,3.1015,11.2422,11.2422,0,0,0-3.1015,4.8274,11.2964,11.2964,0,0,0-1.2919,5.7792l.5358,3.9876a14.9861,14.9861,0,0,0,3.8576,6.619l3.0358,2.3454A14.9306,14.9306,0,0,0,68.923,73.9612Z" transform="translate(-9.3589 -13.9453)"/><path d="M102.6611,66.3749a18.0806,18.0806,0,0,0-11.1476-8.9133,18.763,18.763,0,0,0-6.1558-.6274c-2.1955.2084-4.2891.611-6.4455.9425L82.9,57.2409a8.3893,8.3893,0,0,1-1.6852.0515l3.9876.5358a4.5867,4.5867,0,0,1-.9434-.2625l3.5832,1.5121a2.7051,2.7051,0,0,1-.5387-.3274l3.0358,2.3455a2.68,2.68,0,0,1-.4542-.4539L92.23,63.6778a4.5035,4.5035,0,0,1-.464-.8285l1.5121,3.5832a3.7849,3.7849,0,0,1-.1683-.6869l.5358,3.9876a2.0744,2.0744,0,0,1,.0005-.4206L93.1106,73.3a2.7845,2.7845,0,0,1,.1516-.5762L91.75,76.3072a3.2723,3.2723,0,0,1,.3106-.5119l-2.3455,3.0359a4.2537,4.2537,0,0,1,.6189-.5854l-3.0358,2.3454a6.7473,6.7473,0,0,1,1.2482-.6778l-3.5832,1.5121a11.2767,11.2767,0,0,1,2.4457-.6281l-3.9876.5359a8.981,8.981,0,0,1,2.11-.0536l-3.9876-.5359a10.3589,10.3589,0,0,1,2.2581.6985L80.2187,79.93a34.65,34.65,0,0,0,6.1919,2.4152,18.06,18.06,0,0,0,12.953-1.6227,15.8113,15.8113,0,0,0,7.8954-13.6559,19.9231,19.9231,0,0,0-.546-4.2555c-.0614-.2239-.1269-.4318-.203-.6516a20.5776,20.5776,0,0,0-9.0806-11.0452,22.3327,22.3327,0,0,0-6.0336-2.34,25.5145,25.5145,0,0,0-10.3-.0418c-1.2578.214-2.4691.6254-3.7293.8282l3.9876-.5358a3.8322,3.8322,0,0,1-.8492.0429l3.9876.5358-.4106-.0881,3.5832,1.5121-.3142-.16,3.0358,2.3454a1.7468,1.7468,0,0,1-.4863-.5058l2.3455,3.0358-.1709-.3184,1.5122,3.5832a2.5969,2.5969,0,0,1-.1942-.6983l.5358,3.9876a3.2406,3.2406,0,0,1-.009-.7687l-.5358,3.9876a5.27,5.27,0,0,1,.3027-1.1117l-1.5121,3.5832a6.1067,6.1067,0,0,1,.6163-.99L90.4455,70.034a4.3518,4.3518,0,0,1,.5485-.5526l-3.0358,2.3455a6.8359,6.8359,0,0,1,1.3659-.8208L85.741,72.5182a9.4233,9.4233,0,0,1,1.936-.503l-3.9876.5358a8.6571,8.6571,0,0,1,1.8709-.0536l-3.9876-.5358a10.4643,10.4643,0,0,1,2.1916.6542l-3.5832-1.5122c2.6971,1.181,4.895,2.9829,7.8363,3.7562a16.77,16.77,0,0,0,12.8049-1.4425,15.5684,15.5684,0,0,0,7.7074-13.34c-.1725-7.0082-4.1822-11.604-8.2479-16.78l2.3455,3.0358a8.7035,8.7035,0,0,1-.9114-1.4522l1.5121,3.5832a2.7684,2.7684,0,0,1-.1814-.5681l.5358,3.9876a1.7438,1.7438,0,0,1-.02-.5738l-.5358,3.9876.0641-.2759-1.5121,3.5832a1.6282,1.6282,0,0,1,.26-.4843l-2.3454,3.0359a2.0272,2.0272,0,0,1,.4034-.39l-3.0358,2.3455a2.6193,2.6193,0,0,1,.507-.29L93.785,64.3336a4.5144,4.5144,0,0,1,.8683-.2357l-3.9876.5358a4.5112,4.5112,0,0,1,.9433.0258l-3.9876-.5359a5.8955,5.8955,0,0,1,1.0083.3169l-3.5832-1.5121a7.7507,7.7507,0,0,1,.9283.5507L82.939,61.1336A8.6,8.6,0,0,1,84.4683,62.68l-2.3455-3.0358A12.3272,12.3272,0,0,1,83.26,61.6882L81.7473,58.105a26.3691,26.3691,0,0,1,1.6659,6.7669l-.5358-3.9876c.1732,1.35.2926,2.6962.42,4.0491.3163,3.3623.59,5.6485,2.2842,8.631a15.1668,15.1668,0,0,0,7.5569,6.6526,11.9011,11.9011,0,0,0,6.0583,1.3487,15.5628,15.5628,0,0,0,7.7357-2.084,16.8678,16.8678,0,0,0,7.5908-9.6142c.8826-2.6121.6368-5.3068.9276-7.9792l-.5358,3.9876a12.3932,12.3932,0,0,1,.7165-2.878l-1.5121,3.5832a9.8658,9.8658,0,0,1,.9477-1.6636l-2.3455,3.0358a10.0977,10.0977,0,0,1,1.602-1.6456l-3.0358,2.3455a10.9359,10.9359,0,0,1,1.8986-1.1469l-3.5832,1.5121a6.5674,6.5674,0,0,1,1.399-.4108l-3.9876.5358a3.21,3.21,0,0,1,.7051-.0136l-3.9875-.5358a2.633,2.633,0,0,1,.6869.1584L100.8359,67.24a2.6087,2.6087,0,0,1,.6522.3637l-3.0358-2.3454a4.0829,4.0829,0,0,1,.67.6708l-2.3455-3.0358.1174.2094L95.3819,59.52l.07.2027-.5359-3.9876a.9347.9347,0,0,1,.0119.3862l.5359-3.9876-.0515.1839,1.5122-3.5832a1.4077,1.4077,0,0,1-.2006.3506l2.3454-3.0358a4.0851,4.0851,0,0,1-.4944.4863l3.0358-2.3455c-.85.6392-1.8276,1.076-2.7019,1.68-2.9621,2.0453-5.8031,4.539-7.3182,7.8965a24.1,24.1,0,0,0-2.6284,10.8474,67.7368,67.7368,0,0,0,1.163,8.0766L89.59,68.7024a8.8937,8.8937,0,0,1,.06,1.7562l.5358-3.9876a5.0787,5.0787,0,0,1-.2395.9493l1.5121-3.5832a4.9372,4.9372,0,0,1-.4663.8248l2.3455-3.0358a4.8836,4.8836,0,0,1-.6209.6186l3.0358-2.3454a5.9785,5.9785,0,0,1-1.0064.5757l3.5832-1.5122a26.6418,26.6418,0,0,1-3.021.8374,17.963,17.963,0,0,0-10.7591,8.06c-2.6009,4.1666-2.54,8.9457-1.745,13.5607.4236,2.4585,1.73,4.6727,2.7109,6.9479l-1.5121-3.5832a6.6247,6.6247,0,0,1,.3026,1.013L83.77,81.8106a2.4006,2.4006,0,0,1,.0155.6681l.5358-3.9876a2.0272,2.0272,0,0,1-.2.6607l1.5121-3.5832-.1993.327L87.7788,72.86a4.6537,4.6537,0,0,1-.678.6754L90.1366,71.19a5.99,5.99,0,0,1-1.0007.5562l3.5832-1.5121a6.7934,6.7934,0,0,1-1.4584.3732l3.9876-.5359a6.2612,6.2612,0,0,1-1.184-.006l3.9876.5358a5.1616,5.1616,0,0,1-.8181-.2076l3.5832,1.5122a3.81,3.81,0,0,1-.701-.4l3.0358,2.3454a2.2955,2.2955,0,0,1-.3769-.3811L105.12,76.506a5.8687,5.8687,0,0,1-.5185-.9591L106.114,79.13a10.2146,10.2146,0,0,1-.4783-1.94l.5358,3.9875c-.334-2.5212-.6235-5.0495-1.01-7.5637a27.0291,27.0291,0,0,0-2.5-7.2393c-1.46-3.2193-5.6988-5.9941-8.9644-6.8934a15.33,15.33,0,0,0-11.5584,1.5121c-3.2029,2.0649-6.0223,5.14-6.8934,8.9645l-.5358,3.9876a14.93,14.93,0,0,0,2.0479,7.5707l.1607.3544-1.5121-3.5832a22.7656,22.7656,0,0,1,1.1065,5.2746l-.5359-3.9876a48.08,48.08,0,0,0,.96,6.77A19.4157,19.4157,0,0,0,81.74,94.8858c4.73,4.7328,11.2956,5.8959,17.6461,4.6281A18.689,18.689,0,0,0,111.5367,90.71a17.3084,17.3084,0,0,0,1.6263-13.2236,56.131,56.131,0,0,0-2.5131-5.9645l1.5121,3.5832a8.3363,8.3363,0,0,1-.43-1.66l.5358,3.9876a5.73,5.73,0,0,1-.0132-1.2155l-.5359,3.9876a2.6214,2.6214,0,0,1,.1358-.54l-1.5121,3.5832a2.0459,2.0459,0,0,1,.2517-.4764l-2.3455,3.0358a1.9407,1.9407,0,0,1,.3834-.3993l-3.0359,2.3455a2.33,2.33,0,0,1,.5308-.3087l-3.5832,1.5122c1.0438-.372,2.1545-.504,3.2044-.8576a19.875,19.875,0,0,0,9.9748-6.7785,18.0687,18.0687,0,0,0,3.9483-11.7129,68.4471,68.4471,0,0,0-1.1423-7.9151l.5358,3.9876a9.0867,9.0867,0,0,1-.0036-2.4356l-.5358,3.9876a10.0472,10.0472,0,0,1,.4812-1.9087l-1.5122,3.5832a6.965,6.965,0,0,1,.7566-1.3564l-2.3454,3.0358a7.2566,7.2566,0,0,1,1.18-1.1588l-3.0358,2.3454c.7985-.5662,1.6911-.9749,2.4991-1.5271,3.7015-2.5295,6.6431-5.6744,7.8426-10.1377a12.0835,12.0835,0,0,0,.5239-4.3738,17.0193,17.0193,0,0,0-1.3619-5.9818,15.24,15.24,0,0,0-3.8887-5.7077,18.0059,18.0059,0,0,0-7.6114-4.3242A19.69,19.69,0,0,0,102.85,39.71a18.1334,18.1334,0,0,0-6.7037,3.0394,24.5817,24.5817,0,0,0-7.5048,7.831,21.1257,21.1257,0,0,0-2.6548,7.3206,45.7138,45.7138,0,0,0-.6531,5.4888c-.0126.5677.01,1.1269-.05,1.6934l.5358-3.9876a3.6784,3.6784,0,0,1-.2246.797l1.5121-3.5832-.1334.2215,2.3454-3.0358-.17.19L92.1847,53.34a1.18,1.18,0,0,1-.3939.238l3.5832-1.5122-.1649.0361,3.9876-.5358-.1476-.0082,3.9876.5358-.1315-.0486,3.5832,1.5121-.1163-.0847,3.0358,2.3454-.1021-.1168,2.3455,3.0358a1.4374,1.4374,0,0,1-.1657-.3137l1.5121,3.5832a5.394,5.394,0,0,1-.2362-1.06l.5358,3.9876a98.5274,98.5274,0,0,0-1.5538-11.49,34.0229,34.0229,0,0,0-2.9532-7.6861,21.0224,21.0224,0,0,0-6.1561-7.0094,19.1038,19.1038,0,0,0-11.8193-4.1254,18.11,18.11,0,0,0-8.5883,2.2951,16.728,16.728,0,0,0-8.6708,14.54,18.0412,18.0412,0,0,0,2.256,8.5639c1.1406,2.27,3.0013,4.1152,4.5629,6.1072l-2.3455-3.0358a20.5482,20.5482,0,0,1,2.415,3.762l-1.5121-3.5832a2.2463,2.2463,0,0,1,.1282.4291l-.5358-3.9876a.99.99,0,0,1,.0052.3636l.5358-3.9875-.0515.1523,1.5122-3.5832-.0917.13L82.78,49.7528l-.135.1058,3.0358-2.3454-.1816.08L93.07,45.5448l-.3578.0023,3.9876.5358a4.5376,4.5376,0,0,1-1.0545-.2878l3.5832,1.5121c-3.1259-1.51-6.0126-3.5416-9.503-4.2438-7.0433-1.4169-14.8626.11-20.0877,5.3366a22.52,22.52,0,0,0-3.1929,4.0992A23.0677,23.0677,0,0,0,64.7584,56.43a7.3146,7.3146,0,0,0-.2719.9222,18.19,18.19,0,0,0,4.2008,16.5691,14.7381,14.7381,0,0,0,5.6279,3.7669,15.4856,15.4856,0,0,0,7.039,1.3371c2.8365-.1982,5.2119-.9944,7.9361-1.3964l-3.9876.5358a9.0166,9.0166,0,0,1,1.92.0421l-3.9876-.5358a9.9672,9.9672,0,0,1,2.1483.6213L81.8,76.78a8.389,8.389,0,0,1,1.5053.8973L80.27,75.332a6.9336,6.9336,0,0,1,.6905.671l-2.3455-3.0359a4.8734,4.8734,0,0,1,.4789.751l-1.5122-3.5832a2.3578,2.3578,0,0,1,.2031.6516l-.5358-3.9876.01.2679.5358-3.9876-.0449.23,1.5122-3.5831-.0956.1935,2.3454-3.0358-.1419.1576,3.0359-2.3455-.1839.1224,3.5832-1.5122a1.4835,1.4835,0,0,1-.4758.1422l3.9876-.5358a4.314,4.314,0,0,1-.9188-.0316l3.9876.5359a12.0482,12.0482,0,0,1-2.2442-.7482l3.5832,1.5121c-1.6658-.7081-3.3236-1.54-5.0531-2.093a22.5455,22.5455,0,0,0-5.31-.8271,28.2283,28.2283,0,0,0-6.05.6262,17.7382,17.7382,0,0,0-4.115,1.3661,20.16,20.16,0,0,0-6.56,4.2081,17.1487,17.1487,0,0,0-4.99,11.8513,14.7363,14.7363,0,0,0,.2674,2.4144,18.6531,18.6531,0,0,0,.3563,2.4442,18.7344,18.7344,0,0,0,2.0561,4.6482,18.1729,18.1729,0,0,0,6.095,6.0144,17.0852,17.0852,0,0,0,6.8,2.1907,17.7356,17.7356,0,0,0,5.6728-.0515c1.4219-.1911,2.8151-.4259,4.2284-.6476l-3.9876.5358a9.0348,9.0348,0,0,1,1.7849-.0554L82.9317,86.27A4.7788,4.7788,0,0,1,84,86.556l-3.5832-1.5121a2.9482,2.9482,0,0,1,.5389.3277L77.92,83.0261a5.0837,5.0837,0,0,1,.666.6761l-2.3455-3.0359a7.4766,7.4766,0,0,1,.5165.85A14.9992,14.9992,0,0,0,97.28,86.8977c3.2029-2.0649,6.0223-5.14,6.8934-8.9645A16.2612,16.2612,0,0,0,102.6611,66.3749Z" transform="translate(-9.3589 -13.9453)"/><path d="M147.1448,44.3788c.2957.0194.5876.0452.8818.08l-3.9875-.5358a7.3112,7.3112,0,0,1,1.7013.4372l-3.5832-1.5121a5.1286,5.1286,0,0,1,.7608.4306l-3.0358-2.3454a4.2239,4.2239,0,0,1,.7493.75l-2.3455-3.0358a5.406,5.406,0,0,1,.4475.7864L137.2214,35.85a8.0271,8.0271,0,0,1,.4832,1.8205l-.5358-3.9876a50.9384,50.9384,0,0,1,.1683,6.0186q.0311,3.4643.0745,6.9284.0885,7.0524.2256,14.1041.1339,6.9279.31,13.855.0876,3.4633.1848,6.9263a43.7561,43.7561,0,0,1,.0033,5.9212l.5358-3.9876a9.1061,9.1061,0,0,1-.5584,2.187l1.5121-3.5832a7.0737,7.0737,0,0,1-.6289,1.0956l2.3454-3.0358a6.5262,6.5262,0,0,1-.9166.9384l3.0358-2.3454a7.7422,7.7422,0,0,1-1.286.76l3.5832-1.5121a10.1614,10.1614,0,0,1-2.4161.631l3.9876-.5358a43.8748,43.8748,0,0,1-5.0708.0509c-2.0489-.018-4.1.0206-6.1487.0325l-11.9789.07-24.2073.1407c-9.9854.0581-19.9656.2122-29.9493.3172a88.4117,88.4117,0,0,1-12.0767-.3071l3.9876.5358A5.5572,5.5572,0,0,1,60.682,78.63l3.5832,1.5121a1.0845,1.0845,0,0,1-.2-.1071L67.1008,82.38a.3084.3084,0,0,1-.0586-.0578l2.3455,3.0358-.0185-.03,1.5121,3.5832-.0112-.0307.5358,3.9876c-.3237-2.7138-.492-5.1831-2.0516-7.6023-.799-1.2391-1.8427-2.3627-2.7584-3.5174l2.3455,3.0358a6.5255,6.5255,0,0,1-.6092-1.1177L69.8443,87.25a9.6256,9.6256,0,0,1-.4772-1.9528l.5358,3.9876a42.6312,42.6312,0,0,1-.0441-5.4352c.0313-2.4914.0261-4.9839.0336-7.4755q.0225-7.4737.0121-14.9476-.0063-7.4736-.0213-14.9473-.0056-3.7374-.0082-7.475a49.1378,49.1378,0,0,1,.1448-5.9282l-.5358,3.9875a7.8236,7.8236,0,0,1,.4207-1.72l-1.5121,3.5832a4.5426,4.5426,0,0,1,.4545-.8166l-2.3455,3.0358a3.7954,3.7954,0,0,1,.6347-.6333L64.1005,42.858a4.5586,4.5586,0,0,1,.8421-.4629l-3.5832,1.5121a7.5758,7.5758,0,0,1,1.5792-.3863l-3.9876.5358a56.1594,56.1594,0,0,1,7.4459-.0288q4.2368.0611,8.4736.099,8.7283.08,17.4571.0938c11.6355.0284,23.2712.0056,34.9066.0683,6.6369.0358,13.2737.0885,19.9106.09a15.4741,15.4741,0,0,0,10.6066-4.3934,15.2419,15.2419,0,0,0,4.3934-10.6066c-.1737-3.8793-1.448-7.9028-4.3934-10.6066a15.5894,15.5894,0,0,0-10.6066-4.3934q-34.3887-.0069-68.7839-.223c-5.6491-.0418-11.2971-.144-16.9458-.2084a24.2861,24.2861,0,0,0-11.7073,2.5834,17.5794,17.5794,0,0,0-7.9754,9.0458,25.73,25.73,0,0,0-1.8536,9.7753c-.0432,2.7112-.003,5.426,0,8.1376q.0105,8.5949.0247,17.19.0092,9.5916-.0242,19.1833c-.0111,2.5517-.1431,5.117-.0943,7.6673.1155,6.0352,1.8646,11.4333,6.01,15.9137L41.4022,92.837a27.1772,27.1772,0,0,0,.5507,4.05,15.1218,15.1218,0,0,0,3.8761,6.649,15.6594,15.6594,0,0,0,3.181,2.4583,14.8307,14.8307,0,0,0,4.4631,1.7565,49.3,49.3,0,0,0,7.59.8351c3.6505.1476,7.31.1035,10.9623.047q13.95-.2154,27.8976-.29l22.46-.13c7.1762-.0417,14.3752-.2508,21.5492-.0729,6.5678.1629,13.1126-1.4039,17.9637-6.0927,4.4276-4.2795,6.2747-10.2668,6.3393-16.2919.0761-7.09-.3752-14.219-.524-21.3089q-.26-12.3706-.375-24.7439c-.0486-5.4445-.0628-10.9559-2.9069-15.8248a18.7949,18.7949,0,0,0-6.9273-6.8388,22.868,22.868,0,0,0-10.3581-2.6592c-3.6845-.2422-8.0592,1.8461-10.6066,4.3934a15.2427,15.2427,0,0,0-4.3934,10.6066c.1738,3.8794,1.4481,7.9028,4.3934,10.6066l3.0358,2.3455A14.9315,14.9315,0,0,0,147.1448,44.3788Z" transform="translate(-9.3589 -13.9453)"/><path d="M54.9122,54.55c25.0129.0018,50.0249.294,75.0378.2616q11.1779-.0144,22.355-.12a15.5333,15.5333,0,0,0,10.6067-4.3934A15.2422,15.2422,0,0,0,167.305,39.691c-.1737-3.8793-1.448-7.9028-4.3933-10.6066A15.4717,15.4717,0,0,0,152.305,24.691c-25.4091.2484-50.8179.0349-76.2271-.0848q-10.5828-.05-21.1657-.0564a15.4748,15.4748,0,0,0-10.6066,4.3934A15.2423,15.2423,0,0,0,39.9122,39.55c.1738,3.8794,1.4481,7.9028,4.3934,10.6066A15.588,15.588,0,0,0,54.9122,54.55Z" transform="translate(-9.3589 -13.9453)"/><path d="M59.59,49.0581h5.8953a11.2964,11.2964,0,0,0,5.7792-1.2919,11.2431,11.2431,0,0,0,4.8274-3.1015,11.2428,11.2428,0,0,0,3.1015-4.8274,11.2964,11.2964,0,0,0,1.2919-5.7792L79.95,30.0705a14.9856,14.9856,0,0,0-3.8576-6.619L73.0564,21.106a14.9315,14.9315,0,0,0-7.5708-2.0479H59.59A11.2964,11.2964,0,0,0,53.8111,20.35a11.2428,11.2428,0,0,0-4.8274,3.1015,11.2431,11.2431,0,0,0-3.1015,4.8274A11.2964,11.2964,0,0,0,44.59,34.0581l.5358,3.9876a14.9865,14.9865,0,0,0,3.8576,6.619L52.02,47.01A14.9315,14.9315,0,0,0,59.59,49.0581Z" transform="translate(-9.3589 -13.9453)"/><path d="M70.1967,49.4572c1.97.0471,3.9409-.0052,5.911-.0061a11.2964,11.2964,0,0,0,5.7792-1.2919,11.2428,11.2428,0,0,0,4.8274-3.1015A11.2431,11.2431,0,0,0,89.8158,40.23a11.2964,11.2964,0,0,0,1.2919-5.7792l-.5358-3.9876a14.9865,14.9865,0,0,0-3.8576-6.619l-3.0358-2.3454a14.9306,14.9306,0,0,0-7.5708-2.048c-1.97.0009-3.9411.0532-5.911.0061a11.2964,11.2964,0,0,0-5.7792,1.2919A11.2431,11.2431,0,0,0,59.59,23.8506a11.2428,11.2428,0,0,0-3.1015,4.8274,11.2964,11.2964,0,0,0-1.2919,5.7792l.5358,3.9876a14.9856,14.9856,0,0,0,3.8576,6.619l3.0358,2.3455a14.9305,14.9305,0,0,0,7.5708,2.0479Z" transform="translate(-9.3589 -13.9453)"/><path d="M81.6047,49.4511h5.497a11.2964,11.2964,0,0,0,5.7792-1.2919,11.2428,11.2428,0,0,0,4.8274-3.1015A11.2431,11.2431,0,0,0,100.81,40.23a11.2964,11.2964,0,0,0,1.2919-5.7792l-.5358-3.9876a14.9865,14.9865,0,0,0-3.8576-6.619l-3.0358-2.3454a14.9306,14.9306,0,0,0-7.5708-2.048h-5.497a11.2964,11.2964,0,0,0-5.7792,1.2919,11.2431,11.2431,0,0,0-4.8274,3.1015,11.2428,11.2428,0,0,0-3.1015,4.8274,11.2964,11.2964,0,0,0-1.2919,5.7792l.5358,3.9876a14.9856,14.9856,0,0,0,3.8576,6.619l3.0358,2.3455a14.9305,14.9305,0,0,0,7.5708,2.0479Z" transform="translate(-9.3589 -13.9453)"/><path d="M122.4185,66.5884a1.3238,1.3238,0,0,1-.1839-.1247l3.0358,2.3455a2.5847,2.5847,0,0,1-.3389-.3579l2.3455,3.0358a4.398,4.398,0,0,1-.4292-.766l1.5121,3.5832a8.22,8.22,0,0,1-.5025-1.8859l.5358,3.9876a9.8158,9.8158,0,0,1-.03-2.4787l-.5358,3.9876a6.2069,6.2069,0,0,1,.3364-1.3419l-1.5121,3.5832a3.8369,3.8369,0,0,1,.3637-.6678L124.67,82.5242a2.7093,2.7093,0,0,1,.3819-.4033l-3.0359,2.3454a2.4215,2.4215,0,0,1,.3418-.2112l-3.5832,1.5121a3.4348,3.4348,0,0,1,.6389-.1884l-3.9876.5358a2.6378,2.6378,0,0,1,.6055-.0138l-3.9876-.5359a2.4726,2.4726,0,0,1,.3983.1036l-3.5832-1.5121a2.3479,2.3479,0,0,1,.4631.271L106.286,82.082a3.1768,3.1768,0,0,1,.3923.4011l-2.3455-3.0358a4.8585,4.8585,0,0,1,.54.9438l-1.5122-3.5832a37.71,37.71,0,0,1,1.1472,4.8217,11.2972,11.2972,0,0,0,2.6849,5.1011,11.3359,11.3359,0,0,0,4.2085,3.8634l3.5832,1.5121a11.3627,11.3627,0,0,0,5.9814.2679,7.4648,7.4648,0,0,0,3.7854-1.024,11.2422,11.2422,0,0,0,4.8274-3.1015l2.3455-3.0358a14.9305,14.9305,0,0,0,2.0479-7.5708l.0132-.1281-.5358,3.9876a6.5028,6.5028,0,0,1,.4684-1.5607l-1.5121,3.5832a11.3251,11.3251,0,0,1,1.337-2.27L131.3971,84.29a7.8942,7.8942,0,0,1,1.2422-1.2742l-3.0358,2.3455a4.4719,4.4719,0,0,1,.9062-.5327l-3.5832,1.5122a3.1349,3.1349,0,0,1,.619-.16l-3.9876.5358a2.7973,2.7973,0,0,1,.4649.0028l-3.9876-.5359a2.71,2.71,0,0,1,.4608.1207l-3.5832-1.5122a3.15,3.15,0,0,1,.6358.3908l-3.0358-2.3455a3.9526,3.9526,0,0,1,.44.452l-2.3454-3.0359a3.2174,3.2174,0,0,1,.2848.4907L111.38,77.1614a3.1119,3.1119,0,0,1,.1439.5207l-.5358-3.9876a3.3036,3.3036,0,0,1-.0029.7257l.5358-3.9876a4.5183,4.5183,0,0,1-.27.9286l1.5122-3.5832a6.9632,6.9632,0,0,1-.7565,1.2675l2.3454-3.0358a9.5209,9.5209,0,0,1-1.685,1.6691l3.0358-2.3455a6.8181,6.8181,0,0,1-1.2617.7527l-3.0358,2.3455a11.2431,11.2431,0,0,0-3.1015,4.8274,7.4668,7.4668,0,0,0-1.024,3.7854,11.3617,11.3617,0,0,0,.268,5.9814l1.5121,3.5832,2.3454,3.0358a11.2437,11.2437,0,0,0,4.8274,3.1015,11.2964,11.2964,0,0,0,5.7792,1.2919,10.6786,10.6786,0,0,1,2.2527-.0442l-3.9876-.5358a6.3509,6.3509,0,0,1,1.1486.2863l-3.5832-1.5121a6.0959,6.0959,0,0,1,1.235.7164l-3.0359-2.3455a6.1658,6.1658,0,0,1,.9378.9491l-2.3454-3.0359a5.2105,5.2105,0,0,1,.5112.9018l-1.5122-3.5832a4.7441,4.7441,0,0,1,.2008.7375l-.5358-3.9876a4.2967,4.2967,0,0,1,.0135.7742l.5358-3.9876a4.4646,4.4646,0,0,1-.2016.7968l1.5122-3.5832a4.8878,4.8878,0,0,1-.4934.9028L117.01,74.452a3.8234,3.8234,0,0,1-.6358.6444l3.0358-2.3455a3.8513,3.8513,0,0,1-.59.343l3.5832-1.5121a3.959,3.959,0,0,1-.8132.23l3.9876-.5358a4.7,4.7,0,0,1-1.2233-.0118l3.9876.5358a6.3079,6.3079,0,0,1-1.2446-.3513l3.5832,1.5122a7.2964,7.2964,0,0,1-1.4929-.8609l3.0358,2.3455a7.0358,7.0358,0,0,1-1.0893-1.0633l2.3455,3.0358a5.6561,5.6561,0,0,1-.6644-1.0923l1.5121,3.5832a5.2062,5.2062,0,0,1-.2237-.6695,11.2965,11.2965,0,0,0-2.6848-5.1011,11.336,11.336,0,0,0-4.2086-3.8633l-3.5831-1.5122a11.3627,11.3627,0,0,0-5.9814-.2679,7.4658,7.4658,0,0,0-3.7854,1.024,11.2431,11.2431,0,0,0-4.8274,3.1015c-2.6161,2.85-4.5923,6.62-4.3934,10.6066a6.9016,6.9016,0,0,1-.0344,1.1445l.5358-3.9876a6.5447,6.5447,0,0,1-.3554,1.283l1.5121-3.5832a12.1587,12.1587,0,0,1-1.4413,2.3528l2.3455-3.0358a5.2777,5.2777,0,0,1-.86.85l3.0358-2.3454a6.0377,6.0377,0,0,1-.8784.52l3.5832-1.5121a4.8439,4.8439,0,0,1-.9648.29l3.9876-.5358a4.0326,4.0326,0,0,1-.7345.0162l3.9876.5358a3.3252,3.3252,0,0,1-.7079-.1945l3.5832,1.5122a4.7253,4.7253,0,0,1-.8078-.496l3.0358,2.3454a4.05,4.05,0,0,1-.435-.4466l2.3454,3.0359a3.6314,3.6314,0,0,1-.2991-.4961l1.5121,3.5832a3.3152,3.3152,0,0,1-.204-.7157l.5358,3.9876a3.87,3.87,0,0,1-.0019-.7495l-.5358,3.9876a4.5211,4.5211,0,0,1,.2474-.9372L125.1142,92.22a5.2727,5.2727,0,0,1,.6051-1.0454L123.3739,94.21a5.41,5.41,0,0,1,.8695-.86l-3.0358,2.3455q.1622-.1219.3354-.2276l3.0358-2.3455a11.2431,11.2431,0,0,0,3.1015-4.8274,7.4648,7.4648,0,0,0,1.024-3.7854,11.3627,11.3627,0,0,0-.2679-5.9814l-1.5121-3.5832-2.3455-3.0358a11.2437,11.2437,0,0,0-4.8274-3.1015,11.2964,11.2964,0,0,0-5.7792-1.2919,7.7188,7.7188,0,0,1-1.09-.0475l3.9876.5358a5.9436,5.9436,0,0,1-1.233-.318L119.22,69.198a4.1042,4.1042,0,0,1-.8553-.4965l3.0358,2.3454a3.5858,3.5858,0,0,1-.3963-.4043l2.3455,3.0358a3.0988,3.0988,0,0,1-.2839-.4873l1.5121,3.5832a3.16,3.16,0,0,1-.1514-.5729l.5358,3.9876a3.8909,3.8909,0,0,1,.0013-.661l-.5358,3.9876a3.9025,3.9025,0,0,1,.2436-.9035l-1.5121,3.5832a1.7377,1.7377,0,0,1,.1958-.3239L121.01,88.9072a1.3866,1.3866,0,0,1,.2377-.2416l-3.0358,2.3455a1.2929,1.2929,0,0,1,.2736-.1655l-3.5832,1.5121a2.1067,2.1067,0,0,1,.4649-.1195l-3.9876.5358a3.0807,3.0807,0,0,1,.5126.0161l-3.9876-.5358a4.4167,4.4167,0,0,1,.9057.27l-3.5832-1.5122a6.9256,6.9256,0,0,1,1.2207.7238l-3.0358-2.3455a6.8318,6.8318,0,0,1,.8294.7564,11.2439,11.2439,0,0,0,4.8274,3.1016,13.5733,13.5733,0,0,0,11.5584,0,11.2439,11.2439,0,0,0,4.8274-3.1016c2.6242-2.8586,4.5723-6.6116,4.3934-10.6066l-.5358-3.9876a14.9871,14.9871,0,0,0-3.8576-6.619,7.0152,7.0152,0,0,0-.6723-.6338,36.552,36.552,0,0,0-3.61-2.7581,16.9707,16.9707,0,0,0-2.5954-1.19,17.4047,17.4047,0,0,0-2.5193-.9945,28.2592,28.2592,0,0,0-4.253-.5772c-.1424-.0047-.2827-.0068-.4251-.0065l-3.9876.5358a1.1786,1.1786,0,0,0-.2388.0435c-1.1267.2643-6.3183,3.0246-3.8092,1.5882a16.8868,16.8868,0,0,0-7.6407,9.7928c-.0472.1478-.1007.2885-.1367.44a26.613,26.613,0,0,0-.6026,4.3533c-.01.187-.0139.3684-.01.5558a21.0277,21.0277,0,0,0,.2767,2.099q.111,1.1034.3024,2.1945A15.6787,15.6787,0,0,0,97.29,88.5857a27.14,27.14,0,0,0,2.501,3.27c.1057.118.2112.23.3246.3415a26.8443,26.8443,0,0,0,3.2611,2.5251c.11.0719.219.1442.3349.2071.6549.3557,1.644.7115,2.1585.9287a23.3,23.3,0,0,0,2.1845.8948,18.8942,18.8942,0,0,0,5.9175.7625l-7.5708-27.952a20.92,20.92,0,0,0-6.7642,6.7178c-.0914.142-.1816.2841-.26.4342a32.83,32.83,0,0,0-1.68,3.9457,20.3814,20.3814,0,0,0-.7833,4.9248,17.1447,17.1447,0,0,0,2.3391,9.206,17.2292,17.2292,0,0,0,8.63,7.4059,19.754,19.754,0,0,0,2.259.9109q1.1121.1873,2.2343.3076a16.908,16.908,0,0,0,2.2372.2842,16.5,16.5,0,0,0,5.0871-.72,19.7915,19.7915,0,0,0,8.5693-5.1856,25.1968,25.1968,0,0,0,3.8251-5.3267,20.69,20.69,0,0,0,2.544-10.2411l-29.4642,3.9876a20.3146,20.3146,0,0,0,9.8451,12.41,21.0548,21.0548,0,0,0,9.6893,2.68A18.3757,18.3757,0,0,0,134.3374,98.8a15.1483,15.1483,0,0,0,3.8276-3.06,16.0656,16.0656,0,0,0,3.6532-5.8046,15.3937,15.3937,0,0,0,1.4934-7.2229,18.7782,18.7782,0,0,0-2.4261-8.7853,19.0625,19.0625,0,0,0-7.76-7.5378,20.5349,20.5349,0,0,0-11.1134-2.351L129.583,91.99a18.7782,18.7782,0,0,0,5.1046-3.7868,29.17,29.17,0,0,0,3.2234-4.0162,8.0863,8.0863,0,0,0,.7565-1.2675A20.5952,20.5952,0,0,0,140.985,74.42a14.72,14.72,0,0,0-.6139-5.0633,17.4242,17.4242,0,0,0-4.3339-7.4357,15.3848,15.3848,0,0,0-5.7745-3.7888,15.031,15.031,0,0,0-6.6272-1.421,17.2818,17.2818,0,0,0-8.3441,2.2462,16.2571,16.2571,0,0,0-4.9138,3.8787A25.4851,25.4851,0,0,0,106.62,68.12a22.3542,22.3542,0,0,0-2.6476,9.522l29.4642-3.9876c-.2023-.7515-.2985-1.53-.4457-2.2931a24.8342,24.8342,0,0,0-2.2136-6.1117c-4.0481-8.4017-15.6026-11.8115-23.5608-6.8987A18.2972,18.2972,0,0,0,99.1772,68.75a19.5785,19.5785,0,0,0-.8739,6.6973c.3031,6.8627,2.9,13.2951,8.9736,17.0456a11.1643,11.1643,0,0,0,5.577,1.78A13.4713,13.4713,0,0,0,123.9364,91.32,11.3362,11.3362,0,0,0,127.8,87.1112c1.8392-3.4812,2.7612-7.6984,1.5121-11.5584a15.9853,15.9853,0,0,0-6.8934-8.9644Z" transform="translate(-9.3589 -13.9453)"/></g><g id="Portfolio-2" data-name="Portfolio"><path d="M140.4653,72.6105c-.0089,2.351-.4658,4.68-.38,7.0333.028.77,1.2281.7736,1.2,0-.0856-2.3533.3713-4.6823.38-7.0333a.6.6,0,0,0-1.2,0Z" transform="translate(-9.3589 -13.9453)" fill="#fef480"/><path d="M145.0266,75.4535c-2.8565-1.0629-6.1039-.7847-9.0937-.7817a.6.6,0,0,0,0,1.2c2.885-.0029,6.0178-.287,8.7747.7389.7247.27,1.0375-.89.319-1.1572Z" transform="translate(-9.3589 -13.9453)" fill="#fef480"/><path d="M138.36,73.0348c.96,1.0221,1.8678,2.092,2.8007,3.1386a25.2986,25.2986,0,0,0,2.7119,2.7541.6171.6171,0,0,0,.8486,0,.6047.6047,0,0,0,0-.8485,25.2723,25.2723,0,0,1-2.7119-2.7542c-.9329-1.0466-1.8407-2.1164-2.8007-3.1386-.53-.564-1.3772.2857-.8486.8486Z" transform="translate(-9.3589 -13.9453)" fill="#fef480"/><path d="M143.1868,72.7923a7.1058,7.1058,0,0,0-3.1113,2.4265c-.8482.9962-1.583,2.0929-2.4759,3.05-.5263.5643.32,1.4148.8485.8485.8576-.9195,1.5677-1.97,2.3757-2.9317a13.0636,13.0636,0,0,1,1.3727-1.4409,4.4135,4.4135,0,0,1,.6328-.4766,2.3583,2.3583,0,0,1,.6766-.319.6005.6005,0,0,0-.3191-1.1571Z" transform="translate(-9.3589 -13.9453)" fill="#fef480"/><path d="M68.1807,78.8835c-.0072,2.92-.3743,5.8244-.38,8.7441a.6.6,0,0,0,1.2,0c.0059-2.92.373-5.8244.38-8.7441a.6.6,0,0,0-1.2,0Z" transform="translate(-9.3589 -13.9453)" fill="#fef480"/><path d="M65.5051,80.6384a12.9412,12.9412,0,0,1,2.7175,3.4682,10.8672,10.8672,0,0,0,3.1066,3.4688c.6463.4267,1.248-.612.6056-1.0362-2.5164-1.6614-3.2474-4.8939-5.5812-6.7494a.6188.6188,0,0,0-.8485,0,.6042.6042,0,0,0,0,.8486Z" transform="translate(-9.3589 -13.9453)" fill="#fef480"/><path d="M71.1139,79.7212a5.44,5.44,0,0,1-1.5815,1.3463,13.9648,13.9648,0,0,0-1.8942,1.4183,38.1389,38.1389,0,0,0-3.0836,3.577.6158.6158,0,0,0,0,.8485.605.605,0,0,0,.8485,0,36.2926,36.2926,0,0,1,3.1687-3.6544c1.1557-1.042,2.6621-1.6279,3.5783-2.93a.6051.6051,0,0,0-.2153-.8209.6126.6126,0,0,0-.8209.2153Z" transform="translate(-9.3589 -13.9453)" fill="#fef480"/><path d="M64.2185,83.4753c2.7868.0054,5.5817.255,8.364,0,.7627-.07.77-1.27,0-1.2-2.7823.255-5.5772.0054-8.364,0a.6.6,0,0,0,0,1.2Z" transform="translate(-9.3589 -13.9453)" fill="#fef480"/><path d="M122.0983,50.3192a3.4315,3.4315,0,0,1,1.6177-3.5405c1.8042-.8593,2.2883,1.19,2.8264,2.3829.7345,1.6279,2.7267,2.7331,4.3126,1.4871,1.3956-1.0964,1.524-2.9721,2.4112-4.39a1.5836,1.5836,0,0,1,1.8738-.819c.6156.2411.8848,1.0429,1.1279,1.605a5.5939,5.5939,0,0,0,2.2309,3.0166,2.7043,2.7043,0,0,0,3.1564-.3791,7.0443,7.0443,0,0,0,1.65-4.0675c.13-.7553-1.0263-1.08-1.1572-.319-.219,1.2739-.5608,3.9536-2.3232,3.92-1.534-.0291-2.1218-1.8953-2.6306-3.0315a2.9779,2.9779,0,0,0-2.1869-2.0267,2.8407,2.8407,0,0,0-2.7009,1.3656c-.773,1.2276-1.0136,3.8342-2.5448,4.39-1.3034.4728-2.0154-.9306-2.3948-1.8983A3.867,3.867,0,0,0,125.49,45.585c-2.837-1.2289-4.8438,2.3645-4.592,4.7342.0808.76,1.2817.7683,1.2,0Z" transform="translate(-9.3589 -13.9453)" fill="#fef480"/><path d="M125.2516,56.7737c.02-1.1689.49-4.1152,2.384-3.0866,1.0948.5947,1.1918,2.3687,2.1155,3.2022a2.1472,2.1472,0,0,0,2.778.126c1.04-.758,1.4642-2.0478,2.1882-3.06.5723-.8,1.3853-1.4132,2.2514-.5864A6.9293,6.9293,0,0,1,137.9842,54.9a4.227,4.227,0,0,0,2.1773,2.0861c2.62.8416,4.02-2.3334,4.2031-4.3831.0689-.769-1.1315-.7643-1.2,0-.1089,1.2158-.8683,3.6881-2.568,3.2657-1.1649-.2895-1.6461-1.8226-2.2514-2.7024a2.69,2.69,0,0,0-2.6617-1.3929c-1.2945.2749-2.0307,1.5546-2.6375,2.6077a5.0506,5.0506,0,0,1-1.1887,1.6338c-.8383.6239-1.4862-.0856-1.8709-.8319-.53-1.0287-.8725-2.1957-2.0427-2.6715-2.7675-1.1253-3.8574,2.182-3.8921,4.2624a.6.6,0,0,0,1.2,0Z" transform="translate(-9.3589 -13.9453)" fill="#fef480"/><path d="M118.8968,64.0026a5.6186,5.6186,0,0,1,1.0053-3.24c.6043-.792,1.9681-1.4441,2.7611-.5257,1.0616,1.23.519,3.2566,1.7386,4.4718a2.2789,2.2789,0,0,0,2.6829.3618c1.1795-.6215,1.5679-1.9058,1.9039-3.1.1883-.67.4141-1.8206,1.311-1.8088.8121.0106,1.1451,1.0294,1.404,1.6335a4.661,4.661,0,0,0,2.3008,2.7528c2.8649,1.2324,4.538-1.7346,4.53-4.1956a.6.6,0,0,0-1.2,0c.0038,1.1507-.3219,2.8855-1.6372,3.2288-1.8563.4845-2.5929-1.6538-3.1915-2.9242a2.5527,2.5527,0,0,0-2.312-1.69c-1.1876.0336-1.83,1.0219-2.1738,2.0405a15.1214,15.1214,0,0,1-.6737,2.0921c-.3741.7351-1.3407,1.4827-2.0957.7611a4.4448,4.4448,0,0,1-.8146-2.2644c-.3761-1.6741-1.1872-3.1743-3.1553-2.9669-2.4942.2628-3.5342,3.22-3.5837,5.374a.6.6,0,0,0,1.2,0Z" transform="translate(-9.3589 -13.9453)" fill="#fef480"/><path d="M68.923,59.5612a5.9118,5.9118,0,0,0,5.8605-3.9379,5.6657,5.6657,0,0,0-1.5994-6.0907c-2.1312-1.74-5.6492-1.6131-7.8927-.1348a5.34,5.34,0,0,0-2.039,6.1565,6.0569,6.0569,0,0,0,2.2066,3.0834,5.561,5.561,0,0,0,3.464.9235.6.6,0,0,0,0-1.2,4.5264,4.5264,0,0,1-2.4862-.5157,4.6269,4.6269,0,0,1-1.77-1.9657,4.3185,4.3185,0,0,1,.6549-4.9812,5.9742,5.9742,0,0,1,6.514-.8445,4.2985,4.2985,0,0,1,1.972,4.5513,4.6794,4.6794,0,0,1-4.8852,3.7558A.6.6,0,0,0,68.923,59.5612Z" transform="translate(-9.3589 -13.9453)" fill="#fef480"/><path d="M90.2271,73.6428c-1.5379-2.9324-4.2052-2.4969-7.04-2.0492-1.5519.2451-3.9906.0892-3.9517-2.0744.0178-.993,1.0059-1.588,1.8152-1.943a8.2665,8.2665,0,0,1,6.8005.0749c1.2926.5436,5.1884,1.9276,4.9977-.8522-.17-2.4755-3.3954-3.8461-5.4666-4.1706a10.7384,10.7384,0,0,0-4.4323.4385c-1.0951.2782-2.9191.9577-3.37-.5736a3.1523,3.1523,0,0,1,.9457-2.9306c2.7117-2.7408,6.7434-1.2225,9.5059.4685.8885.5438,2.24,1.4689,3.3413,1.0318a1.3233,1.3233,0,0,0,.68-1.7163,10.4321,10.4321,0,0,0-1.74-2.9411c-.739-1.0689-1.5768-2.0426-2.3362-3.0942-.4286-.5935-1.0846-1.4593-.7223-2.229a2.086,2.086,0,0,1,2.0042-.8654c1.6969.13,3.0718,1.6426,3.8557,3.0264C96.8519,56.31,97.297,60.13,97.5967,63.5876c.092,1.0609-.0269,3.6071,1.6,3.5781,2.3179-.0412,1.6858-4.1642,1.89-5.5394a8.3794,8.3794,0,0,1,2.198-4.7321c1.0735-1.1022,2.99-2.4928,4.6224-2.13.7062.1568,1.788.8668,1.2024,1.6345a4.4387,4.4387,0,0,1-1.3446.9455,9.74,9.74,0,0,0-2.69,1.965,8.4722,8.4722,0,0,0-1.53,6.9024c.2694,1.6644,1.0393,3.7458.1339,5.3313-.7732,1.3538-2.4346,1.6442-3.8266,1.9707-1.1167.2619-2.2723.5347-2.8686,1.6144a4.94,4.94,0,0,0,.0074,3.7829c.5531,1.6314,2.1822,3.5385.1853,4.8711-1.1653.7777-3.3053,1.171-4.4051.0732-1.2075-1.2054-1.0982-3.5928-1.3165-5.1589a17.9717,17.9717,0,0,0-1.2271-5.0533c-.3184-.7023-1.3529-.093-1.0361.6057a17.9753,17.9753,0,0,1,1.1519,5.0852c.2218,1.6514.2551,3.5052,1.23,4.9326,1.3421,1.9659,4.4178,1.7047,6.209.5517A3.1335,3.1335,0,0,0,99.37,81.8106c-.1729-1.4938-1.2195-2.7289-1.4717-4.215a2.3557,2.3557,0,0,1,.51-2.3112,5.5042,5.5042,0,0,1,2.2023-.7156,7.4245,7.4245,0,0,0,3.2483-1.3862c2.4862-2.162.93-5.4992.7238-8.2224a7.1374,7.1374,0,0,1,1.0531-4.422c.84-1.2262,2.1212-1.7314,3.317-2.5058.7118-.461,1.5415-1.0793,1.5829-2.0063.0478-1.071-1.0449-1.992-1.969-2.3164-2.6894-.9442-5.7994,1.5675-7.19,3.648A10.4317,10.4317,0,0,0,99.8278,62.1c-.0714.6563-.0859,1.302-.0922,1.96-.0033.35-.1048,2.2165-.6481,1.6924-.4623-.4459-.3-2.2712-.3746-2.9185a49.9415,49.9415,0,0,0-.855-5.5627c-.6869-2.9681-2.0142-6.5032-5.0094-7.8433-1.8892-.8452-5.3155-.1684-4.8554,2.5346.23,1.3506,1.3316,2.4517,2.1574,3.4746a26.8159,26.8159,0,0,1,2.36,3.418c.11.1908.4848.728.4092.93-.1161.31-.73.038-1.0282-.0884-.8136-.3448-1.53-.9-2.3055-1.32A11.1986,11.1986,0,0,0,85.388,56.88c-2.938-.2647-6.6119,1.24-7.0466,4.49a2.9079,2.9079,0,0,0,1.45,3.1284c1.5163.6465,3.5147-.3786,5.0128-.647A7.3175,7.3175,0,0,1,90.16,64.9444c.4554.3106,2.1035,1.6991,1.2517,2.3356-.5508.4115-2.01-.2808-2.55-.4975a11.0723,11.0723,0,0,0-4.0756-1.1465,11.1254,11.1254,0,0,0-3.01.4227c-1.681.4692-3.8,1.5318-3.7356,3.5675a3.4851,3.4851,0,0,0,1.5187,2.684c1.3159.8748,2.9284.6181,4.3938.3617,2.144-.3752,4.0927-.6067,5.2378,1.5766C89.55,74.9327,90.5858,74.3268,90.2271,73.6428Z" transform="translate(-9.3589 -13.9453)" fill="#fef480"/><path d="M147.1448,29.9788c1.701.1118,3.3617.5449,4.054,2.2675.85,2.1146.5147,4.7413.534,6.9605q.0795,9.1558.2446,18.3107.1634,9.155.4014,18.3085c.0766,2.9683.1771,5.9363.2453,8.9048.05,2.175-.0026,4.72-1.7582,6.2847-2.075,1.85-5.2071,1.56-7.7766,1.5-2.9891-.07-5.9864.011-8.9761.0283l-18.4674.1074c-11.787.0685-23.579.0414-35.365.2064-5.1623.0723-10.32.2591-15.4843.2118a41.8637,41.8637,0,0,1-7.234-.3714,5.0728,5.0728,0,0,0-.6789-.174c-.1241.0358.3048.4476.0972.1536a12.2867,12.2867,0,0,1-.8118-1.16c-1.0855-1.9913-.7944-4.5555-.73-6.7357.3538-12.002.0668-24.0532.0478-36.06q-.0072-4.61-.0113-9.2189a35.7319,35.7319,0,0,1,.22-6.8609,3.2379,3.2379,0,0,1,2.2371-2.7605c2.0185-.6449,4.3968-.3162,6.4716-.2834,24.5905.3883,49.19.2291,73.7823.3547q4.4793.0229,8.9586.0262a.6.6,0,0,0,0-1.2c-26.1639-.0053-52.3435.0168-78.5053-.32-2.932-.0378-5.9251-.2708-8.8523-.0818a6.1771,6.1771,0,0,0-3.959,1.3371,5.5649,5.5649,0,0,0-1.4237,3.4888,66.0862,66.0862,0,0,0-.128,7.7952c.0117,13.121.061,26.2422.0009,39.3632-.0117,2.5565-.1889,5.146-.0754,7.7a11.0072,11.0072,0,0,0,.4873,3.03,6.1715,6.1715,0,0,0,.6039,1.3058,3.6658,3.6658,0,0,0,.5342.6313c.99,1.2135,3.0406,1.05,4.5174,1.1251,6.0659.31,12.1677.0894,18.2358-.0576,10.7671-.2609,21.5534-.1543,32.3235-.2169l19.4657-.1131,9.9824-.058c2.6213-.0153,5.379.3245,7.9635-.2149a6.4386,6.4386,0,0,0,4.84-3.7095c.9252-2.1994.6776-4.7094.6115-7.031q-.2749-9.6471-.4755-19.2963-.1983-9.6494-.3093-19.3c-.0356-3.1554.0952-6.3551-.1147-9.5035a6.6186,6.6186,0,0,0-1.6286-4.48,6.3535,6.3535,0,0,0-4.0941-1.3936C146.3738,28.7281,146.3769,29.9283,147.1448,29.9788Z" transform="translate(-9.3589 -13.9453)" fill="#fef480"/><path d="M54.9122,40.15c25.0129.0018,50.0249.294,75.0378.2616q11.1779-.0144,22.355-.12a.6.6,0,0,0,0-1.2c-25.4091.2484-50.8179.0349-76.2271-.0848q-10.5828-.05-21.1657-.0564a.6.6,0,0,0,0,1.2Z" transform="translate(-9.3589 -13.9453)" fill="#fef480"/><path d="M59.59,34.6581h5.8953a.6.6,0,0,0,0-1.2H59.59a.6.6,0,0,0,0,1.2Z" transform="translate(-9.3589 -13.9453)" fill="#fef480"/><path d="M70.1967,35.0572c1.97.0471,3.9409-.0052,5.911-.0061a.6.6,0,0,0,0-1.2c-1.97.0009-3.9411.0532-5.911.0061a.6.6,0,0,0,0,1.2Z" transform="translate(-9.3589 -13.9453)" fill="#fef480"/><path d="M81.6047,35.0511h5.497a.6.6,0,0,0,0-1.2h-5.497a.6.6,0,0,0,0,1.2Z" transform="translate(-9.3589 -13.9453)" fill="#fef480"/><path d="M115.1505,79.0223c-1.0425-.6437-1.2138-2.5909-1.25-3.6722-.0384-1.129.026-3.1512,1.3484-3.5783,2.581-.8334,2.7486,4.5574,3.145,6.03a.603.603,0,0,0,1.1785-.16,7.45,7.45,0,0,1,1.49-3.3222c.6226-.8726,1.7962-2.2835,3.033-1.9748,1.6449.41,1.437,2.2262.77,3.3449a7.217,7.217,0,0,1-3.155,2.83.6042.6042,0,0,0,.3028,1.1181c2.0488-.22,4.2321.064,5.3429,2.0479a2.74,2.74,0,0,1-1.36,3.8718c-2.3007.8322-5.2068-1.2949-5.7766-3.49a.6027.6027,0,0,0-1.1785.1595c.1114,2.2343-2.0206,6.5735-4.8681,5.8065-2.713-.7307-1.619-3.8912.1036-5a.6049.6049,0,0,0-.3028-1.1181c-1.6493.043-4.0418-.6784-3.3-2.8278.61-1.7694,3.039.1035,3.7516.877.5245.5692,1.3714-.2811.8486-.8485-1.3143-1.4266-4.6411-3.2466-5.6834-.5538-1.1617,3.0012,1.8087,4.62,4.3836,4.5531l-.3028-1.1181c-2.5038,1.6119-3.5339,5.6329-.2379,7.0407,3.75,1.6017,6.9645-3.6723,6.808-6.8108l-1.1786.1595c.7873,3.0332,5.0372,5.8119,8.0086,3.979a3.97,3.97,0,0,0,1.382-5.171c-1.2747-2.4312-3.9214-3.0269-6.4393-2.7567l.3029,1.1181a8.0733,8.0733,0,0,0,3.9184-3.9046,3.1347,3.1347,0,0,0-1.5188-4.3594c-3.1912-1.287-6.082,3.81-6.3428,6.35l1.1786-.1595c-.4446-1.6514-.504-3.3815-1.2077-4.965-.6851-1.5417-2.18-2.5788-3.8588-1.7326-1.6074.81-1.8509,3.0737-1.7807,4.662.0679,1.538.4023,3.7229,1.8416,4.6116.6589.4069,1.2622-.6307.6056-1.0362Z" transform="translate(-9.3589 -13.9453)" fill="#fef480"/></g></svg>