<svg id="Livello_1" data-name="Livello 1" xmlns="http://www.w3.org/2000/svg" width="205.8854" height="206.0169" viewBox="0 0 205.8854 206.0169"><path d="M12.4116,214.5629c5.7161,0,5.7161,4,11.4323,4,5.7178,0,5.7178-4,11.4356-4s5.7164,4,11.4328,4c5.718,0,5.718-4,11.436-4s5.7189,4,11.4378,4,5.718-4,11.436-4,5.7181,4,11.4363,4,5.7188-4,11.4376-4,5.72,4,11.4393,4,5.7187-4,11.4375-4,5.7193,4,11.4386,4,5.7194-4,11.4389-4c5.7176,0,5.7176,4,11.4351,4,5.7191,0,5.7191-4,11.4382-4,5.7211,0,5.7211,4,11.4421,4,5.7193,0,5.7193-4,11.4385-4,5.7232,0,5.7232,4,11.4464,4s5.7232-4,11.4464-4" transform="translate(-12.4116 -13.2961)" fill="none" stroke="#fef480" stroke-miterlimit="10" stroke-width="1.5"/><g id="Face"><path d="M177.1586,144.1981a23.7075,23.7075,0,0,0-3.1643-8.3255,29.7672,29.7672,0,0,0-16.531-12.8556c-1.59-.4786-3.2275-.7677-4.774-1.3868l3.5832,1.5122a8.2246,8.2246,0,0,1-1.5644-.8794l3.0358,2.3454a6.1476,6.1476,0,0,1-.836-.82l2.3454,3.0358a5.8042,5.8042,0,0,1-.6184-1.0632l1.5121,3.5832a6.3471,6.3471,0,0,1-.3011-1.1082l.5358,3.9876a7.3043,7.3043,0,0,1-.0132-1.2294l-.5358,3.9875a8.4652,8.4652,0,0,1,.5275-1.9292l-1.5121,3.5832a13.3265,13.3265,0,0,1,1.5985-2.6089l-2.3455,3.0358c1.6979-2.1482,3.4873-4.1969,5.0967-6.4246a30.9718,30.9718,0,0,0,3.6472-7.449,25.8269,25.8269,0,0,0,.3839-15.76,30.3972,30.3972,0,0,0-9.0533-13.8461c-2.5466-2.2328-5.7227-4.0184-7.8238-6.7074l2.3455,3.0358a8.434,8.434,0,0,1-.5984-.9925l1.5121,3.5832a6.038,6.038,0,0,1-.3423-1.0883l.5358,3.9876a5.5336,5.5336,0,0,1-.0171-1.1385l-.5358,3.9876a6.812,6.812,0,0,1,.4185-1.4284l-1.5121,3.5832c.473-1.0089,1.1037-1.918,1.6687-2.8748a22.84,22.84,0,0,0,2.7205-6.544,24.5952,24.5952,0,0,0,.7278-6.9157,30.0234,30.0234,0,0,0-1.1821-7.0829,33.2385,33.2385,0,0,0-4.5308-9.23c-2.2493-3.0594-4.6515-6.0313-7.0115-9.0087-3.2338-4.08-6.6018-8.0173-10.1221-11.8514-3.5467-3.8628-7.4937-7.8951-12.2329-10.2493-4.0821-2.0277-8.5947-3.5781-13.2358-3.27a19.4606,19.4606,0,0,0-10.2939,3.2534A20.8922,20.8922,0,0,1,94.7971,38.86L98.38,37.3481a27.1878,27.1878,0,0,1-6.4836,1.74l3.9876-.5359a32.7605,32.7605,0,0,1-7.9665.18l3.9875.5358a15.0511,15.0511,0,0,1-3.7737-.9929l3.5832,1.5122A11.8521,11.8521,0,0,1,89.49,38.4505l3.0358,2.3455a12.4136,12.4136,0,0,1-1.7828-1.7841l2.3455,3.0358A12.2576,12.2576,0,0,1,91.618,39.57L93.13,43.1533a11.7729,11.7729,0,0,1-.6954-2.4226l.5358,3.9876A8.7013,8.7013,0,0,1,92.953,42.42l-.5358,3.9876a7.534,7.534,0,0,1,.2955-1.0919l-1.5122,3.5832a5.8494,5.8494,0,0,1,.5463-.9736l-2.3455,3.0358a1.9071,1.9071,0,0,1,.3454-.3789l-3.0358,2.3455a16.3167,16.3167,0,0,1,2.59-1.334,16.6658,16.6658,0,0,0,5.1961-3.8905,24.911,24.911,0,0,0,3.9947-5.6988,16.4846,16.4846,0,0,1,1.5691-2.84L97.7157,42.2a6.6941,6.6941,0,0,1,1.0816-1.05L95.7615,43.495a19.5731,19.5731,0,0,1,3.3845-1.6271L95.5628,43.38a10.2628,10.2628,0,0,1,2.28-.6674l-3.9876.5358a5.964,5.964,0,0,1,1.1266.0111l-3.9876-.5358a26.1567,26.1567,0,0,1,4.4837,1.4423l-3.5832-1.5121a17.0672,17.0672,0,0,1,3.6488,2.07l-3.0358-2.3455a11.7117,11.7117,0,0,1,1.6885,1.6567L91.85,41a9.9438,9.9438,0,0,1,1.2254,2.0636L91.5636,39.48a6.9028,6.9028,0,0,1,.4035,1.5249l-.5358-3.9876a20.4409,20.4409,0,0,1-.0589,5.0081l.5358-3.9876a11.9694,11.9694,0,0,1-.6818,2.7727l1.5121-3.5831a8.192,8.192,0,0,1-.8852,1.505l2.3455-3.0358a11.4545,11.4545,0,0,1-1.7737,1.7042l3.0358-2.3455a14.97,14.97,0,0,1-3.2008,1.89l3.5832-1.5121a19.8777,19.8777,0,0,1-4.5226,1.17l3.9876-.5358a19.8458,19.8458,0,0,1-4.7248.0273l3.9876.5358a16.4517,16.4517,0,0,1-3.7113-.9684l3.5832,1.5121a16.3323,16.3323,0,0,1-3.3182-1.9158l3.0358,2.3455A12.777,12.777,0,0,1,92.1562,35.66l2.3454,3.0358a10.0307,10.0307,0,0,1-1.2183-2.0462l1.5121,3.5832a9.5871,9.5871,0,0,1-.5518-2.02l.5358,3.9876a11.1192,11.1192,0,0,1-.0047-2.446l-.5358,3.9876a14.7914,14.7914,0,0,1,.8967-3.3263l-1.5121,3.5832a16.5905,16.5905,0,0,1,1.7984-3.2751L93.0764,43.76a9.5675,9.5675,0,0,1,1.7022-1.7142l-3.0358,2.3455a8.7642,8.7642,0,0,1,1.4165-.7863L89.5761,45.117a10.0915,10.0915,0,0,1,1.9507-.5147l-3.9876.5358a15.4485,15.4485,0,0,1,3.723.0421l-3.9876-.5358a24.9884,24.9884,0,0,1,5.6934,1.43l-3.5832-1.5121a14.6865,14.6865,0,0,1,2.8924,1.6023l-3.0358-2.3454a11.6551,11.6551,0,0,1,1.9073,1.8555l-2.3455-3.0358a10.2547,10.2547,0,0,1,1.1592,1.9415L88.45,40.9974a8.9774,8.9774,0,0,1,.5129,1.8L88.4274,38.81a7.8056,7.8056,0,0,1,.0019,1.9162l.5359-3.9876a7.9234,7.9234,0,0,1-.3875,1.3718L90.09,34.5272a12.6989,12.6989,0,0,1-1.5693,2.5441l2.3454-3.0359a11.687,11.687,0,0,1-1.8386,1.901l3.0358-2.3455a11.134,11.134,0,0,1-2.2144,1.3019l3.5832-1.5122a11.2489,11.2489,0,0,1-2.4682.6776l3.9876-.5358a11.0618,11.0618,0,0,1-2.577.0076l3.9876.5358c-1.4664-.2238-2.7618-.8824-4.1883-1.2369a17.56,17.56,0,0,0-13.3617,1.8469c-3.9394,2.3743-6.1863,6.0189-8.9157,9.5747l2.3454-3.0358a9.3837,9.3837,0,0,1-1.3409,1.4374l3.0359-2.3454a3.5013,3.5013,0,0,1-.6772.4047l3.5832-1.5121c-3.3476,1.1216-6.7421,1.8072-9.8086,3.74a38.7982,38.7982,0,0,0-8.0353,7.0509,61.6021,61.6021,0,0,0-10.19,15.2969A77.2178,77.2178,0,0,0,44.85,75.512,74.1417,74.1417,0,0,0,42.7243,87.23a68.35,68.35,0,0,0,.8983,19.4816c.8166,4.9747,2.1759,9.8448,2.8647,14.8409l-.5358-3.9876c.5519,4.1957.7763,8.4933,2.152,12.5261a46.1386,46.1386,0,0,0,2.9967,7.007,39.584,39.584,0,0,0,4.4866,6.2258,19.727,19.727,0,0,0,2.9245,2.8455,38.5679,38.5679,0,0,0,6.3967,4.4785,45.3362,45.3362,0,0,0,7.9292,3.1835,51.664,51.664,0,0,1,4.9914,1.5565l-3.5832-1.5121a12.68,12.68,0,0,1,2.7519,1.5893L73.9615,153.12a9.9158,9.9158,0,0,1,1.3285,1.3584l-2.3455-3.0359A10.7308,10.7308,0,0,1,74.16,153.6l-1.5121-3.5832a30.5018,30.5018,0,0,1,1.0548,3.4348,37.8985,37.8985,0,0,0,2.4837,6.6768,22.1981,22.1981,0,0,0,8.9612,9.2849,34.7784,34.7784,0,0,0,4.6332,2,10.7578,10.7578,0,0,0,1.3975.4224,28.3077,28.3077,0,0,0,6.5053.7834,29.06,29.06,0,0,0,13.0725-3.4716,15.048,15.048,0,0,0,6.8934-8.9644l.5358-3.9876a11.2964,11.2964,0,0,0-1.2919-5.7792,14.3238,14.3238,0,0,0-6.1373-7.1729l-3.5832-1.5121a15.1064,15.1064,0,0,0-7.9752,0q-.2917.0684-.5887.1079l3.9876-.5358a8.7451,8.7451,0,0,1-1.8576.0022l3.9876.5358a10.3066,10.3066,0,0,1-2.4972-.6783l3.5832,1.5122a10.4233,10.4233,0,0,1-1.9669-1.148l3.0358,2.3454a8.8219,8.8219,0,0,1-1.3477-1.3333l2.3454,3.0358a7.2886,7.2886,0,0,1-.7781-1.32l1.5122,3.5832a7.5419,7.5419,0,0,1-.3934-1.4735l.5358,3.9876a27.9938,27.9938,0,0,1,.1156-4.4032,25.2646,25.2646,0,0,0-.7909-7.1083,22.3463,22.3463,0,0,0-1.2641-3.3268,24.6325,24.6325,0,0,0-1.4065-3.0761,28.094,28.094,0,0,0-1.9923-2.7025,20.4779,20.4779,0,0,0-2.2782-2.7,29.2811,29.2811,0,0,0-12.28-6.646,63.9316,63.9316,0,0,1-7.5738-2.1606l3.5832,1.5121a15.4476,15.4476,0,0,1-3.0244-1.773l3.0358,2.3454a13.6139,13.6139,0,0,1-2.2074-2.2057l2.3455,3.0358a13.5837,13.5837,0,0,1-1.5306-2.6178L85,122.109a16.7557,16.7557,0,0,1-1.0851-4.1684l.5358,3.9876c-.28-2.2521-.366-4.5146-.48-6.7793a95.8646,95.8646,0,0,0-1.1369-10.2173c-.6539-4.1161-1.6843-8.1635-2.2552-12.2939l.5358,3.9876a37.0528,37.0528,0,0,1,.0231-9.4291l-.5358,3.9876a42.3472,42.3472,0,0,1,2.95-10.7594L82.04,84.0076a39.1025,39.1025,0,0,1,4.88-8.364l-2.3455,3.0358a32.0565,32.0565,0,0,1,5.42-5.4576l-3.0359,2.3455q.6879-.5255,1.4-1.0143L67.8364,54.03l-.2394.3144,2.3454-3.0358c-.8137.99-1.758,1.8566-2.5971,2.8235a40.9406,40.9406,0,0,0-4.488,6.133,37.3879,37.3879,0,0,0-1.9661,4.0412,52.12,52.12,0,0,0-2.6194,6.6655c-1.4846,5.4054-1.98,12.4086,1.1557,17.3513A18.1752,18.1752,0,0,0,65.2437,94.13c2.426,1.5147,3.4147,1.5069,5.826,1.8309a13.5317,13.5317,0,0,0,6.34-.3328c2.4906-.8049,4.8119-2.1716,7.2183-3.2023L81.045,93.938a65.7718,65.7718,0,0,1,16.6337-4.3565l-3.9876.5359a110.3432,110.3432,0,0,1,28.61-.0589l-3.9876-.5358a27.74,27.74,0,0,1,6.4365,1.6431l-3.5832-1.5121a12.0339,12.0339,0,0,1,2.4984,1.4211l-3.0358-2.3455a7.931,7.931,0,0,1,1.0731,1.066L119.3567,86.76a6.0954,6.0954,0,0,1,.5773,1.0227l-1.5121-3.5832a8.8057,8.8057,0,0,1,.4755,1.8329l-.5358-3.9876a18.5356,18.5356,0,0,1-.1152,4.7289l.5358-3.9876q-.1482,1.0273-.348,2.0448l22.0349-8.9644a37.5165,37.5165,0,0,0-7.851-3.8079,23.144,23.144,0,0,0-5.0849-1.3121,36.1873,36.1873,0,0,0-8.8346-.6126c-3.8854.3892-8.4209.87-11.8614,2.9783a17.6987,17.6987,0,0,0-8.7085,14.9908,13.3147,13.3147,0,0,0,.6584,4.4928,19.9644,19.9644,0,0,0,1.7189,3.947,18.7942,18.7942,0,0,0,6.1221,6.0772,25.973,25.973,0,0,0,4.8237,2.1516,12.1969,12.1969,0,0,0,1.6037.4818,32.73,32.73,0,0,0,7.7841.86,26.5172,26.5172,0,0,0,12.208-2.9264,17.3527,17.3527,0,0,0,2.27-1.6643,16.0875,16.0875,0,0,0,2.1659-1.8,23.5778,23.5778,0,0,0,3.45-4.92l-8.9645,6.8934.0519-.0178L113.5686,91.2012l.0114.0355,27.4162-11.5584-.0213-.0277,1.5121,3.5832c-1.4473-6.4916-4.9735-12.8091-8.9824-18.1061a83.2534,83.2534,0,0,0-7.5423-8.9841q-1.4754-1.4665-3.0573-2.82a21.0274,21.0274,0,0,1-2.9909-2.6658l2.3455,3.0358a3.014,3.014,0,0,1-.3426-.6018l1.5121,3.5832-.1128-.3313L121.8042,52.76a11.3362,11.3362,0,0,0-3.8634-4.2086,14.2948,14.2948,0,0,0-9.0887-3.2206,17.7918,17.7918,0,0,0-7.5708,2.0479c-3.54,1.87-5.552,5.3888-6.8934,8.9645a62.18,62.18,0,0,0-3.0542,14.3534,79.78,79.78,0,0,0-.5359,11.1852c.1278,8.0176,1.17,16.0505.8124,24.0728l.5358-3.9876a1.848,1.848,0,0,1-.1717.6985l1.5121-3.5832-.159.2433L95.6728,96.29l-.2.1954L98.5083,94.14a1.7137,1.7137,0,0,1-.5.2669l3.5832-1.5122a2.9433,2.9433,0,0,1-.59.1343l3.9876-.5358a11.9177,11.9177,0,0,1-2.6717-.1146l3.9876.5358c-4.2656-.6072-7.4985-1.1511-11.7318-.2186a17.0481,17.0481,0,0,0-12.0914,12.1006c-2.0365,6.8462,1.3817,14.5077,7.3927,18.0883a16.4534,16.4534,0,0,0,16.68.014c9.0014-5.3742,10.4371-16.3819,10.192-25.8749a56.9372,56.9372,0,0,0-.8842-8.2053,29.9732,29.9732,0,0,0-2.5651-7.3727c-2.5391-5.6168-7.7437-9.4929-13.4346-11.4577-4.7978-1.6564-10.54-1.2373-15.4127-.1927a18.5509,18.5509,0,0,0-4.8831,2.0009,17.7079,17.7079,0,0,0-6.0541,5.9969,14.3322,14.3322,0,0,0-1.9862,4.5019,17.9023,17.9023,0,0,0-.5928,5.2308c.2861,3.3222.6659,5.5984,2.3825,8.5435a21.9909,21.9909,0,0,0,3.0743,3.9978c3.3412,3.5247,8.0693,5.1331,12.7963,5.4445a17.9254,17.9254,0,0,0,13.7564-5.1326c3.1613-3.22,5.58-8.511,5.1268-13.1A11.2964,11.2964,0,0,0,106.7784,81.5a11.2428,11.2428,0,0,0-3.1015-4.8274c-2.8012-2.5715-6.67-4.7-10.6066-4.3934l-6.928.54c-1.0567.0824-2.1142.1579-3.17.2472-.0407.0034-.0814.006-.1221.0095-2.8306.2431-5.431.5863-7.8922,2.173A15.9757,15.9757,0,0,0,69.5765,80.63a17.5869,17.5869,0,0,0-1.4992,13.8575,21.7743,21.7743,0,0,0,14.2659,13.9584c6.04,1.9872,12.7207.8575,18.3179-1.8161,5.3437-2.5526,9.2434-8.0121,10.9765-13.5565a22.8391,22.8391,0,0,0,.8594-5.4787,21.4772,21.4772,0,0,0-.6048-5.26,19.2862,19.2862,0,0,0-3.9294-7.9139,20.4431,20.4431,0,0,0-6.4382-5.77,25.6551,25.6551,0,0,0-10.63-3.0239,16.7115,16.7115,0,0,0-3.6851.0052,34.41,34.41,0,0,0-7.6457,1.375A24.5113,24.5113,0,0,0,65.7514,77.7306a27.28,27.28,0,0,0-2.6682,6.3338,37.0758,37.0758,0,0,0-1.1055,7.3391c-.2226,2.9282-.0143,5.8942.0381,8.8261a76.4454,76.4454,0,0,0,1.29,12.59,49.05,49.05,0,0,0,3.6135,10.5756,43.4792,43.4792,0,0,0,6.1142,9.7159,34.6068,34.6068,0,0,0,5.8388,5.7634c3.0282,2.3947,6.3191,5.1861,9.841,6.8829a20.238,20.238,0,0,0,8.9,2.4667,17.705,17.705,0,0,0,5.5265-.6066,23.2967,23.2967,0,0,0,9.3923-5.1506,15.2146,15.2146,0,0,0,2.385-2.6915,15.5927,15.5927,0,0,0,2.013-2.9422,20.9744,20.9744,0,0,0,1.8439-4.8639,45.6355,45.6355,0,0,0,.5616-5.3317l-.5359,3.9876a3.1039,3.1039,0,0,1,.1552-.5157l-1.5121,3.5832a6.0742,6.0742,0,0,1,.6844-1.0994l-2.3455,3.0359c1.7332-2.1657,3.8044-3.5524,5.2691-6.0529a15.2909,15.2909,0,0,0,1.5451-3.6492,15.9893,15.9893,0,0,0-.0041-8.0021,15.2745,15.2745,0,0,0-6.8934-8.9644c-2.6654-1.5626-3.1165-1.4594-5.6022-1.7934a15.1812,15.1812,0,0,0-6.3174.3611,11.5789,11.5789,0,0,1-1.4216.3405l3.9876-.5358a23.9991,23.9991,0,0,1-5.867-.09l3.9876.5358a17.972,17.972,0,0,1-2.1572-.4033,16.0882,16.0882,0,0,0-7.9752,0,14.8775,14.8775,0,0,0-7.7917,5.3755,7.4931,7.4931,0,0,0-1.9288,3.31,7.4648,7.4648,0,0,0-1.024,3.7854,7.5532,7.5532,0,0,0,0,3.9876,11.1643,11.1643,0,0,0,1.78,5.577,17.2392,17.2392,0,0,0,2.9466,4.12,19.1812,19.1812,0,0,0,3.9844,3.2725,16.6871,16.6871,0,0,0,2.9568,1.4157,19.1189,19.1189,0,0,0,3.2592,1.2173,28.6566,28.6566,0,0,0,13.3956.0213,23.6758,23.6758,0,0,0,3.0417-1.1924,27.2793,27.2793,0,0,0,3.0655-1.3943,14.8085,14.8085,0,0,0,1.4842-1.0014,34.7311,34.7311,0,0,0,3.9936-3.1977,19.1617,19.1617,0,0,0,3.84-5.2047,16.5611,16.5611,0,0,0,2.0336-6.6,16.4047,16.4047,0,0,0-.3391-7.0094c-1.0242-5.14-5.7187-9.0015-10.4766-10.4766a3.1652,3.1652,0,0,1-.3858-.134l3.5832,1.5121c-1.8328-.8079-3.3559-2.1753-5.1214-3.1073a19.6433,19.6433,0,0,0-9.3272-2.5469c-3.8753-.0959-6.7359,1.4215-10.1794,2.8911l3.5832-1.5122a5.6512,5.6512,0,0,1-1.23.3347l3.9876-.5359a2.1439,2.1439,0,0,1-.5792-.01l3.9876.5359a2.2052,2.2052,0,0,1-.4812-.1465l3.5832,1.5121c-2.0469-.9526-3.96-2.2-6.218-2.6726a18.1041,18.1041,0,0,0-13.2242,1.8524c-2.729,1.5574-4.9637,3.86-7.4366,5.7746l3.0358-2.3455a4.5847,4.5847,0,0,1-.6317.3993l3.5832-1.5121a8.3534,8.3534,0,0,1-.9733.2659l-3.5832,1.5121a8.09,8.09,0,0,0-3.0924,2.37,17.5617,17.5617,0,0,0-3.8683,6.6513c-1.7158,5.1723.3444,10.7639,3.8576,14.5942a12.1277,12.1277,0,0,0,4.2646,2.9751c3.3038,1.5209,4.3994,2.0267,8.0968,2.2056a14.9182,14.9182,0,0,0,2.8735-.2691,18.7079,18.7079,0,0,0,4.0556-.8456,10.7756,10.7756,0,0,1,2.1031-.6293l-3.9876.5358a2.6113,2.6113,0,0,1,.7077.0331l-3.9876-.5359a7.2493,7.2493,0,0,1,1.0109.3172l-3.5832-1.5121a38.4,38.4,0,0,0,5.1014,2.0983,19.7376,19.7376,0,0,0,9.2915.0956c1.3883-.2768,2.6261-.999,4.0319-1.1981l-3.9876.5358c2.5168-.2065,5.0685.297,7.5773.4461,5.8708.3491,11.723-1.1056,16.0408-5.3063a15,15,0,0,0,0-21.2132c-2.8586-2.6242-6.6116-4.5724-10.6066-4.3934a15.8064,15.8064,0,0,0-10.6066,4.3934,1.9182,1.9182,0,0,1-.2694.2382l3.0358-2.3455a3.789,3.789,0,0,1-.5054.2849l3.5832-1.5121a6.0367,6.0367,0,0,1-1.323.343l3.9876-.5358a36.5056,36.5056,0,0,1-7.5181-.312,22.9067,22.9067,0,0,0-3.2835-.0965,20.3823,20.3823,0,0,0-5.7972.9966,11.5808,11.5808,0,0,1-2.3344.7466l3.9876-.5358a3.4306,3.4306,0,0,1-.7825.0118l3.9876.5358a6.5108,6.5108,0,0,1-1.3868-.41l3.5832,1.5121a36.133,36.133,0,0,0-5.2593-2.1126,18.3213,18.3213,0,0,0-9.1744.0558c-1.2468.3181-2.3943.9111-3.6734,1.1181l3.9876-.5358a4.4508,4.4508,0,0,1-.88.0012l3.9876.5358a1.9468,1.9468,0,0,1-.526-.1576l3.5832,1.5121a10.6587,10.6587,0,0,1-1.1877-.5849l3.0358,2.3455-.0411-.0448,3.8576,14.5942.0107-.0323-6.8934,8.9645.0566-.0247-3.5832,1.5122c3.4052-.7771,5.7366-2.5036,8.39-4.6516.9609-.7778,1.8847-1.6,2.8595-2.3606l-3.0358,2.3455a10.2073,10.2073,0,0,1,1.7848-1.1465L102.5,128.5641a3.1105,3.1105,0,0,1,.5417-.1683l-3.9876.5358a2.1,2.1,0,0,1,.5371.0072l-3.9876-.5358a5.363,5.363,0,0,1,.9962.25L93.0166,127.14c.5062.22.97.5045,1.4559.7629a18.0414,18.0414,0,0,0,8.4119,2.37c3.9264.0744,6.7465-1.1973,10.26-2.76l-3.5831,1.5121a6.0043,6.0043,0,0,1,1.5566-.4512l-3.9876.5358a3.1655,3.1655,0,0,1,.7042.0189l-3.9876-.5358a3.5878,3.5878,0,0,1,.5581.16l-3.5831-1.5121a21.5274,21.5274,0,0,1,3.3052,1.9727,25.1312,25.1312,0,0,0,6.4513,3.0959l-10.4766-10.4766.051.2562-.5358-3.9876a4.462,4.462,0,0,1,.02.7718l.5359-3.9876a4.9435,4.9435,0,0,1-.2536,1.0235l1.5121-3.5831a6.878,6.878,0,0,1-.8781,1.4771l2.3455-3.0358a11.0624,11.0624,0,0,1-1.5743,1.5439l3.0358-2.3454a13.44,13.44,0,0,1-2.7581,1.64l3.5832-1.5121a9.1707,9.1707,0,0,1-2.1607.62l3.9876-.5358a16.5174,16.5174,0,0,1-3.5812-.0429l3.9876.5358a10.332,10.332,0,0,1-2.3962-.6231l3.5832,1.5121a7.0362,7.0362,0,0,1-1.2839-.747l3.0358,2.3454a5.9493,5.9493,0,0,1-.83-.84l2.3454,3.0358a5.8019,5.8019,0,0,1-.601-1.0846l-16.94,22.035a45.9322,45.9322,0,0,0,6.1448.9391,30.3963,30.3963,0,0,0,3.1807.2244,37.2053,37.2053,0,0,0,8.3839-1.1034l-3.9876.5359.0476-.0008-7.5708-2.048.0252.0134-6.8934-8.9645.0041.0269v-7.9752l-.0157.04,1.5121-3.5832-.0345.0523,2.3455-3.0358c-.769.95-1.7956,1.6952-2.6027,2.6205a24.67,24.67,0,0,0-3.3336,4.5055,16.6988,16.6988,0,0,0-2.203,8.0865c.0018.4473.012.8964-.0258,1.3441l.5358-3.9876a6.5371,6.5371,0,0,1-.3317,1.2807l1.5121-3.5832a7.0274,7.0274,0,0,1-.84,1.4244l2.3454-3.0359a8.3138,8.3138,0,0,1-1.2122,1.1736l3.0359-2.3454a9.0862,9.0862,0,0,1-1.4758.864l3.5832-1.5121a8.7658,8.7658,0,0,1-1.631.4959l3.9876-.5358a5.1277,5.1277,0,0,1-1.2055.0038l3.9876.5358a7.3068,7.3068,0,0,1-1.1453-.3359l3.5832,1.5121a36.7638,36.7638,0,0,1-6.989-4.62l3.0358,2.3454a33.2614,33.2614,0,0,1-5.8388-5.7634l2.3454,3.0358a32.89,32.89,0,0,1-3.849-6.8686l1.5121,3.5832a35.921,35.921,0,0,1-2.3269-8.7064l.5358,3.9876a78.6668,78.6668,0,0,1-.4777-8.6448,56.0243,56.0243,0,0,1,.1064-8.0059l-.5358,3.9876a15.9264,15.9264,0,0,1,.9479-3.6485l-1.5122,3.5832a11.3823,11.3823,0,0,1,1.2826-2.2448l-2.3455,3.0358a9.9167,9.9167,0,0,1,1.2844-1.3264l-3.0358,2.3455a10.6723,10.6723,0,0,1,2.1578-1.2822l-3.5832,1.5121a18.2541,18.2541,0,0,1,4.4446-1.1446l-3.9876.5358a15.426,15.426,0,0,1,3.6851-.0052l-3.9876-.5358a11.3283,11.3283,0,0,1,2.33.629l-3.5832-1.5121a9.1006,9.1006,0,0,1,1.6789.9576l-3.0358-2.3455a8.4425,8.4425,0,0,1,1.28,1.2959l-2.3455-3.0359a8.3812,8.3812,0,0,1,.8988,1.59l-1.5121-3.5832a8.0858,8.0858,0,0,1,.3771,1.4019l-.5359-3.9876a6.3012,6.3012,0,0,1-.0057,1.4655l.5358-3.9876a8.73,8.73,0,0,1-.4182,1.4875l1.5121-3.5832a10.2737,10.2737,0,0,1-1.1852,2.048l2.3454-3.0358A9.2486,9.2486,0,0,1,83.91,82.248l3.0358-2.3455a8.7378,8.7378,0,0,1-1.4264.8235l3.5832-1.5121a10.9873,10.9873,0,0,1-2.4094.6428l3.9876-.5358a12.74,12.74,0,0,1-2.6279.0475l3.9876.5358a8.9135,8.9135,0,0,1-2.0194-.5011l3.5832,1.5122a8.4482,8.4482,0,0,1-1.4889-.8719l3.0358,2.3455A8.56,8.56,0,0,1,93.858,81.115l2.3455,3.0358a6.6682,6.6682,0,0,1-.71-1.2214l1.5121,3.5832a5.3718,5.3718,0,0,1-.2511-.9906l.5359,3.9876a3.1955,3.1955,0,0,1-.0006-.68l-.5358,3.9876.0563-.343-1.5121,3.5832.1823-.2853-8.9645,6.8934.3214-.1251-3.9876.5358,10.22-.7969-15-15a3.4211,3.4211,0,0,1-.02.8074l.5358-3.9876a6.1555,6.1555,0,0,1-.2636.9071l1.5121-3.5831a4.487,4.487,0,0,1-.45.7788L81.73,79.1658l-.1815.1917,3.0359-2.3455a1.7983,1.7983,0,0,1-.5706.3276l3.5832-1.5121a3.5488,3.5488,0,0,1-.81.2108l3.9876-.5358a8.1146,8.1146,0,0,1-1.5877.0092l3.9876.5358a5.726,5.726,0,0,1-.8788-.221l3.5832,1.5121a5.0508,5.0508,0,0,1-.9974-.557l3.0358,2.3455a4.9889,4.9889,0,0,1-.762-.7835l2.3454,3.0358a5.2629,5.2629,0,0,1-.3931-.6879l1.5121,3.5832a4.7427,4.7427,0,0,1-.2217-.7364l.5358,3.9876a4.1731,4.1731,0,0,1-.0335-.7511l-.5358,3.9876a3.7606,3.7606,0,0,1,.1714-.7319L99.024,93.6137a3.7675,3.7675,0,0,1,.3931-.6789l-2.3455,3.0358a2.9658,2.9658,0,0,1,.3935-.4066L94.4293,97.91a4.1114,4.1114,0,0,1,.9024-.519l-3.5832,1.5121a11.4475,11.4475,0,0,1,1.829-.357l-3.9876.5358a17.8407,17.8407,0,0,1,4.3823-.0912l-3.9876-.5358a10.293,10.293,0,0,1,2.2656.6065L88.667,97.5488a8.3637,8.3637,0,0,1,1.6375.9881l-3.0358-2.3454a9.4136,9.4136,0,0,1,1.2687,1.33l-2.3455-3.0359a11.8834,11.8834,0,0,1,1.276,2.2746l-1.5121-3.5832a18.375,18.375,0,0,1,1.0481,4.0809L86.4681,93.27a43.4517,43.4517,0,0,1,.05,11.0371l.5358-3.9876a13.9424,13.9424,0,0,1-.8758,3.3206l1.5121-3.5832a8.7992,8.7992,0,0,1-.8,1.399L89.2363,98.42a7.1749,7.1749,0,0,1-.8589.92l3.0358-2.3454-.19.1259,3.5832-1.5122a1.1549,1.1549,0,0,1-.4428.1188l3.9876-.5358-.2361-.0045,3.9876.5358a1.4225,1.4225,0,0,1-.4609-.1306l3.5831,1.5121-.2085-.1235,3.0358,2.3454-.1832-.1606,2.3454,3.0358a1.1777,1.1777,0,0,1-.2576-.4274l1.5121,3.5832-.0581-.2643.5358,3.9876,0-.2963-.5358,3.9876.0737-.3268-1.5121,3.5831a1.8814,1.8814,0,0,1,.353-.5989l-2.3455,3.0358.2551-.252-3.0358,2.3454a2.1,2.1,0,0,1,.6061-.3591l-3.5832,1.5121.3269-.087-3.9876.5358a11.3646,11.3646,0,0,1,2.8125.084l-3.9876-.5359c4.1935.5991,7.85,1.3343,12.0379.1556a16.1693,16.1693,0,0,0,8.6353-5.8784,16.8174,16.8174,0,0,0,3.56-10.213c.1678-4.0181-.0673-8.0636-.2866-12.0752-.4229-7.74-.9643-15.5064.0312-23.2265l-.5359,3.9876a46.8886,46.8886,0,0,1,2.4893-10.14H94.3879a19.1947,19.1947,0,0,0,5.8611,9.0249c1.1325.9169,2.2387,1.8618,3.3025,2.858a57.4746,57.4746,0,0,1,6.0154,6.6079l-2.3455-3.0358a54.893,54.893,0,0,1,6.835,11.4186l-1.5121-3.5832c.9235,2.3069,1.0012,5.204,2.5478,7.211a11.3359,11.3359,0,0,0,3.8634,4.2085,11.2972,11.2972,0,0,0,5.1011,2.6849l3.9876.5358a11.2964,11.2964,0,0,0,5.7792-1.2919,14.3236,14.3236,0,0,0,7.1728-6.1373c1.8429-3.488,2.75-7.69,1.5121-11.5584l-.0113-.0355c-1.1285-3.5264-3.5159-7.18-6.8934-8.9645-3.444-1.82-7.7466-2.8209-11.5584-1.5121-3.1972,1.0978-3.0675,1.0915-5.1529,2.7027a13.988,13.988,0,0,0-3.9635,4.3961,11.1683,11.1683,0,0,1-.8107,1.456l2.3455-3.0358a6.3447,6.3447,0,0,1-.8418.8675l3.0358-2.3455a6.1783,6.1783,0,0,1-1.3124.7486l3.5832-1.5121a9.84,9.84,0,0,1-2.066.4761l3.9876-.5358a19.7655,19.7655,0,0,1-4.8269.0029l3.9876.5358a12.24,12.24,0,0,1-2.8264-.7627l3.5832,1.5121a6.8845,6.8845,0,0,1-1.0971-.6083l3.0358,2.3455a3.7141,3.7141,0,0,1-.6415-.6276l2.3454,3.0359a1.9007,1.9007,0,0,1-.2067-.3639l1.5121,3.5832a1.6367,1.6367,0,0,1-.1137-.3988l.5358,3.9876a1.6788,1.6788,0,0,1-.0077-.4348l-.5358,3.9876a2.08,2.08,0,0,1,.111-.4719L126.193,94.873a2.0213,2.0213,0,0,1,.3431-.6031l-2.3454,3.0358.2406-.2507L121.3955,99.4a2.4419,2.4419,0,0,1,.5833-.3846l-3.5832,1.5121a16.2545,16.2545,0,0,1,3.487-.8339l-3.9876.5358a22.5427,22.5427,0,0,1,5.6506-.02l-3.9876-.5358a22.882,22.882,0,0,1,5.46,1.4644l-3.5832-1.5121a22.2962,22.2962,0,0,1,3.8928,2.1435,14.93,14.93,0,0,0,7.5708,2.0479,11.296,11.296,0,0,0,5.7791-1.2919,11.2425,11.2425,0,0,0,4.8275-3.1015,14.9854,14.9854,0,0,0,3.8575-6.619,46.7612,46.7612,0,0,0,1.1109-9.0756,31.3433,31.3433,0,0,0-.76-6.3152,17.3757,17.3757,0,0,0-2.4529-5.7969c-3.3306-5.0537-8.1407-7.9212-13.7552-9.8391a49.6338,49.6338,0,0,0-10.9915-1.933,121.9257,121.9257,0,0,0-35.0712,1.4913c-6.9219,1.3163-13.2047,3.9446-19.5914,6.8747L69.4347,66.7l-.3588.0649h7.9752l-.2491-.0509,3.5832,1.5121-.2057-.1247,3.0359,2.3454-.1653-.1849,2.3454,3.0358-.1279-.2314L86.78,76.6492a2.2857,2.2857,0,0,1-.1553-.5475l.5359,3.9876a12.7646,12.7646,0,0,1,.1489-3.0912l-.5358,3.9876a21.8943,21.8943,0,0,1,1.5339-5.1208l-1.5121,3.5832a31.1313,31.1313,0,0,1,3.7185-6.6727l-2.3454,3.0358c.56-.6821,1.1718-1.3088,1.7825-1.9452a52.7072,52.7072,0,0,0,3.79-4.6942l1.5121-3.5832a11.3627,11.3627,0,0,0,.2679-5.9814,7.4648,7.4648,0,0,0-1.024-3.7854,11.2422,11.2422,0,0,0-3.1015-4.8274,17.85,17.85,0,0,0-6.619-3.8576,11.3627,11.3627,0,0,0-5.9814-.2679,11.1633,11.1633,0,0,0-5.577,1.78,53.46,53.46,0,0,0-6.6757,5.2885,54.3675,54.3675,0,0,0-5.5261,6.5647,52.3885,52.3885,0,0,0-6.5332,12.2813,42.4667,42.4667,0,0,0-2.7616,10.072c-.6707,4.6395-1.2015,9.1063-.6069,13.77.7607,5.9663,2.2,11.7928,3.0043,17.7435l-.5358-3.9876c.4725,3.7542.3931,7.5495.8382,11.3062a34.1327,34.1327,0,0,0,1.398,7.764,27.3053,27.3053,0,0,0,3.2955,6.8338A34.3767,34.3767,0,0,0,62.6,140.6a39.2815,39.2815,0,0,0,4.2479,3.3806,29.7943,29.7943,0,0,0,7.2307,3.4841c3.1145,1.1691,6.4659,1.5219,9.5522,2.7851l-3.5832-1.5121a11.48,11.48,0,0,1,2.2266,1.2777L79.2379,147.67a11.86,11.86,0,0,1,1.7936,1.7608l-2.3455-3.0358a11.9116,11.9116,0,0,1,1.47,2.4691l-1.5121-3.5832a11.5161,11.5161,0,0,1,.6831,2.4165l-.5358-3.9876c.2876,2.2142-.2273,4.4223-.0356,6.6426a21.5782,21.5782,0,0,0,2.7091,9.5928,20.352,20.352,0,0,0,3.4809,4.51,24.7568,24.7568,0,0,0,10.23,5.9747,23.5965,23.5965,0,0,0,11.9972.2289L95.6144,143.2432c-.2818.1439-.564.2791-.8527.4086l3.5832-1.5122a13.5144,13.5144,0,0,1-3.2832.9134l3.9876-.5358a12.5488,12.5488,0,0,1-3.01.0087l3.9876.5358a10.8987,10.8987,0,0,1-2.5394-.6864l3.5832,1.5122a9.62,9.62,0,0,1-1.9854-1.18l3.0358,2.3454a9.27,9.27,0,0,1-1.4335-1.4851l2.3454,3.0358a9.8847,9.8847,0,0,1-1.07-1.9179l1.5122,3.5832c-.6936-1.811-.9991-3.7418-1.6476-5.5676-1.4182-3.9925-3.19-7.5931-6.3489-10.5369a28.8607,28.8607,0,0,0-11.1723-6.253c-2.0481-.67-4.16-1.11-6.1664-1.9107l3.5832,1.5121a22.73,22.73,0,0,1-4.9024-2.7985l3.0359,2.3455a20.1775,20.1775,0,0,1-3.4572-3.4508l2.3454,3.0358a21.68,21.68,0,0,1-2.5815-4.4326l1.5121,3.5832a28.354,28.354,0,0,1-1.8917-7.1137l.5358,3.9876c-.5765-4.4817-1.0857-8.9446-2.0477-13.3615-.7615-3.4958-1.53-6.9872-2.0173-10.5347l.5358,3.9876a54.3088,54.3088,0,0,1-.0368-13.7617l-.5358,3.9876a51.6163,51.6163,0,0,1,3.5134-13.0075l-1.5122,3.5832a51.5039,51.5039,0,0,1,6.4819-11.15l-2.3454,3.0358a38.1493,38.1493,0,0,1,6.5567-6.7429L81.8761,69.05a10.4792,10.4792,0,0,1,1.62-.908l-3.5832,1.5122a29.514,29.514,0,0,1,3.6922-1.1859,19.6788,19.6788,0,0,0,8.509-4.6034c2.1336-1.9247,3.6472-4.4719,5.3749-6.7572l-2.3455,3.0358A10.6993,10.6993,0,0,1,96.7185,58.43l-3.0358,2.3454a4.2211,4.2211,0,0,1,.7282-.4491l-3.5832,1.5122a2.8026,2.8026,0,0,1,.5608-.1521l-3.9876.5359a1.6454,1.6454,0,0,1,.3816.0023l-3.9876-.5358c1.2175.2053,2.3.7891,3.49,1.0919a22.9444,22.9444,0,0,0,7.3017.7845,24.0854,24.0854,0,0,0,6.8206-1.2566,35.5162,35.5162,0,0,0,4.5717-1.9963,29.8333,29.8333,0,0,0,4.2617-3.1631,27.9182,27.9182,0,0,0,4.4261-5.2556,13.7884,13.7884,0,0,0,.9348-1.42,24.7535,24.7535,0,0,0,2.1377-5.0582,21.8862,21.8862,0,0,0,.1525-10.5936,10.863,10.863,0,0,0-.3741-1.4515,26.6008,26.6008,0,0,0-2.165-4.9372,22.1313,22.1313,0,0,0-4.3051-5.35,26.4917,26.4917,0,0,0-6.1345-4.2622,37.8568,37.8568,0,0,0-6.7814-2.5651,52.8927,52.8927,0,0,0-7.2842-1.1263,27.2314,27.2314,0,0,0-7.2957.5434,11.07,11.07,0,0,0-1.9506.5148,22.9764,22.9764,0,0,0-5,2.2983A25.2764,25.2764,0,0,0,69.28,25.913a33.5271,33.5271,0,0,0-3.1515,6.73,27.4508,27.4508,0,0,0-1.3536,7.112,21.24,21.24,0,0,0,.7544,7.4745,30.8327,30.8327,0,0,0,1.85,4.5618,10.1814,10.1814,0,0,0,.8135,1.4949,24.6934,24.6934,0,0,0,4.3379,5.1976c3.7141,3.0945,7.5982,5.5975,12.3829,6.7644a35.7179,35.7179,0,0,0,15.0212.1879A24.6362,24.6362,0,0,0,110.3,61.19,28.1108,28.1108,0,0,0,115.412,56.91a23.9623,23.9623,0,0,0,5.0418-8.968,30.2738,30.2738,0,0,0,1.0849-9.7018c-.2026-4.2859-1.0855-8.7129-3.6812-12.2478a30.4478,30.4478,0,0,0-3.3638-4.1626,39.79,39.79,0,0,0-4.0814-3.2166,17.2909,17.2909,0,0,0-3.0466-1.722,54.5335,54.5335,0,0,0-6.9861-2.7261,21.4846,21.4846,0,0,0-10.892-.3218c-2.5079.5251-4.8117,1.8307-7.1455,2.8584A17.1888,17.1888,0,0,0,76.69,20.7594a22.0943,22.0943,0,0,0-3.7166,5.2877,19.5737,19.5737,0,0,1-1.6216,2.97l2.3454-3.0358A8.4611,8.4611,0,0,1,72.26,27.4349l3.0358-2.3455a27.6817,27.6817,0,0,1-2.8673,1.4276c-4.3171,2.2315-7.11,6.3316-8.644,10.8232a21.179,21.179,0,0,0-.9067,5.8436,25,25,0,0,0,.7283,6.0546A20.5272,20.5272,0,0,0,64.9578,52.92a20.073,20.073,0,0,0,1.7978,3.6876,29.408,29.408,0,0,0,8.0273,8.07,25.9475,25.9475,0,0,0,5.3735,2.5255,14.5337,14.5337,0,0,0,2.6959.8211A48.0535,48.0535,0,0,0,100.98,67.84a39.2151,39.2151,0,0,0,9.1659-3.1664,18.7075,18.7075,0,0,0,2.7809-1.5089,16.506,16.506,0,0,1,2.46-1.58l-3.5832,1.5121a3.8129,3.8129,0,0,1,.7311-.2033l-3.9876.5358a10.0482,10.0482,0,0,1,2.4943.0184l-3.9876-.5358a12.6413,12.6413,0,0,1,2.9545.8581l-3.5832-1.5121a19.0892,19.0892,0,0,1,3.6282,2.199l-3.0359-2.3455c3.61,2.809,6.676,6.4107,9.6846,9.8351,3.787,4.31,7.3031,8.8478,10.8325,13.3686l-2.3455-3.0359a23.8108,23.8108,0,0,1,3.0654,5.1365l-1.5121-3.5832a16.1736,16.1736,0,0,1,.981,3.4447l-.5358-3.9876a11.8339,11.8339,0,0,1,.007,3.1262l.5359-3.9876a10.9364,10.9364,0,0,1-.673,2.3114l1.5121-3.5832a30.0447,30.0447,0,0,1-1.5834,2.7444,23.1057,23.1057,0,0,0-2.5986,6.0083,19.2019,19.2019,0,0,0,.1491,10.216,21.9285,21.9285,0,0,0,5.1047,8.5749,40.5751,40.5751,0,0,0,5.2722,4.403,30.29,30.29,0,0,1,5.1153,4.8717l-2.3455-3.0358a15.3035,15.3035,0,0,1,1.6669,2.7974l-1.5121-3.5832a12.9062,12.9062,0,0,1,.8344,2.8743l-.5358-3.9876a12.6171,12.6171,0,0,1,.0078,3.2706l.5358-3.9876a14.8328,14.8328,0,0,1-.907,3.2489l1.5122-3.5832a19.5333,19.5333,0,0,1-2.5055,4.1892l2.3455-3.0358c-2.1145,2.6358-4.648,5.0989-6.1018,8.176a27.28,27.28,0,0,0-1.971,4.8776,22.9687,22.9687,0,0,0-.7125,5.2092,20.0165,20.0165,0,0,0,2.67,10.0628c2.7969,4.7756,7.2227,7.5065,12.286,9.3147,1.8577.6635,3.8277.9309,5.6567,1.6854l-3.5832-1.5121a14.1505,14.1505,0,0,1,2.7851,1.655l-3.0359-2.3455a15.0168,15.0168,0,0,1,2.2982,2.2928l-2.3455-3.0358a14.6468,14.6468,0,0,1,1.8252,3.1064l-1.5122-3.5832a13.7341,13.7341,0,0,1,.8458,3.1281,16.7827,16.7827,0,0,0,6.8934,8.9645A15.3167,15.3167,0,0,0,166.682,162.65c3.63-1.1746,7.1313-3.4238,8.9644-6.8934l1.5122-3.5832a15.1064,15.1064,0,0,0,0-7.9752Z" transform="translate(-12.4116 -13.2961)"/></g><g id="Face-2" data-name="Face"><path d="M163.273,148.0262a13.7812,13.7812,0,0,0-4.8416-8.5659,13.45,13.45,0,0,0-4.1748-2.36c-1.4783-.51-3.03-.7664-4.5144-1.259-1.5992-.5308-3.188-1.4337-3.652-3.1766-.595-2.2351.725-4.4056,2.0668-6.0863,2.3149-2.9,4.6789-5.6288,5.4406-9.3828a12.4306,12.4306,0,0,0-2.1889-9.7866c-2.4649-3.4267-6.1144-5.6837-9.2893-8.3728-1.5956-1.3514-3.25-3.0739-2.5964-5.34.5237-1.8143,1.9444-3.2577,2.6554-5,1.4039-3.4407.5759-7.2324-1.048-10.4388-1.8614-3.6754-4.7969-6.8626-7.35-10.0657-2.8035-3.5177-5.6971-6.9508-8.7481-10.2566-4.1023-4.4449-9.4616-10.9575-16.2794-10.1314-1.8393.2229-3.1156,1.6007-4.66,2.4873a21.7777,21.7777,0,0,1-6.3795,2.3356c-4.0679.8548-9.0652,1.2717-13.0087-.3-3.5541-1.4161-6.4205-5.2212-6.2274-9.1434a3.868,3.868,0,0,1,1.1045-2.7907,8.8169,8.8169,0,0,1,1.7805-.9191,8.2108,8.2108,0,0,0,3.166-2.205,19.3671,19.3671,0,0,0,2.11-3.7485,6.4,6.4,0,0,1,3.3968-3.269c2.0666-.9081,3.7523-1.7508,6.0231-1.094a23.5736,23.5736,0,0,1,5.0214,1.99,10.2152,10.2152,0,0,1,3.88,3.5624,8.3372,8.3372,0,0,1,.9975,4.5421,15.3924,15.3924,0,0,1-.646,4.8531,8.668,8.668,0,0,1-3.9028,4.3189A16.8282,16.8282,0,0,1,88.647,50.0981c-3.5523-.9762-7.3061-3.57-8.1607-7.356-.8758-3.8808,1.3114-9.6452,5.0356-11.4078a10.9653,10.9653,0,0,1,6.4036-.453,19.6611,19.6611,0,0,1,6.0563,1.8679c3.6584,1.9432,6.36,6.2062,3.9655,10.1679-2.1043,3.4812-5.8189,5.7284-9.9658,4.9426-1.5354-.291-3.1434-1.45-4.74-1.2156a4.4709,4.4709,0,0,0-2.525,1.72c-.89,1.0273-1.6093,2.1871-2.46,3.2452a6.1449,6.1449,0,0,1-1.2207,1.2571,8.0571,8.0571,0,0,1-2.399.7838,14.004,14.004,0,0,0-4.7558,2.0241,31.78,31.78,0,0,0-4.2845,4.0368,48.0574,48.0574,0,0,0-6.7922,9.6762,51.5324,51.5324,0,0,0-6.0829,23.9964c-.0475,7.7019,2.1236,14.948,3.3706,22.4707.5716,3.4478.7293,6.9123,1.8439,10.2531a21.5055,21.5055,0,0,0,4.4683,7.7643,21.0727,21.0727,0,0,0,7.9612,5.32c3.6383,1.4058,8.2052,1.6333,10.8771,4.8186,2.317,2.7621,2.0427,6.67,3.8124,9.698a9.24,9.24,0,0,0,6.531,4.3525,12.8171,12.8171,0,0,0,7.902-1.3477c.6325-.3231.1752-1.23-.4623-1.0967-3.2344.6752-7.5081-1.1923-8.502-4.5239-.6616-2.2177.1365-4.586-.07-6.8466a10.8024,10.8024,0,0,0-1.5731-4.6932c-4.3774-7.0733-14.2064-4.6209-19.6137-10.3541-2.8793-3.0529-3.3268-7.1294-3.5534-11.138a95.457,95.457,0,0,0-1.5178-13.4025,67.26,67.26,0,0,1-1.78-12.0269,38.41,38.41,0,0,1,1.3557-10.5568c2.1065-7.8236,6.5539-15.3161,13.32-19.9557l-.821-.8209c-.9485,1.2461-2.1574,2.2591-3.1328,3.4822a23.9324,23.9324,0,0,0-2.5092,3.9629,26.5089,26.5089,0,0,0-2.8976,8.0954c-.1862,1.2638-.8511,5.1758,1.4923,4.9688a5.0354,5.0354,0,0,0,1.6556-.6873q1.0212-.4978,2.0643-.95A53.97,53.97,0,0,1,82.11,78.2523a81.7077,81.7077,0,0,1,20.0207-3.2887,89.4006,89.4006,0,0,1,10.7515-.051c3.38.21,6.8.3105,10.1461.8584,3.0214.4948,7.7388,1.3854,9.2166,4.47,1.2008,2.5062.5806,5.8128.0748,8.4179l.8814-.3586a21.88,21.88,0,0,0-9.4961-3.6683,21.4187,21.4187,0,0,0-5.0065-.0982,13.5364,13.5364,0,0,0-4.5934,1.0123,2.6061,2.6061,0,0,0-.2092,4.64c1.9515,1.3343,4.6564,1.5769,6.9436,1.5269a11.0541,11.0541,0,0,0,4.94-.96,5.3934,5.3934,0,0,0,1.521-1.2122,6.1721,6.1721,0,0,0,.643-.8929c.1386-.2339.66-.996.2486-.8548l-.7381-.4191.0114.0355,1.0966-.4623c-.2636-.3422-.2712-1.3889-.3933-1.8168a15.6048,15.6048,0,0,0-.6423-1.811c-.571-1.3464-1.244-2.657-1.9438-3.94a56.2367,56.2367,0,0,0-4.6377-7.1483,56.94,56.94,0,0,0-5.3127-6.05q-1.5554-1.5336-3.2269-2.9429c-1.0411-.8772-2.5143-1.7125-2.9748-3.065a.6059.6059,0,0,0-1.1572,0c-3.3924,9.043-3.3251,18.815-2.83,28.3236.2709,5.199.652,10.3981.6072,15.6074-.0109,1.2651.2292,2.6591-1.3759,2.82a14.51,14.51,0,0,1-3.302-.2789c-1.7225-.2282-4.0712-.46-4.8717,1.51a1.8844,1.8844,0,0,0,1.3362,2.5883c1.3282.2884,2.2673-.9308,2.8774-1.9432,1.82-3.02,1.673-6.9642,1.6518-10.3592-.0257-4.1-.2423-8.7433-2.913-12.0948-2.4968-3.1334-6.5355-3.3428-10.2179-2.8148-1.6546.2372-3.3231.8062-3.8235,2.5926a3.8955,3.8955,0,0,0,1.1606,3.7616,5.1021,5.1021,0,0,0,4.7738,1.1145,3.4131,3.4131,0,0,0,2.3234-3.72.6089.6089,0,0,0-.6-.6l-8.53.6651c-.9158.0714-2.4031-.0985-2.7728.9827-.7859,2.298,1.5559,4.78,3.3615,5.7663,4.9619,2.71,11.981-.2637,12.9029-5.9667a6.9529,6.9529,0,0,0-2.8259-6.43C92.9,79.9592,89.8272,79.69,87.05,80.0541c-2.9038.3806-5.9652,1.3108-7.9206,3.6208a12.9938,12.9938,0,0,0-2.7021,7.1671,81.482,81.482,0,0,0,.01,10.3538,45.5759,45.5759,0,0,0,1.2378,10.0109,31.43,31.43,0,0,0,8.9872,15.4706,53.72,53.72,0,0,0,6.8928,5.2052c2.3568,1.5474,4.44,2.5938,7.1973,1.36a7.5635,7.5635,0,0,0,3.1045-2.52,6.758,6.758,0,0,0,1.0664-3.7642c.1361-1.7281,2.1635-3.0325,3.2816-4.18.3234-.3319.79-.8425.3468-1.29-.4568-.461-1.3438.0766-1.8337.1772a19.1541,19.1541,0,0,1-8.2381-.4043.6083.6083,0,0,0-.6776.8814c1.5609,3.6588,6.836,4.3444,10.2805,3.43,3.2379-.86,7.8348-4.0083,7.0619-7.8867a.5986.5986,0,0,0-.419-.4191c-2.2751-.7053-3.9331-2.7507-6.1734-3.5565a4.376,4.376,0,0,0-3.2813.3332,4.8014,4.8014,0,0,1-2.1389.653,5.4379,5.4379,0,0,1-1.81-.8294c-2.2933-1.1313-3.8252-.0221-5.618,1.4315a23.8237,23.8237,0,0,1-2.5981,2.13c-.5.2974-1.4433.2337-1.6545.87a.6034.6034,0,0,0,.1544.5838,4.0591,4.0591,0,0,0,2.7558.9893,16.4932,16.4932,0,0,0,3.8671-1.0934c1.6036-.4568,2.8235.7682,4.3713.9028,1.5923.1384,2.8766-.8084,4.3718-1.13,2.4916-.5357,5.3524.1961,7.8609.3563,1.89.1207,4.5284.37,6.0175-1.0791.5545-.5394-.2944-1.3876-.8485-.8485-1.3767,1.3394-4.4333.7954-6.1367.6555a33.7721,33.7721,0,0,0-6.53-.3536c-1.42.1637-2.6313,1.0467-4.0429,1.1807-1.49.1413-2.6435-.9841-4.1038-1.0328a9.0639,9.0639,0,0,0-3.0973.8272c-1.0768.3636-2.7175.7787-3.6364-.2232l.1543.5838c-.1909.5754-.3812.2749.0343.2841a1.8624,1.8624,0,0,0,.5872-.1879,3.964,3.964,0,0,0,.8357-.5067c.821-.6121,1.575-1.314,2.367-1.9622a7.1382,7.1382,0,0,1,2.6118-1.6993c1.2366-.2441,2.2308.8446,3.3192,1.204,2.295.7579,4.1013-1.8367,6.3925-.6271,1.9047,1.0055,3.57,2.6567,5.6505,3.3018l-.4191-.4191c.638,3.2014-3.9142,5.9076-6.4911,6.4775-2.9329.6486-7.3394.146-8.658-2.945l-.6776.8814a23.2484,23.2484,0,0,0,5.6673.6515,17.7073,17.7073,0,0,0,2.6759-.1585,7.4892,7.4892,0,0,0,1.01-.2018,1.622,1.622,0,0,0,.4119-.1386,2.0859,2.0859,0,0,1,.2174-.0771l-.538-.8224c-.2409.0306-.8772.8518-1.0555,1.0212a19.4068,19.4068,0,0,0-1.65,1.72,5.8049,5.8049,0,0,0-.9873,1.55,10.9637,10.9637,0,0,0-.232,2.19,5.99,5.99,0,0,1-5.27,4.5147c-1.3891.0872-2.6314-.77-3.7432-1.49-1.0076-.6525-2.0057-1.3209-2.9844-2.0161a31.3261,31.3261,0,0,1-10.23-11.3648A37.5013,37.5013,0,0,1,77.66,101.9193c-.1028-2.8874-.21-5.8025-.16-8.6915a15.4642,15.4642,0,0,1,1.63-7.4627c1.4246-2.5058,3.8866-3.69,6.6183-4.2764,2.65-.5687,5.6557-.6565,8.0791.7337a5.7161,5.7161,0,0,1,2.7672,6.7041,7.2573,7.2573,0,0,1-6.5484,4.8608c-2.7429.2294-6.5384-.9457-7.1249-4.102-.1953-1.0513-.1622-1.0022.64-1.0648l1.7925-.14,7.716-.6016-.6-.6a2.8846,2.8846,0,0,1-.4843,1.9593c-.6372.8139-1.9971.8394-2.9435.6423a3.1709,3.1709,0,0,1-2.5414-2.6052c-.1863-1.7546,1.4289-2.35,2.86-2.56a14.706,14.706,0,0,1,5.2288-.01c7.3616,1.6064,6.8789,12.0784,6.5045,17.843a15.61,15.61,0,0,1-.7847,4.3,7.2359,7.2359,0,0,1-.8014,1.6164,3.5405,3.5405,0,0,1-.7135.8474c-.6251.4474-1.62.205-1.11-.8635.79-1.6542,4.6523-.3925,6.05-.327a3.6011,3.6011,0,0,0,2.9694-.8c.8892-1.0305.5524-2.9711.5508-4.21-.0026-1.9829-.0627-3.9653-.1491-5.9462-.173-3.9653-.4562-7.925-.6112-11.8912-.3266-8.36-.0338-16.8657,2.9365-24.7832h-1.1572a5.6323,5.6323,0,0,0,2.0185,2.5589c1.1244.9117,2.2294,1.8416,3.29,2.8274a56.0837,56.0837,0,0,1,5.9112,6.4222,55.21,55.21,0,0,1,4.8529,7.32c.7052,1.2707,1.382,2.5686,1.9673,3.8995a15.015,15.015,0,0,1,.8129,2.3566c.12.4733.0976,1.2845.4,1.6766.3791.4919,1.3236.2468,1.0966-.4623l-.0113-.0355a.6075.6075,0,0,0-.7381-.4191c-.454.1559-.529.5585-.728.9614a4.77,4.77,0,0,1-1.4585,1.8064,8.3677,8.3677,0,0,1-4.6232,1.1048c-1.9165.0636-5.9082.0218-7.1243-1.9038-1.8355-2.9062,7.1747-3.0183,8.5995-2.9a20.7647,20.7647,0,0,1,10.0567,3.6325.6033.6033,0,0,0,.8814-.3586,21.6186,21.6186,0,0,0,.4847-6.9332,6.7617,6.7617,0,0,0-3.8006-5.3326c-5.3955-2.8835-12.299-2.7628-18.2513-3.0536a100.09,100.09,0,0,0-20.401,1.1749,67.2839,67.2839,0,0,0-9.5014,2.1937q-2.3811.743-4.6907,1.6934c-.7356.3035-3.95,2.2524-4.5158,1.493-.3376-.4531-.036-1.9353.0128-2.42a16.1757,16.1757,0,0,1,.4516-2.4945,29.0987,29.0987,0,0,1,1.7981-4.7079,25.7528,25.7528,0,0,1,2.7718-4.7617c1.0541-1.3981,2.41-2.53,3.4714-3.9251.3645-.4788-.3444-1.1477-.8209-.8209-6.1342,4.2065-10.43,10.6109-12.9,17.56a41.1653,41.1653,0,0,0-2.28,10.8451,44.1088,44.1088,0,0,0,.9475,11.55,103.1648,103.1648,0,0,1,2.1411,14.5969c.2013,4.1453.187,8.5965,2.3932,12.2674a14.68,14.68,0,0,0,8.889,6.2531c4.1947,1.2021,9.0044,1.5834,11.7687,5.4044a10.01,10.01,0,0,1,1.8142,6.6238c-.1351,2.31-.4974,4.6893.7959,6.7587a9.1457,9.1457,0,0,0,9.29,3.8322l-.4623-1.0967a10.837,10.837,0,0,1-9.4751.4633c-3.545-1.7079-4.1247-5.1621-5.1391-8.5927a10.5591,10.5591,0,0,0-6.6612-7.3507c-1.9442-.756-3.9988-1.166-5.9747-1.8245a20.9339,20.9339,0,0,1-5.1176-2.53,18.964,18.964,0,0,1-6.5215-7.77c-1.5546-3.3551-1.9593-6.8871-2.4417-10.5067-1.0631-7.9768-3.6121-15.61-3.6309-23.7348a50.3178,50.3178,0,0,1,7.16-26.02,43.71,43.71,0,0,1,8.13-10.0053,13.0822,13.0822,0,0,1,5.5416-2.9415c1.45-.41,2.7-.6142,3.7667-1.7283a38.0865,38.0865,0,0,0,2.4889-3.2322c.9-1.1685,1.8094-2.3633,3.4144-1.9324,1.8666.5011,3.4409,1.2849,5.4292,1.24a10.4319,10.4319,0,0,0,4.8591-1.3315c2.863-1.615,5.5819-5.0628,5.3735-8.4909-.2292-3.7707-3.1457-6.6683-6.4395-8.132-3.3286-1.4792-7.8687-2.4828-11.4541-1.4451-3.7859,1.0957-6.0143,5.0885-6.8107,8.7249-1.7644,8.0561,6.108,13.2692,13.3475,13.3a17.1273,17.1273,0,0,0,11.1582-3.7518c2.6783-2.2469,3.2551-5.4891,3.2723-8.8322a9.3911,9.3911,0,0,0-3.62-7.9041,17.0678,17.0678,0,0,0-4.4143-2.4268c-1.5338-.602-3.4022-1.41-5.08-1.2875a15.3369,15.3369,0,0,0-5.2972,1.88,6.8133,6.8133,0,0,0-2.9417,3.0078,20.6582,20.6582,0,0,1-2.3386,4.151c-1.0216,1.156-2.4356,1.5883-3.77,2.2788-3.0463,1.5764-2.7489,5.6024-1.6089,8.35a11.4048,11.4048,0,0,0,7.534,6.5934c4.06,1.1194,8.7883.7176,12.8494-.2057a22.7887,22.7887,0,0,0,6.03-2.2508c.94-.5234,1.7613-1.1933,2.66-1.7759a4.9405,4.9405,0,0,1,3.196-.6861c3.776.2764,6.9787,2.8252,9.5956,5.3536,2.8794,2.7821,5.5683,5.8253,8.17,8.8644,3.1188,3.6429,6.0717,7.4236,9.02,11.2046,2.5578,3.2806,5.0163,7.2795,4.5033,11.628-.2739,2.3224-1.6728,3.989-2.7075,5.99a5.2159,5.2159,0,0,0-.34,4.7049c.8288,1.8123,2.53,3.0788,4.0495,4.2836,1.7362,1.3768,3.5264,2.693,5.1543,4.2,3.19,2.9536,5.4719,6.8276,4.7063,11.31a14.7676,14.7676,0,0,1-2.4212,5.7338c-1.1132,1.6475-2.5507,3.0407-3.6777,4.6774-1.88,2.7305-2.543,6.5669.4248,8.8078,2.6753,2.02,6.3874,1.825,9.2476,3.5276a12.735,12.735,0,0,1,6.0337,9.0845c.1115.7613,1.268.4377,1.1572-.319Z" transform="translate(-12.4116 -13.2961)" fill="#fef480"/></g></svg>