<svg id="Livello_1" data-name="Livello 1" xmlns="http://www.w3.org/2000/svg" width="222.712" height="118.8062" viewBox="0 0 222.712 118.8062"><path d="M13.0117,173.4682c5.7312,0,5.7312,4,11.4624,4s5.7318-4,11.4636-4,5.7319,4,11.4638,4c5.73,0,5.73-4,11.46-4s5.7316,4,11.4631,4c5.7336,0,5.7336-4,11.4671-4,5.7318,0,5.7318,4,11.4635,4,5.7357,0,5.7357-4,11.4714-4s5.7356,4,11.4713,4" transform="translate(-13.0117 -59.412)" fill="none" stroke="#fef480" stroke-miterlimit="10" stroke-width="1.5"/><g id="Seat"><path d="M170.72,97.8043c-2.9718-4.2232-5.8443-8.518-8.4961-12.95-1.0843-1.8123-2.0061-3.7642-3.2058-5.5015a20.5027,20.5027,0,0,0-6.5711-6.453,15.4391,15.4391,0,0,0-7.9982-2.06,16.0827,16.0827,0,0,0-7.5707,2.048,15.1018,15.1018,0,0,0-4.42,3.9861,16.9063,16.9063,0,0,0-2.94,5.7115,28.0117,28.0117,0,0,0-.6489,4.9127,40.1621,40.1621,0,0,0-.1682,4.06c-.0076,1.1584-.0334,2.3165-.06,3.4746-.0731,3.19-.16,6.3794-.2366,9.5692q-.4263,17.7952-1.4917,35.5451-.3635,6.0687-.7634,12.1351c-.2436,3.6836,1.847,8.06,4.3934,10.6066a15.2427,15.2427,0,0,0,10.6066,4.3934c3.8793-.1738,7.9028-1.4481,10.6066-4.3934l2.3454-3.0358a14.9306,14.9306,0,0,0,2.048-7.5708q.6889-10.4193,1.2639-20.8457c.4978-9.0874.781-18.1645,1.0015-27.2607.07-2.8755.1467-5.7508.2143-8.6263.0691-2.9465.01-5.9007.3276-8.8328l-.5358,3.9876a1.9008,1.9008,0,0,1,.139-.5485l-1.5121,3.5832.1413-.2058-5.3813,5.3813.2116-.1228-7.5708,2.0479.2132-.0256-3.9876-.5358.2143.038-3.5832-1.5121a1.4013,1.4013,0,0,1,.4233.232L134.6932,96.69a5.0352,5.0352,0,0,1,.59.605l-2.3455-3.0358a38.4406,38.4406,0,0,1,2.3106,3.9159q1.4706,2.5389,3.0365,5.0207c2.0846,3.3112,4.28,6.5505,6.5312,9.75a11.3357,11.3357,0,0,0,3.8633,4.2085,11.2967,11.2967,0,0,0,5.1011,2.6849,15.33,15.33,0,0,0,11.5584-1.5121c3.2029-2.0649,6.0223-5.14,6.8934-8.9645.8531-3.7453.7865-8.2919-1.5121-11.5584Z" transform="translate(-13.0117 -59.412)"/><path d="M142.7682,105.3751q.01,22.1391-.0981,44.2764c-.0172,3.9015-.0454,7.8035-.1452,11.7039a15,15,0,0,0,15,15c3.8793-.1738,7.9028-1.4481,10.6066-4.3934a15.914,15.914,0,0,0,4.3934-10.6066c.1868-7.295.1568-14.5952.1683-21.892.0113-7.1788.1506-14.3575.1354-21.5359-.0088-4.1842-.0585-8.3682-.06-12.5524a15.4777,15.4777,0,0,0-4.3934-10.6066,15.2423,15.2423,0,0,0-10.6066-4.3934c-3.8793.1738-7.9028,1.4481-10.6066,4.3934a15.5819,15.5819,0,0,0-4.3934,10.6066Z" transform="translate(-13.0117 -59.412)"/><path d="M147.2282,128.94a119.572,119.572,0,0,1,12.6605-2.3075l-3.9876.5359c15.7354-2.0837,31.5858-3.0844,47.3091-5.2481l-3.9876.5358a7.2564,7.2564,0,0,1,1.5134.0034l-3.9876-.5358a9.5794,9.5794,0,0,1,1.8522.5081l-3.5832-1.5121c2.4086,1.0194,4.4686,2.7062,6.66,4.1056,2.5244,1.6119,5.06,3.205,7.44,5.0285l-3.0358-2.3455q.5376.4212,1.0644.8542l6.6191-25.0708a21.9538,21.9538,0,0,1-5.2761,1.2592l3.9876-.5358c-19.3072,2.4167-38.6961,4.4206-57.9487,7.2545l3.9876-.5358a9.3607,9.3607,0,0,1-2.0975.0633l3.9876.5358a3.7226,3.7226,0,0,1-.7867-.196l3.5832,1.5122a25.8767,25.8767,0,0,1-4.9853-3.2377l3.0358,2.3455c-2.5614-1.9924-4.9653-4.1707-7.446-6.26a11.2437,11.2437,0,0,0-4.8274-3.1015,11.2964,11.2964,0,0,0-5.7792-1.2919,15.2646,15.2646,0,0,0-10.6066,4.3934c-2.6242,2.8586-4.5723,6.6117-4.3934,10.6066.1692,3.7778,1.3852,8.0728,4.3934,10.6066,3.6809,3.1,7.2843,6.2275,11.1475,9.1117a25.6827,25.6827,0,0,0,4.32,2.7316,15.7288,15.7288,0,0,0,6.3636,1.9759,16.4077,16.4077,0,0,0,3.2393.2969c2.19-.1394,4.355-.58,6.5282-.8793l-3.9876.5358,30.0315-3.7624,14.77-1.85c2.2037-.2761,4.4106-.4987,6.6167-.751,3.3146-.379,6.9608-.6362,10.1184-1.8986a14.9978,14.9978,0,0,0,6.6191-25.0708c-4.2387-3.4851-8.7533-6.2765-13.261-9.3515a31.0215,31.0215,0,0,0-4.7579-2.9053,23.3317,23.3317,0,0,0-7.6109-2.3651,19.22,19.22,0,0,0-3.1269-.31,50.7783,50.7783,0,0,0-5.3315.7059l3.9876-.5358c-9.3424,1.2377-18.7528,1.8257-28.1137,2.8947-10.3152,1.178-20.7915,2.04-30.8923,4.5294a15.007,15.007,0,0,0-10.4766,18.4518c1.1746,3.6295,3.4238,7.1313,6.8934,8.9645a15.9593,15.9593,0,0,0,11.5584,1.5121Z" transform="translate(-13.0117 -59.412)"/><path d="M157.2877,93.4061q.21-.2974.4345-.5836l-2.3454,3.0358a20.89,20.89,0,0,1,3.2841-3.2172l-3.0359,2.3455a30.0159,30.0159,0,0,1,6.4487-3.7781l-3.5831,1.5122a53.0155,53.0155,0,0,1,12.9323-3.2818l-3.9876.5358a59.1879,59.1879,0,0,1,15.4914-.082l-3.9876-.5358a49.2262,49.2262,0,0,1,12.2115,3.2872l-3.5832-1.5121a42.62,42.62,0,0,1,9.2788,5.44L193.81,94.2262a39.6561,39.6561,0,0,1,6.7447,6.7585L198.21,97.9489a33.6673,33.6673,0,0,1,4.21,7.1427l-1.5121-3.5832a39.6728,39.6728,0,0,1,2.5393,9.7493l-.5359-3.9876c1.052,7.9724.9478,16.1433,1.2822,24.1742.3019,7.2519.6043,14.5056,1.03,21.7515a103.19,103.19,0,0,0,1.0361,10.3309,16.7815,16.7815,0,0,0,6.8934,8.9645,15.3165,15.3165,0,0,0,11.5583,1.5121c3.63-1.1746,7.1314-3.4238,8.9645-6.8934l1.5121-3.5832a15.1044,15.1044,0,0,0,0-7.9752q-.0177-.1106-.033-.2214l.5358,3.9876c-.3117-2.3556-.3908-4.7535-.5249-7.1235-.2273-4.0158-.4159-8.0338-.5969-12.0518-.3829-8.4982-.6387-17.0032-1.0421-25.5-.3106-6.5443-.8529-13.3828-3.0949-19.5857a50.2094,50.2094,0,0,0-12.3945-19.4358C207.151,65.1882,192.6563,60.01,177.7267,59.45a61.5362,61.5362,0,0,0-10.2914.5248,83.3686,83.3686,0,0,0-13.5512,2.63,46.1745,46.1745,0,0,0-11.1106,4.8723,50.6082,50.6082,0,0,0-6.2385,4.705,35.23,35.23,0,0,0-5.1515,6.0829,11.1643,11.1643,0,0,0-1.78,5.577,11.3627,11.3627,0,0,0,.2679,5.9814,15.2988,15.2988,0,0,0,6.8934,8.9645c3.4812,1.8392,7.6985,2.7612,11.5584,1.5121l3.5832-1.5121a15.075,15.075,0,0,0,5.3813-5.3813Z" transform="translate(-13.0117 -59.412)"/><path d="M170.1632,101.6141a3.7227,3.7227,0,0,1,.0169-.8512l-.5358,3.9876a4.45,4.45,0,0,1,.1707-.606l-1.5121,3.5832a4.8517,4.8517,0,0,1,.5468-.9476l-2.3454,3.0358a7.7383,7.7383,0,0,1,1.2147-1.1942l-3.0358,2.3454a16.9256,16.9256,0,0,1,3.6485-2.0293l-3.5832,1.5121a38.551,38.551,0,0,1,9.586-2.4626l-3.9875.5358a53.8834,53.8834,0,0,1,13.8393.1105l-3.9876-.5358a72.84,72.84,0,0,1,18.0077,5.06l-3.5832-1.5121a71.9358,71.9358,0,0,1,13.6707,7.2617l-3.0358-2.3455a10.9814,10.9814,0,0,1,1.373,1.29,15,15,0,0,0,21.2132,0c2.6242-2.8586,4.5723-6.6117,4.3934-10.6066a16.2787,16.2787,0,0,0-4.3934-10.6066c-2.4577-2.7055-5.8093-4.6341-8.9764-6.4216q-3.4918-1.9709-7.15-3.6248a94.6844,94.6844,0,0,0-18.5289-6.5313,71.9245,71.9245,0,0,0-19.5026-1.8552,55.1812,55.1812,0,0,0-15.8583,2.8991,56.8288,56.8288,0,0,0-6.1982,2.6532,30.1466,30.1466,0,0,0-5.1236,3.6507c-3.8961,3.1942-6.8045,9.1337-6.3426,14.2056a11.2973,11.2973,0,0,0,1.2918,5.7792,11.2439,11.2439,0,0,0,3.1016,4.8274,15.2423,15.2423,0,0,0,10.6066,4.3934c3.8793-.1738,7.9028-1.4481,10.6066-4.3934,2.55-2.7784,4.75-6.6948,4.3934-10.6066Z" transform="translate(-13.0117 -59.412)"/><path d="M188.1512,99.1007c-.9412,9.0292-.6191,18.1417-1.11,27.199-.4053,7.4822-.9921,14.9343-.9969,22.4333a15.4711,15.4711,0,0,0,4.3934,10.6066,15.2419,15.2419,0,0,0,10.6066,4.3934c3.8793-.1737,7.9028-1.448,10.6066-4.3934a15.5951,15.5951,0,0,0,4.3934-10.6066c.0048-7.499.5916-14.9511.9969-22.4333.4905-9.0573.1684-18.17,1.11-27.199a11.2963,11.2963,0,0,0-1.2918-5.7792,11.2439,11.2439,0,0,0-3.1016-4.8274,15.2421,15.2421,0,0,0-10.6066-4.3934c-3.8793.1738-7.9028,1.4481-10.6066,4.3934L190.1992,91.53a14.9316,14.9316,0,0,0-2.048,7.5708Z" transform="translate(-13.0117 -59.412)"/></g><g id="Seat-2" data-name="Seat"><path d="M158.2863,105.0723c-2.9718-4.2232-5.8443-8.518-8.4961-12.9505-1.08-1.8057-1.9806-3.7909-3.2058-5.5014-.5838-.815-1.84-2.0549-2.818-1.0221a3.2354,3.2354,0,0,0-.4967,1.899,40.1621,40.1621,0,0,0-.1682,4.06c-.0076,1.1584-.0334,2.3165-.06,3.4746-.0731,3.19-.16,6.3794-.2366,9.5692q-.4263,17.7952-1.4917,35.5451-.3635,6.0687-.7634,12.1351c-.051.771,1.1492.7678,1.2,0q.8993-13.6,1.5971-27.2132c.5329-10.7546.7655-21.5316.9413-32.2976.0144-.8827.0089-1.7656.025-2.6482.0115-.6385.03-1.2778.0837-1.9144.024-.2859.0269-1.5166.29-1.683.6133-.3881,3.3173,4.9368,3.5877,5.3952,2.7831,4.7186,5.8237,9.2785,8.9755,13.7575.4411.6268,1.482.0279,1.0362-.6056Z" transform="translate(-13.0117 -59.412)" fill="#fef480"/><path d="M157.1682,105.3751q.01,22.1391-.0981,44.2764c-.0172,3.9015-.0454,7.8035-.1452,11.7039a.6.6,0,0,0,1.2,0c.1868-7.295.1568-14.5952.1683-21.892.0113-7.1788.1506-14.3575.1354-21.5359-.0088-4.1842-.0585-8.3682-.06-12.5524a.6.6,0,0,0-1.2,0Z" transform="translate(-13.0117 -59.412)" fill="#fef480"/><path d="M143.4,115.0539c9.9862-2.4608,20.407-3.3475,30.62-4.3892,5.1744-.5278,10.3585-.954,15.5336-1.4752,2.5838-.26,5.1655-.5442,7.7412-.8759a13.1246,13.1246,0,0,1,3.3609-.2539,9.3142,9.3142,0,0,1,3.4189,1.319c2.07,1.2065,4.01,2.663,6.0319,3.9516a73.0194,73.0194,0,0,1,7.2225,5.0493l.2647-1.0028a25.882,25.882,0,0,1-7.0366,1.4557c-2.43.25-4.851.5489-7.2745.8526l-16,2.0045-16,2.0046-8.1233,1.0177c-1.107.1387-2.2164.2648-3.3212.42-1.4006.197-2.9249.6036-4.2772-.0171a30.05,30.05,0,0,1-6.1434-4.2959c-1.9624-1.6095-3.851-3.3056-5.7919-4.94-.5871-.4946-1.44.35-.8486.8485,3.4434,2.9,6.7394,6.0536,10.5542,8.4749a8.4289,8.4289,0,0,0,2.7291,1.3348,8.7839,8.7839,0,0,0,3.0429-.0878c2.82-.4214,5.6576-.7377,8.487-1.0922l33.7239-4.225c2.9383-.3681,5.8739-.7587,8.82-1.0563a28.4289,28.4289,0,0,0,7.7791-1.5415c.3725-.149.6514-.6849.2647-1.0029-3.7369-3.0726-7.9553-5.5093-11.9587-8.2093a12.6809,12.6809,0,0,0-5.6706-2.4823,15.7569,15.7569,0,0,0-3.4947.3049q-2.052.2621-4.1083.4877c-10.76,1.19-21.5445,2.0872-32.2988,3.3467a142.4758,142.4758,0,0,0-17.565,2.9179c-.7494.1847-.432,1.3422.319,1.1572Z" transform="translate(-13.0117 -59.412)" fill="#fef480"/><path d="M144.8537,86.1381c3.0633-4.2276,8.0582-6.918,12.9545-8.4225A60.6655,60.6655,0,0,1,175.6829,75.01c11.1617.0167,22.4229,3.4468,30.7425,11.0959a33.5108,33.5108,0,0,1,8.9637,13.098c1.8164,5.0155,2.3027,10.3562,2.5473,15.6479.3793,8.2084.6356,16.423,1.0028,24.6322.1934,4.3228.3943,8.6455.641,12.9656a71.9323,71.9323,0,0,0,.5649,7.2492c.1218.7605,1.2783.4377,1.1571-.319a66.7106,66.7106,0,0,1-.5075-6.6782c-.2287-3.9659-.4161-7.9342-.5962-11.9026-.3894-8.5777-.6661-17.16-1.0525-25.7378-.24-5.3272-.7023-10.7233-2.4638-15.7934a34.4357,34.4357,0,0,0-8.541-13.187c-8.0317-7.8749-19.0743-11.7648-30.1875-12.2222A61.3525,61.3525,0,0,0,157.7122,76.49c-5.3051,1.6084-10.5834,4.4728-13.8947,9.0426-.4537.6262.5869,1.2257,1.0362.6056Z" transform="translate(-13.0117 -59.412)" fill="#fef480"/><path d="M155.7632,101.6141c-.2837-3.1152,4.2934-4.7815,6.6017-5.609a40.79,40.79,0,0,1,11.321-2.2c9.946-.5941,19.9,1.8148,28.9894,5.74,2.46,1.0627,4.87,2.2461,7.2214,3.5315,2.3643,1.2923,5.0872,2.5778,6.9168,4.5919.52.5728,1.367-.2778.8485-.8486-1.6527-1.8193-3.9448-2.9749-6.0621-4.17q-3.4917-1.9709-7.15-3.6249a76.8758,76.8758,0,0,0-15.089-5.08c-9.0222-1.9783-18.941-2.227-27.7047,1.0439-2.7461,1.025-7.4242,2.9823-7.0925,6.6239.0694.7628,1.27.77,1.2,0Z" transform="translate(-13.0117 -59.412)" fill="#fef480"/><path d="M202.5512,99.1007c-.9412,9.0292-.6191,18.1417-1.11,27.199-.4053,7.4822-.9921,14.9343-.9969,22.4333a.6.6,0,0,0,1.2,0c.0048-7.499.5916-14.9511.9969-22.4333.49-9.0573.1684-18.17,1.11-27.199.08-.7673-1.1206-.7617-1.2,0Z" transform="translate(-13.0117 -59.412)" fill="#fef480"/></g></svg>