<svg id="Livello_1" data-name="Livello 1" xmlns="http://www.w3.org/2000/svg" width="102.6902" height="175.5383" viewBox="0 0 102.6902 175.5383"><path d="M11.4375,185.34c6.1356,0,6.1356,4,12.2713,4s6.1357-4,12.2715-4c6.1338,0,6.1338,4,12.2676,4,6.1354,0,6.1354-4,12.2708-4,6.1375,0,6.1375,4,12.275,4,6.1356,0,6.1356-4,12.2711-4,6.14,0,6.14,4,12.28,4s6.14-4,12.28-4" transform="translate(-11.4375 -14.5521)" fill="none" stroke="#fef480" stroke-miterlimit="10" stroke-width="1.5"/><g id="Hand"><path d="M67.2439,82.5146l-.1235-.2753,1.5122,3.5832a5.8626,5.8626,0,0,1-.2336-.9038l.5358,3.9876a8.699,8.699,0,0,1,.0334-2.0529l-.5358,3.9876a31.4725,31.4725,0,0,1,1.2992-4.8158c.6241-1.9427,1.133-3.9195,1.7265-5.8714,1.2138-3.992,3.1045-7.7287,4.1763-11.7721a48.61,48.61,0,0,0,1.3577-15.8366c-.1474-2.2068-.2633-4.4189-.4863-6.62-.2806-2.7709-.9008-5.2938-1.2946-7.9941l.5359,3.9876a6.07,6.07,0,0,1-.0315-1.0318L75.18,44.8746a3.5761,3.5761,0,0,1,.1609-.6889l-1.5122,3.5832A1.9838,1.9838,0,0,1,74.05,47.36l-2.3454,3.0359a2.9975,2.9975,0,0,1,.54-.5257l-3.0359,2.3455a3.0414,3.0414,0,0,1,.5184-.2842l-3.5832,1.5122a7.69,7.69,0,0,1,1.5712-.4087l-3.9876.5358a7.7161,7.7161,0,0,1,1.6848-.022l-3.9876-.5358a7.0327,7.0327,0,0,1,1.5111.3891L59.3522,51.89a7.5952,7.5952,0,0,1,1.55.8953L57.8668,50.44a10.0886,10.0886,0,0,1,1.67,1.706L57.1917,49.11a15.8231,15.8231,0,0,1,1.8052,3.1911l-1.5121-3.5832a23.3806,23.3806,0,0,1,1.5594,5.8234l-.5358-3.9876c.544,4.4042.8593,8.9278,2.13,13.2033a25.8152,25.8152,0,0,0,3.2174,7.2017c1.505,2.2007,3.2495,4.231,4.8868,6.3335l-2.3454-3.0358a13.7026,13.7026,0,0,1,1.6212,2.5569c1.4822,3.222,5.68,5.9889,8.9645,6.8934a15.33,15.33,0,0,0,11.5583-1.5122c3.2029-2.0649,6.0223-5.14,6.8934-8.9644l.5358-3.9876a14.93,14.93,0,0,0-2.0479-7.5708c-1.3168-2.8626-3.674-5.1936-5.6022-7.6591l2.3455,3.0359a16.143,16.143,0,0,1-2.1637-3.5063l1.5121,3.5831a35.0328,35.0328,0,0,1-1.6874-7.5406l.5358,3.9876c-.5344-4.1261-.7082-8.3792-2.2324-12.295a33.3409,33.3409,0,0,0-3.2109-6.8629,25.6324,25.6324,0,0,0-7.689-7.76c-6.4223-4.1651-15.0965-4.0632-21.6635-.3431a17.2087,17.2087,0,0,0-8.3647,15.0776c.0771,2.8269.8721,5.2851,1.2828,7.997l-.5358-3.9875c.297,2.5277.4016,5.0805.5747,7.6187a37.6923,37.6923,0,0,1-.0509,7.4035l.5359-3.9875C46.688,62.21,43.9691,67.29,42.337,72.825c-.74,2.5086-1.53,5.004-2.2612,7.5141a33.5116,33.5116,0,0,0-1.1809,7.2241A17.1264,17.1264,0,0,0,39.2027,90.9c.4,2.9792.7161,3.5868,2.1371,6.7561a11.3357,11.3357,0,0,0,3.8633,4.2085,11.2967,11.2967,0,0,0,5.1011,2.6849,15.33,15.33,0,0,0,11.5584-1.5121c3.2028-2.0649,6.0222-5.14,6.8934-8.9645l.5358-3.9876a14.9305,14.9305,0,0,0-2.0479-7.5708Z" transform="translate(-11.4375 -14.5521)"/><path d="M65.2362,25.1855c-1.12-.2676-2.1466-.8611-3.2353-1.2268a18.859,18.859,0,0,0-5.6407-.8765c-.1147-.0017-.2279.0073-.3422.0155-.7569.0543-3.311.386-4.07.5467-.0667.0142-.1343.0218-.2.0409a15.49,15.49,0,0,0-4.19,1.8065A29.1378,29.1378,0,0,0,44.34,28.0061a16.37,16.37,0,0,0-1.2839,1.6512,16.8216,16.8216,0,0,0-1.275,1.6686A16.9328,16.9328,0,0,0,39.957,35.699a25.1686,25.1686,0,0,0-.36,2.5107,21.1834,21.1834,0,0,0-.3091,2.5407,17.5314,17.5314,0,0,0,.658,4.8537c.0446.1576.1028.3085.1625.4609.5054,1.29,1.0323,2.6508,1.6543,3.8912a7.202,7.202,0,0,0,.6045.978,42.5941,42.5941,0,0,0,3.9038,4.8384,53.1408,53.1408,0,0,1,3.9973,4.1256L47.923,56.8624a6.5474,6.5474,0,0,1,.82,1.3421,11.336,11.336,0,0,0,3.8633,4.2086,11.2965,11.2965,0,0,0,5.1011,2.6848,11.3617,11.3617,0,0,0,5.9814.268,11.1641,11.1641,0,0,0,5.577-1.78L72.3018,61.24a14.9861,14.9861,0,0,0,3.8576-6.619l.5358-3.9876a14.93,14.93,0,0,0-2.0479-7.5708,5.5778,5.5778,0,0,0-.4711-.8576c-.8718-1.3127-1.8937-2.5467-2.889-3.7647A22.8568,22.8568,0,0,0,69.61,36.6494a38.7271,38.7271,0,0,1-3.4916-3.6349L68.4639,36.05a7.4705,7.4705,0,0,1-.9391-1.5437L69.0369,38.09a4.0416,4.0416,0,0,1-.26-.92l.5358,3.9876a4.1961,4.1961,0,0,1,.0161-.9536l-.5358,3.9876a4.0815,4.0815,0,0,1,.2681-1.0468L67.55,46.7275a2.5842,2.5842,0,0,1,.2382-.4107l-2.3455,3.0358a2.0165,2.0165,0,0,1,.2935-.3022L62.7,51.3959a1.9143,1.9143,0,0,1,.3419-.2043l-3.5832,1.5121a2.1889,2.1889,0,0,1,.4647-.1309l-3.9876.5358a3.3249,3.3249,0,0,1,.8761.0111l-3.9876-.5358c1.5712.24,2.909,1.1647,4.4369,1.53a11.3627,11.3627,0,0,0,5.9814.2679,11.1644,11.1644,0,0,0,5.577-1.78,11.3365,11.3365,0,0,0,4.2085-3.8633,11.2977,11.2977,0,0,0,2.6849-5.1011l.5358-3.9876a14.9306,14.9306,0,0,0-2.048-7.5708l-2.3454-3.0358a14.9861,14.9861,0,0,0-6.619-3.8576Z" transform="translate(-11.4375 -14.5521)"/><path d="M64.6124,15.6837c-.9394-.0046-1.8754-.112-2.8152-.1-.232.003-.464.0128-.6951.0338-.7516.0683-1.5381.2-2.2554.2963-.6986.0939-1.587.1757-2.3518.3259a4.2993,4.2993,0,0,0-.6328.1717c-.0466.0168-.0922.0362-.1386.0536-.7778.2909-2.8661,1.1788-3.6289,1.5308-.1192.055-.2374.1091-.351.1754-.085.0495-.1656.1047-.2462.1608-.5324.37-1.4645,1.13-1.5964,1.2323-.0133.01-1.1152.8086-1.5945,1.2355a3.1734,3.1734,0,0,0-.2522.2453c-.0346.0383-.0673.0778-.1007.1172l-.0641.0828L45.544,24.2812a5.2566,5.2566,0,0,0-.4313.7484c-.4676.9889-1.1327,2.6248-1.54,3.646-.0332.083-.0683.1647-.098.2491a3.7012,3.7012,0,0,0-.1228.4294A24.4023,24.4023,0,0,0,42.7345,34c-.0028.1169,0,.2344.0093.351.0059.0776.0168.1536.0252.2308.1357,1.2508.3243,2.8684.5537,4.102a4.6265,4.6265,0,0,0,.1964.7288c.2512.6945.5986,1.4366.8638,2.0651.2925.693.5775,1.4721.9335,2.1681a10.3477,10.3477,0,0,0,.9981,1.5342c1.1266,1.4825,2.276,2.944,3.4309,4.4034a11.2446,11.2446,0,0,0,4.8274,3.1015,11.2974,11.2974,0,0,0,5.7792,1.2919,11.2974,11.2974,0,0,0,5.7792-1.2919,11.2441,11.2441,0,0,0,4.8274-3.1015l2.3455-3.0359a14.93,14.93,0,0,0,2.0479-7.5707L74.8162,34.99a14.9856,14.9856,0,0,0-3.8576-6.619c-.323-.4081-.6535-.81-.9731-1.221l2.3455,3.0359a10.0622,10.0622,0,0,1-1.2879-2.0574l1.5121,3.5832a4.8643,4.8643,0,0,1-.3221-1.1167l.5359,3.9876a3.9348,3.9348,0,0,1-.007-.9386l-.5358,3.9876a4.1305,4.1305,0,0,1,.2743-.98L70.9884,40.234a4.72,4.72,0,0,1,.46-.8112l-2.3454,3.0358a3.0974,3.0974,0,0,1,.4936-.508L66.5605,44.296a3.3426,3.3426,0,0,1,.6757-.3958L63.653,45.4123a4.8232,4.8232,0,0,1,1.1751-.3019l-3.9876.5358a29.94,29.94,0,0,1,3.7719.0375,11.2974,11.2974,0,0,0,5.7792-1.2919A11.2446,11.2446,0,0,0,75.219,41.29a11.2435,11.2435,0,0,0,3.1015-4.8275,11.296,11.296,0,0,0,1.2919-5.7791l-.5358-3.9876a14.9865,14.9865,0,0,0-3.8576-6.619l-3.0358-2.3455a14.9305,14.9305,0,0,0-7.5708-2.0479Z" transform="translate(-11.4375 -14.5521)"/><path d="M44.5889,33.5254a25.4832,25.4832,0,0,0-3.2657,4.2886,32.407,32.407,0,0,0-1.7207,3.9944,7.12,7.12,0,0,0-.2725.8132,19.8871,19.8871,0,0,0,.09,10.2216,31.3618,31.3618,0,0,0,1.9054,4.616,11.294,11.294,0,0,0,.8,1.4006c1.28,1.9455,2.8091,3.7262,4.2387,5.5611l-2.3454-3.0358a16.3937,16.3937,0,0,1,1.9537,3.4023l-1.5121-3.5832a35.3643,35.3643,0,0,1,1.255,3.8087c.161.5639.3323,1.1224.5408,1.6706,1.4213,3.7367,1.8023,4.5372,4.3816,7.5583a11.2437,11.2437,0,0,0,4.8274,3.1015,11.2964,11.2964,0,0,0,5.7792,1.2919,11.2964,11.2964,0,0,0,5.7792-1.2919,11.2431,11.2431,0,0,0,4.8274-3.1015c2.6242-2.8586,4.5723-6.6117,4.3934-10.6066l-.5358-3.9876a14.9856,14.9856,0,0,0-3.8576-6.619L71.76,52.921l2.3455,3.0358a4.0213,4.0213,0,0,1-.3491-.632l1.5121,3.5832c-.6877-1.6544-.9953-3.4388-1.6484-5.109a42.8444,42.8444,0,0,0-2.654-6.0045A52.1006,52.1006,0,0,0,66.78,42.1911l2.3454,3.0359a15.46,15.46,0,0,1-2.0662-3.295l1.5122,3.5832a7.05,7.05,0,0,1-.3672-1.3L68.74,48.203a5.253,5.253,0,0,1,.0018-1.3253l-.5358,3.9876a5.7056,5.7056,0,0,1,.3247-1.0817l-1.5121,3.5832a7.3843,7.3843,0,0,1,.66-1.1034l-2.3455,3.0358q.2211-.2916.4692-.5606a11.2431,11.2431,0,0,0,3.1015-4.8274,11.2964,11.2964,0,0,0,1.2919-5.7792,11.2964,11.2964,0,0,0-1.2919-5.7792,11.2437,11.2437,0,0,0-3.1015-4.8274c-2.8586-2.6241-6.6117-4.5723-10.6066-4.3934-3.8267.1714-7.9911,1.414-10.6066,4.3934Z" transform="translate(-11.4375 -14.5521)"/><path d="M65.6788,67.3961q.8954-.6744,1.7935-1.3448a11.336,11.336,0,0,0,4.2086-3.8633,11.2975,11.2975,0,0,0,2.6848-5.1011,11.3627,11.3627,0,0,0,.2679-5.9814,11.1633,11.1633,0,0,0-1.78-5.577l-2.3455-3.0358a14.9856,14.9856,0,0,0-6.619-3.8576l-3.9876-.5358a14.93,14.93,0,0,0-7.5707,2.0479q-.8982.6705-1.7936,1.3447a11.3359,11.3359,0,0,0-4.2085,3.8634,11.2972,11.2972,0,0,0-2.6849,5.1011,11.3627,11.3627,0,0,0-.2679,5.9814,11.1644,11.1644,0,0,0,1.78,5.577l2.3454,3.0358a14.9871,14.9871,0,0,0,6.619,3.8576l3.9876.5358a14.9315,14.9315,0,0,0,7.5708-2.0479Z" transform="translate(-11.4375 -14.5521)"/><path d="M51.6591,46.5485a31.5292,31.5292,0,0,1,3.2856,5.1335l-1.5121-3.5832a8.3992,8.3992,0,0,1,.582,2.017l-.5358-3.9876a6.4405,6.4405,0,0,1,.01,1.5537l.5358-3.9876a2.7389,2.7389,0,0,1-.1375.5566L55.4,40.6677a1.7165,1.7165,0,0,1-.1518.2787l2.3455-3.0358a1.4747,1.4747,0,0,1-.2056.2168l3.0358-2.3455a1.7517,1.7517,0,0,1-.34.2L63.6668,34.47a4.6433,4.6433,0,0,1-1.1161.2571l3.9876-.5358a25.55,25.55,0,0,1-5.2912.3219,11.2964,11.2964,0,0,0-5.7792,1.2919,11.2422,11.2422,0,0,0-4.8274,3.1015,11.2433,11.2433,0,0,0-3.1016,4.8274,11.2973,11.2973,0,0,0-1.2918,5.7792l.5358,3.9876a14.9861,14.9861,0,0,0,3.8576,6.619l3.0358,2.3454a14.93,14.93,0,0,0,7.5708,2.048,24.099,24.099,0,0,0,4.5125-.234c1.5932-.1671,3.1812-.3964,4.7663-.6237a6.8958,6.8958,0,0,0,.7237-.1293c.0916-.0233.1809-.0513.2707-.0807.0414-.0136.0807-.0322.1217-.0471.3105-.1129,3.3461-1.38,3.621-1.5294.0819-.0444.162-.0881.2417-.1369.4744-.291,3.4231-2.6439,1.5782-1.2185a16.6774,16.6774,0,0,0,1.6012-1.2479,17.3218,17.3218,0,0,0,1.295-1.66,15.2606,15.2606,0,0,0,1.2732-1.6847c.0206-.0358.0326-.0753.0513-.1119.1339-.2612,1.4443-3.3614,1.5272-3.6234.0327-.1035.0632-.2048.0878-.3106.0158-.0677.0224-.1376.0347-.2058.1528-.8483.4608-3.1959.5424-4.0431.0116-.12.023-.2387.0289-.3589a6.7114,6.7114,0,0,0-.0264-.98c-.1361-1.4-.34-2.9187-.5788-4.3052-.0273-.1584-.0573-.3161-.094-.4726a8.0546,8.0546,0,0,0-.34-1.0825c-.5668-1.4571-1.1612-2.9266-1.8411-4.336-.1559-.3231-.3269-.6388-.5076-.9486-.7638-1.3093-1.7123-2.4916-2.5731-3.7355A11.3351,11.3351,0,0,0,73.7,27.1984a11.2972,11.2972,0,0,0-5.1011-2.6849,11.3627,11.3627,0,0,0-5.9814-.2679,11.1643,11.1643,0,0,0-5.577,1.78l-3.0358,2.3455a14.9865,14.9865,0,0,0-3.8576,6.619l-.5358,3.9876a14.9306,14.9306,0,0,0,2.048,7.5708Z" transform="translate(-11.4375 -14.5521)"/><path d="M67.5232,37.2038a8.1907,8.1907,0,0,0-1.339-.0287q-.3536.0192-.7054.0608c-1.4209.1662-2.8484.3684-4.2643.5714-.1316.0188-.263.0391-.3939.0618a10.7261,10.7261,0,0,0-1.3461.3195c-.21.0653-.4165.14-.6206.2221-1.26.5061-2.5563,1.0315-3.789,1.6018-.091.0421-.18.0875-.2684.1351A11.3359,11.3359,0,0,0,50.588,44.011a11.296,11.296,0,0,0-2.6848,5.1011,11.3617,11.3617,0,0,0-.268,5.9814,11.1638,11.1638,0,0,0,1.78,5.5769l2.3454,3.0359a14.986,14.986,0,0,0,6.619,3.8575l3.9876.5359a14.9311,14.9311,0,0,0,7.5708-2.048c.1446-.0781.2926-.1478.4438-.2123l-3.5832,1.5122a10.0324,10.0324,0,0,1,2.47-.6268l-3.9876.5358a9.4149,9.4149,0,0,1,2.2421-.0568,11.2964,11.2964,0,0,0,5.7792-1.2919A11.2431,11.2431,0,0,0,78.13,62.81a11.2439,11.2439,0,0,0,3.1016-4.8274,11.2973,11.2973,0,0,0,1.2918-5.7792l-.5358-3.9876a14.9856,14.9856,0,0,0-3.8576-6.619L75.094,39.2517a14.9312,14.9312,0,0,0-7.5708-2.0479Z" transform="translate(-11.4375 -14.5521)"/><path d="M67.0742,41.687c-.8892-.0025-1.777-.0769-2.6665-.052-.2215.0062-.4428.0183-.6633.04-1.41.1405-2.8351.3583-4.2363.565-.1034.0152-.2064.0311-.309.0512a3.832,3.832,0,0,0-.5731.1553,23.3286,23.3286,0,0,0-4.0542,1.7357,11.3354,11.3354,0,0,0-4.2086,3.8634,11.297,11.297,0,0,0-2.6848,5.1011,11.3627,11.3627,0,0,0-.2679,5.9814,11.1633,11.1633,0,0,0,1.78,5.577l2.3455,3.0358a14.9865,14.9865,0,0,0,6.619,3.8576l3.9876.5358a14.93,14.93,0,0,0,7.5707-2.048,2.8751,2.8751,0,0,1,.3245-.1663l-3.5832,1.5121a4.2791,4.2791,0,0,1,1.0287-.2637l-3.9876.5358a26.8063,26.8063,0,0,1,3.5785-.0175,11.2964,11.2964,0,0,0,5.7792-1.2919,11.2431,11.2431,0,0,0,4.8274-3.1015,11.2428,11.2428,0,0,0,3.1015-4.8274,11.2964,11.2964,0,0,0,1.2919-5.7792l-.5358-3.9876a14.9856,14.9856,0,0,0-3.8576-6.619L74.645,43.7349a14.9315,14.9315,0,0,0-7.5708-2.0479Z" transform="translate(-11.4375 -14.5521)"/><path d="M77.34,61.5131l.002-.0008-3.9876.5358.0027,0-3.9876-.5358.0034.0012L65.79,60.0016l.0143.0092-3.0358-2.3455a3.5638,3.5638,0,0,1,.4563.5145c.2938.3521.5836.7073.8759,1.06.6993.845,1.4022,1.6921,2.1639,2.482a23.8619,23.8619,0,0,0,4,3.211,11.1643,11.1643,0,0,0,5.577,1.78,11.3627,11.3627,0,0,0,5.9814-.2679,11.2967,11.2967,0,0,0,5.1011-2.6849,11.3357,11.3357,0,0,0,3.8633-4.2085l1.5122-3.5832a15.1064,15.1064,0,0,0,0-7.9752L90.7868,44.41a15.0747,15.0747,0,0,0-5.3812-5.3813c-.0577-.0381-.1133-.0787-.168-.1209l3.0359,2.3454a15.364,15.364,0,0,1-2.056-2.1492c-.6429-.7519-1.2609-1.5245-1.8993-2.28-.0879-.1041-.1757-.2088-.27-.3077-.0139-.0148-.0287-.0287-.0429-.0431l-.0149-.0135-.0065-.0054q-1.4971-1.2022-3.0389-2.348c-.0774-.041-3.5042-1.4956-3.5975-1.5213-.0045-.0012-3.984-.5367-3.991-.537a9.7422,9.7422,0,0,0-3.9923.5364A11.2972,11.2972,0,0,0,64.2636,35.27,11.3359,11.3359,0,0,0,60.4,39.4781a11.1633,11.1633,0,0,0-1.78,5.577,11.3627,11.3627,0,0,0,.2679,5.9814L60.4,54.62a15.0742,15.0742,0,0,0,5.3813,5.3813l3.5832,1.5121a15.1064,15.1064,0,0,0,7.9752,0Z" transform="translate(-11.4375 -14.5521)"/><path d="M63.5948,55.9688c.2077,1.2311.3607,2.47.6156,3.6928a13.4123,13.4123,0,0,0,.5212,1.9313c.9614,2.5936,2.2374,5.8988,4.513,7.72a11.2428,11.2428,0,0,0,4.8274,3.1015,11.2964,11.2964,0,0,0,5.7792,1.2919A11.2964,11.2964,0,0,0,85.63,72.4145a11.2422,11.2422,0,0,0,4.8274-3.1015l2.3455-3.0358a14.9305,14.9305,0,0,0,2.0479-7.5708l-.5358-3.9876A14.9856,14.9856,0,0,0,90.4578,48.1a1.2847,1.2847,0,0,1-.2049-.2107l2.3455,3.0358a3.0749,3.0749,0,0,1-.3429-.6189l1.5122,3.5832a26.3887,26.3887,0,0,1-1.2446-5.8956,11.2965,11.2965,0,0,0-2.6848-5.1011A11.336,11.336,0,0,0,85.63,39.0292a11.1638,11.1638,0,0,0-5.577-1.78,11.3624,11.3624,0,0,0-5.9813.2679l-3.5832,1.5122A15.0747,15.0747,0,0,0,65.1069,44.41l-1.5121,3.5832a15.1044,15.1044,0,0,0,0,7.9752Z" transform="translate(-11.4375 -14.5521)"/><path d="M67.1232,51.8081q-.1512.2433-.28.4989c-.643,1.2844-1.2853,2.97-1.7248,4.0491-.1521.3737-.2844.7538-.4023,1.14-.2409.7883-.4335,1.59-.6748,2.3787a11.3627,11.3627,0,0,0-.2679,5.9814,11.1633,11.1633,0,0,0,1.78,5.577,11.3359,11.3359,0,0,0,3.8634,4.2085,11.2972,11.2972,0,0,0,5.1011,2.6849l3.9876.5358a14.9306,14.9306,0,0,0,7.5708-2.048l3.0358-2.3454A14.9871,14.9871,0,0,0,92.97,67.85c.3589-1.1724.6083-2.3818,1.0771-3.5183l-1.5121,3.5832a6.898,6.898,0,0,1,.4927-.9648,11.1637,11.1637,0,0,0,1.78-5.577,11.3627,11.3627,0,0,0-.2679-5.9814A11.2982,11.2982,0,0,0,91.8546,50.29a11.3357,11.3357,0,0,0-4.2085-3.8633l-3.5832-1.5121a15.1044,15.1044,0,0,0-7.9752,0l-3.5832,1.5121a15.0755,15.0755,0,0,0-5.3813,5.3812Z" transform="translate(-11.4375 -14.5521)"/><path d="M86.7488,76.1416l.0755-.0321-3.5832,1.5121a3.7929,3.7929,0,0,1,.8135-.2156l-3.9875.5358a5.9194,5.9194,0,0,1,1.5546.0163l-3.9876-.5358a10.6739,10.6739,0,0,1,2.6234.7554l-3.5832-1.5121a12.3639,12.3639,0,0,1,1.2094.5978,11.1627,11.1627,0,0,0,5.577,1.78,11.3607,11.3607,0,0,0,5.9814-.2679,11.2965,11.2965,0,0,0,5.1011-2.6848,11.336,11.336,0,0,0,3.8633-4.2086l1.5122-3.5832a15.106,15.106,0,0,0,0-7.9751l-1.5122-3.5832a15.0747,15.0747,0,0,0-5.3812-5.3813,41.8661,41.8661,0,0,0-5.0142-2.2016,10.8948,10.8948,0,0,0-1.78-.5538c-1.5617-.3354-3.1775-.48-4.7513-.6637a6.09,6.09,0,0,0-.8821-.0428c-.1337.0039-.2672.0129-.4.0279-1.3257.15-2.7993.3378-4.1177.5523-.0569.0093-.1139.0177-.17.0284a3.5242,3.5242,0,0,0-.41.1027c-.0527.0167-.1045.0358-.1566.0544-1.1846.4234-2.578,1.081-3.7352,1.5744a11.3354,11.3354,0,0,0-4.2086,3.8634,11.297,11.297,0,0,0-2.6848,5.1011,11.3627,11.3627,0,0,0-.2679,5.9814,11.1633,11.1633,0,0,0,1.78,5.577l2.3455,3.0358a14.9865,14.9865,0,0,0,6.619,3.8576l3.9876.5358a14.93,14.93,0,0,0,7.5707-2.048Z" transform="translate(-11.4375 -14.5521)"/><path d="M79.8512,73.9306a13.0858,13.0858,0,0,1,1.5778.1023l-3.9876-.5358a8.709,8.709,0,0,1,2.1731.5924l-3.5832-1.5121a11.5872,11.5872,0,0,1,1.6288.8752,11.1633,11.1633,0,0,0,5.577,1.78,11.3627,11.3627,0,0,0,5.9814-.2679A11.2975,11.2975,0,0,0,94.32,72.28a11.336,11.336,0,0,0,3.8633-4.2086l1.5122-3.5832a15.1064,15.1064,0,0,0,0-7.9752L98.1829,52.93a15.0739,15.0739,0,0,0-5.3812-5.3813,11.9352,11.9352,0,0,0-1.3255-.74c-.6836-.3207-1.4226-.6079-2.0949-.8916-.6639-.28-1.3652-.5965-2.0563-.8634q-.3369-.13-.6842-.23-.3268-.094-.6608-.1608-.1591-.0318-.3193-.0578c-1.4135-.23-2.8525-.3984-4.2729-.5775a13.2645,13.2645,0,0,0-1.5366-.0969,11.2964,11.2964,0,0,0-5.7792,1.2919,11.2428,11.2428,0,0,0-4.8274,3.1015,11.2431,11.2431,0,0,0-3.1015,4.8274,11.2964,11.2964,0,0,0-1.2919,5.7792l.5358,3.9876a14.9871,14.9871,0,0,0,3.8576,6.619L72.28,71.8826a14.9306,14.9306,0,0,0,7.5708,2.048Z" transform="translate(-11.4375 -14.5521)"/><path d="M85.1816,63.3641a26.5376,26.5376,0,0,1,2.9693-1.6375l-3.5832,1.5121q.1953-.0818.3935-.1553a11.2975,11.2975,0,0,0,5.1011-2.6848A11.3368,11.3368,0,0,0,93.9256,56.19a11.1638,11.1638,0,0,0,1.78-5.577,11.3627,11.3627,0,0,0-.2679-5.9814l-1.5122-3.5832a15.0736,15.0736,0,0,0-5.3812-5.3812L84.9612,34.155a15.1064,15.1064,0,0,0-7.9752,0c-1.4983.5545-2.9762,1.1755-4.4169,1.8663-.2911.14-.576.2916-.8573.45-.5642.3177-1.1135.6609-1.6717.9887a11.336,11.336,0,0,0-4.2086,3.8633,11.2975,11.2975,0,0,0-2.6848,5.1011,11.3627,11.3627,0,0,0-.2679,5.9814,11.1627,11.1627,0,0,0,1.78,5.577l2.3455,3.0358a14.9856,14.9856,0,0,0,6.619,3.8576l3.9876.5358a14.93,14.93,0,0,0,7.5707-2.0479Z" transform="translate(-11.4375 -14.5521)"/><path d="M84.5117,50.36q.2013-.31.4266-.6024l-2.3455,3.0359a6.7172,6.7172,0,0,1,1.16-1.1818l-3.0358,2.3455a4.2431,4.2431,0,0,1,.9051-.5378L78.039,54.9319a3.4246,3.4246,0,0,1,.4227-.1435,11.2972,11.2972,0,0,0,5.1011-2.6849,11.3359,11.3359,0,0,0,3.8634-4.2085,11.1643,11.1643,0,0,0,1.78-5.577,11.3627,11.3627,0,0,0-.2679-5.9814l-1.5121-3.5832a15.075,15.075,0,0,0-5.3813-5.3813L78.4617,25.86a15.1064,15.1064,0,0,0-7.9752,0c-.079.0211-.1572.0444-.2345.0713-1.2547.4368-3.2838,1.3711-3.7714,1.5843a4.126,4.126,0,0,0-.4453.2249,4.4453,4.4453,0,0,0-.4038.27c-1.0194.7632-2.0892,1.6018-3.0918,2.3879-.037.029-.0739.0579-.11.0876q-.1006.082-.1973.169a6.7948,6.7948,0,0,0-.7049.7405c-.9129,1.1077-1.7861,2.2492-2.6339,3.4076-.0992.1356-.194.2744-.2857.4153a11.1637,11.1637,0,0,0-1.78,5.5769,11.3627,11.3627,0,0,0,.2679,5.9814A11.2972,11.2972,0,0,0,59.78,51.8782a11.3351,11.3351,0,0,0,4.2085,3.8634l3.5832,1.5121a15.1064,15.1064,0,0,0,7.9752,0L79.13,55.7416A15.075,15.075,0,0,0,84.5117,50.36Z" transform="translate(-11.4375 -14.5521)"/><path d="M79.748,33.8694a18.3216,18.3216,0,0,1-.7532-3.0941l.5358,3.9876a8.3443,8.3443,0,0,1-.0355-2.1542l-.5358,3.9876a4.8124,4.8124,0,0,1,.3194-1.187l-1.5121,3.5832a3.7359,3.7359,0,0,1,.4354-.7386L75.8565,41.29a3.5547,3.5547,0,0,1,.5642-.5609l-3.0359,2.3454a4.0422,4.0422,0,0,1,.8423-.4826l-3.5832,1.5121q.0981-.0406.1979-.0764a11.2977,11.2977,0,0,0,5.1011-2.6849,11.3367,11.3367,0,0,0,3.8634-4.2085,11.1643,11.1643,0,0,0,1.78-5.577,11.3627,11.3627,0,0,0-.2679-5.9814l-1.5121-3.5832a15.075,15.075,0,0,0-5.3813-5.3813L70.8418,15.099a15.1064,15.1064,0,0,0-7.9752,0A32.4961,32.4961,0,0,0,58.72,16.8612a27.967,27.967,0,0,0-3.5123,2.6544,16.6683,16.6683,0,0,0-3.06,3.8067c-1.9068,2.8927-2.4651,6.33-2.6931,9.695a8.0366,8.0366,0,0,0,.0221,1.2689,52.1384,52.1384,0,0,0,.7081,5.1748,20.1989,20.1989,0,0,0,.6353,2.3836,11.2967,11.2967,0,0,0,2.6849,5.1011,11.336,11.336,0,0,0,4.2085,3.8634,11.1643,11.1643,0,0,0,5.577,1.78,11.3627,11.3627,0,0,0,5.9814-.2679l3.5832-1.5121a15.0747,15.0747,0,0,0,5.3812-5.3813l1.5122-3.5832a15.1064,15.1064,0,0,0,0-7.9752Z" transform="translate(-11.4375 -14.5521)"/><path d="M63.3149,44.0274c.3694.1346.7324.2763,1.0953.4274L60.827,42.9426a27.4139,27.4139,0,0,1,5.6288,3.4712L63.42,44.0683c2.2691,1.78,4.3942,3.7347,6.6645,5.5136a72.1143,72.1143,0,0,0,6.1861,4.53c1.1335.7082,2.2766,1.3943,3.34,2.2069l-3.0358-2.3454A11.9824,11.9824,0,0,1,78.33,55.6812l-2.3455-3.0359A9.4547,9.4547,0,0,1,77.1,54.5293l-1.5121-3.5832a129.9927,129.9927,0,0,0,5.5184,12.122c1.4143,2.582,3.2959,4.8947,4.4594,7.6134L84.054,67.0983a10.253,10.253,0,0,1,.617,2.2455l-.5359-3.9876a10.3387,10.3387,0,0,1-.0192,1.9824l.5358-3.9876a21.0816,21.0816,0,0,1-1.5509,5.1857l1.5121-3.5832A19.8732,19.8732,0,0,1,82.34,69.1189l2.3455-3.0358c-2.1147,2.7323-4.66,5.105-6.8208,7.8092-2.2709,2.8415-4.71,5.5512-6.9693,8.3961a80.9957,80.9957,0,0,0-7.0046,10.2869,68.4009,68.4009,0,0,1-4.8838,7.748l2.3455-3.0358a22.2351,22.2351,0,0,1-3.6625,3.7472l3.0358-2.3454q-.2748.213-.5586.4141a11.3362,11.3362,0,0,0-4.2086,3.8634,11.297,11.297,0,0,0-2.6848,5.1011,15.33,15.33,0,0,0,1.5121,11.5584c2.0649,3.2028,5.14,6.0222,8.9645,6.8934,3.7123.8455,8.3418.8191,11.5584-1.5122a34.7016,34.7016,0,0,0,6.9258-6.0892,68.7991,68.7991,0,0,0,5.5094-7.6685,116.537,116.537,0,0,1,6.3791-10.36l-2.3455,3.0358c2.2834-2.9511,4.824-5.7189,7.1552-8.6386,2.6109-3.27,5.58-6.1968,8.1386-9.5088a25.0033,25.0033,0,0,0,3.4453-5.6833c1.15-2.691,2.5114-5.4431,3.0069-8.3634.7-4.1235,1.0424-8.1872-.3964-12.2362a37.6376,37.6376,0,0,0-3.798-7.82,77.801,77.801,0,0,1-6.1415-11.8522L104.7,43.4066c-1.6975-4.031-2.4245-5.7706-5.2691-9.0742A29.06,29.06,0,0,0,94.1839,29.99c-1.9346-1.3882-4.0289-2.5119-5.922-3.9665l3.0358,2.3454c-2.2719-1.7768-4.3962-3.7322-6.6645-5.5136a60.8817,60.8817,0,0,0-6.2442-4.5718A41.5309,41.5309,0,0,0,71.29,15.0991a11.3607,11.3607,0,0,0-5.9814-.2679,11.1633,11.1633,0,0,0-5.577,1.78,15.2877,15.2877,0,0,0-6.8934,8.9645c-.8746,3.84-.6853,8.15,1.5122,11.5583L56.6959,40.17a14.986,14.986,0,0,0,6.619,3.8575Z" transform="translate(-11.4375 -14.5521)"/><path d="M63.88,79.6c-.2971-.19-.5763-.3874-.8566-.601l3.0358,2.3455a48.1814,48.1814,0,0,0-5.1356-3.96,7.2281,7.2281,0,0,0-.7565-.3752,28.5208,28.5208,0,0,0-3.9026-1.614,27.9086,27.9086,0,0,0-4.34-.6123c-.2387-.0241-.4719-.0576-.7126-.0607a25.2166,25.2166,0,0,0-5.2451.675,10.82,10.82,0,0,0-1.4272.4152c-1.0246.3639-2.01.8286-3.0476,1.158a44.3919,44.3919,0,0,1-6.2428,1.2359,32.2822,32.2822,0,0,0-9.3753,3.1837c-3.2378,1.63-5.9547,5.5557-6.8934,8.9644a11.3627,11.3627,0,0,0-.2679,5.9814,11.1627,11.1627,0,0,0,1.78,5.577c2.0649,3.2029,5.14,6.0223,8.9645,6.8934l3.9876.5358a14.9305,14.9305,0,0,0,7.5708-2.0479c.3218-.1621.6432-.3109.9748-.4522l-3.5832,1.5121c2.6194-1.028,5.4285-1.2638,8.1746-1.7666a21.4186,21.4186,0,0,0,3.8869-1.0437,19.6219,19.6219,0,0,1,4.0129-1.3119l-3.9876.5358a6.2967,6.2967,0,0,1,1.4306.0153l-3.9876-.5358a3.6742,3.6742,0,0,1,.6722.1783l-3.5832-1.5121a7.0707,7.0707,0,0,1,1.4721.8677l-3.0358-2.3454c1.743,1.3705,3.4057,2.875,5.2766,4.0687a14.9992,14.9992,0,0,0,20.5229-5.3813c1.8393-3.4812,2.7612-7.6985,1.5121-11.5584A16.1955,16.1955,0,0,0,63.88,79.6Z" transform="translate(-11.4375 -14.5521)"/><path d="M54.5161,104.4129c1.0517.1347,2.0834-.2291,3.13-.1073l-3.9876-.5359a2.9747,2.9747,0,0,1,.6947.1824L50.77,102.44a3.4687,3.4687,0,0,1,.6583.3741,11.1644,11.1644,0,0,0,5.577,1.78,11.3617,11.3617,0,0,0,5.9814-.268,11.2965,11.2965,0,0,0,5.1011-2.6848,11.336,11.336,0,0,0,3.8633-4.2086L73.4635,93.85a15.1064,15.1064,0,0,0,0-7.9752l-1.5122-3.5832A15.0739,15.0739,0,0,0,66.57,76.91a3.6539,3.6539,0,0,0-.5939-.3467l-.0644-.0274-3.5832-1.5121c-.0426-.0165-.0849-.0337-.1281-.0489a2.678,2.678,0,0,0-.285-.083c-.0932-.0216-.187-.0365-.2816-.05l-3.9876-.5358-.0622-.0073c-.0518-.005-.1034-.0094-.1553-.0124a4.3247,4.3247,0,0,0-.5577.008,11.6827,11.6827,0,0,1-2.355.119,11.2974,11.2974,0,0,0-5.7792,1.2919A11.2441,11.2441,0,0,0,43.91,78.8063a11.2425,11.2425,0,0,0-3.1015,4.8275,11.2962,11.2962,0,0,0-1.2919,5.7791l.5358,3.9876A14.9859,14.9859,0,0,0,43.91,100.02l3.0358,2.3454a14.9305,14.9305,0,0,0,7.5708,2.0479Z" transform="translate(-11.4375 -14.5521)"/><path d="M33.8922,109.79a3.4564,3.4564,0,0,1,.5067.0117l-3.9876-.5358a4.4265,4.4265,0,0,1,.9433.2322l-3.5832-1.5121a5.16,5.16,0,0,1,1.0555.6285l-3.0358-2.3454a7.9666,7.9666,0,0,1,1.1007,1.1433l-2.3455-3.0359a18.0324,18.0324,0,0,1,2.0879,3.83l-1.5121-3.5832c1.01,2.427,1.9717,4.8664,3.0036,7.2874l-1.5122-3.5831a30.2914,30.2914,0,0,1,2.1205,7.4534l-.5358-3.9876a21.4182,21.4182,0,0,1-.0413,5.1643l.5358-3.9876a7.16,7.16,0,0,1-.4566,1.7224l1.5122-3.5832a3.1588,3.1588,0,0,1-.2755.4822l2.3455-3.0358a3.44,3.44,0,0,1-.5726.5866l3.0358-2.3455a2.3927,2.3927,0,0,1-.5067.2783l3.5832-1.5121a3.1518,3.1518,0,0,1-.6583.18l3.9876-.5358a4.1442,4.1442,0,0,1-1.0023-.0028l3.9876.5358a2.9287,2.9287,0,0,1-.5994-.1754l3.5832,1.5121a5.1424,5.1424,0,0,1-.8016-.4658l3.0358,2.3455a7.2469,7.2469,0,0,1-1.0945-1.1236l2.3455,3.0358c-1.154-1.5626-2.1038-3.3044-3.1554-4.9388a39.4667,39.4667,0,0,1-3.1276-5.6229l1.5121,3.5832a20.9468,20.9468,0,0,1-1.3272-5.1817l.5358,3.9876a20.1932,20.1932,0,0,1-.1479-4.919l-.5358,3.9875a6.9153,6.9153,0,0,1,.4274-1.7077L42.8109,103.64a4.0036,4.0036,0,0,1,.3249-.5776L40.79,106.0977a2.659,2.659,0,0,1,.42-.4339l-3.0358,2.3454a2.4276,2.4276,0,0,1,.383-.2175l-3.5832,1.5121a2.53,2.53,0,0,1,.4454-.1144l-3.9876.5358a3.2206,3.2206,0,0,1,.5113-.0018l-3.9876-.5358a2.9923,2.9923,0,0,1,.3794.0661,15.9648,15.9648,0,0,0,11.5584-1.5121,15.2883,15.2883,0,0,0,6.8934-8.9645c.8746-3.84.6853-8.15-1.5122-11.5584-2.04-3.1638-5.1527-6.1055-8.9644-6.8934a18.4118,18.4118,0,0,0-9.17,0,16.8063,16.8063,0,0,0-7.4679,4.4363c-3.6511,3.7238-4.868,8.3345-5.2766,13.3413a21.3769,21.3769,0,0,0,.1384,4.2466,56.8909,56.8909,0,0,0,1.1308,7.2845c1.4287,5.6164,4.7993,10.2761,7.7486,15.1308,2.8322,4.6618,6.8748,8.4939,12.2833,9.903a22.7464,22.7464,0,0,0,4.3076.5743c.2394.0043.4477-.023.6823-.0357a17.5942,17.5942,0,0,0,8.3625-2.2911,18.3124,18.3124,0,0,0,3.8137-2.9314c2.3339-2.3284,3.1622-4.314,4.301-7.3168a24.9458,24.9458,0,0,0,1.0917-6.635,21.5414,21.5414,0,0,0-.058-4.2393,43.4174,43.4174,0,0,0-1.48-8.2327,78.5315,78.5315,0,0,0-2.944-7.3919l1.5121,3.5832c-1.3257-3.21-2.3553-6.6209-4.1931-9.5837-3.74-6.03-9.8562-10.476-17.2009-10.3781a15.5549,15.5549,0,0,0-10.6066,4.3934A15.2429,15.2429,0,0,0,18.8922,94.79c.1738,3.8794,1.4481,7.9029,4.3934,10.6066A15.43,15.43,0,0,0,33.8922,109.79Z" transform="translate(-11.4375 -14.5521)"/><path d="M49.0807,132.8493c.3221-.18.6424-.3392.9792-.4907l-3.5832,1.5121c1.3815-.5663,2.8241-.929,4.25-1.3625a72.6806,72.6806,0,0,0,7.5525-3.08L54.6958,130.94a24.9679,24.9679,0,0,1,6.5344-1.6l-3.9876.5358a71.4323,71.4323,0,0,0,9.0569-1.349c1.6824-.4529,3.2759-1.1692,4.978-1.5583a15.0072,15.0072,0,0,0,10.4766-18.4518c-1.1746-3.6295-3.4238-7.1313-6.8934-8.9644A16.19,16.19,0,0,0,63.3023,98.04c-1.4166.3239-2.7569.8653-4.1379,1.3064a25.9176,25.9176,0,0,1-4.4858.8753l3.9876-.5358c-3.02.4017-6.145.6288-9.1227,1.3336-2.7831.6588-5.3885,2.07-7.9981,3.1962l3.5832-1.5121c-3.71,1.5624-7.6165,2.24-11.1894,4.242a14.9992,14.9992,0,0,0-5.3813,20.5229c2.0649,3.2028,5.14,6.0222,8.9645,6.8934a15.8856,15.8856,0,0,0,11.5583-1.5121Z" transform="translate(-11.4375 -14.5521)"/></g><g id="Hand-2" data-name="Hand"><path d="M54.81,89.7826c-1.1859-2.645.6149-6.1534,1.3881-8.7176,1.041-3.4519,2.0363-6.8268,3.381-10.176a44.3309,44.3309,0,0,0,2.9121-9.8835,46.8568,46.8568,0,0,0-.0075-10.1165c-.12-1.827-.1958-3.6743-.4345-5.4906-.15-1.1385-.5181-2.2313-.6835-3.3652a2.1084,2.1084,0,0,1,1.7658-2.7379,5.8062,5.8062,0,0,1,3.7241.2611c4.0014,1.7586,5.5967,7.2857,6.0825,11.2369.4361,3.5469.7209,7.2814,2.0939,10.6223,1.26,3.0664,4.0471,5.1442,5.4205,8.13.3223.7008,1.357.0918,1.0361-.6057-1.3222-2.8743-4.0014-4.8859-5.2782-7.7938-1.4857-3.3835-1.64-7.2679-2.14-10.8736-.5861-4.2252-2.3453-9.691-6.4939-11.6966-1.87-.904-4.7826-1.06-6.4681.345-1.9045,1.5875-.5948,4.3532-.2825,6.3432.3145,2.0037.3565,4.0773.4886,6.0991.1306,2.0012.3476,4.0091.3,6.0164a34.6215,34.6215,0,0,1-2.4023,11.1476c-.742,2.0074-1.6409,3.9544-2.3213,5.9842-.6894,2.0564-1.2246,4.1594-1.85,6.2351-.8964,2.9745-2.6455,6.568-1.2672,9.6422.3154.7035,1.35.0939,1.0362-.6056Z" transform="translate(-11.4375 -14.5521)" fill="#fef480"/><path d="M61.4081,39.0711c-1.2041-.2878-2.298-.9431-3.4806-1.3061-1.1484-.3526-2.5846-.5211-3.4616.488a4.1425,4.1425,0,0,0-.3193,4.3325,15.0575,15.0575,0,0,0,3.3373,4.029c1.3208,1.2854,2.94,2.5944,3.6932,4.3221.3081.7061,1.3423.0959,1.0362-.6057a12.0176,12.0176,0,0,0-2.7857-3.4992,35.1611,35.1611,0,0,1-3.4762-3.6165,3.73,3.73,0,0,1-.8348-3.7524c.4209-1.0191,1.5225-.8269,2.3942-.57,1.2206.3594,2.3407,1.04,3.5783,1.3357.7506.1794,1.0709-.9774.319-1.1572Z" transform="translate(-11.4375 -14.5521)" fill="#fef480"/><path d="M64.6124,30.0837c-1.8362-.009-3.9218-.4578-5.6009.5217a3.9887,3.9887,0,0,0-1.7745,2.5768,4.7271,4.7271,0,0,0,.5133,3.196,19.02,19.02,0,0,0,2.1775,3.0231.6041.6041,0,0,0,.8485,0,.614.614,0,0,0,0-.8485c-1.3866-1.752-3.4709-4.0342-1.824-6.3116a3.1344,3.1344,0,0,1,2.5219-1.0483c1.0476-.0468,2.0914.0856,3.1382.0908a.6.6,0,0,0,0-1.2Z" transform="translate(-11.4375 -14.5521)" fill="#fef480"/><path d="M54.7712,43.7078a5.55,5.55,0,0,0-1.5022,5.1774c.4992,1.9447,1.8667,3.5365,3.07,5.0862a17.0138,17.0138,0,0,1,2.81,5.6048c.4347,1.4547.6549,3.2918,1.672,4.4832.5023.5883,1.3476-.264.8486-.8485-.8633-1.0111-1.02-2.8294-1.3969-4.067a18.6206,18.6206,0,0,0-2.0532-4.5934c-.9835-1.5365-2.2813-2.8453-3.1619-4.4533a4.4688,4.4688,0,0,1,.5625-5.5409c.5077-.5783-.3378-1.43-.8485-.8485Z" transform="translate(-11.4375 -14.5521)" fill="#fef480"/><path d="M58.4109,54.9621q.8952-.6744,1.7935-1.3447a.6551.6551,0,0,0,.2757-.3586.6128.6128,0,0,0-.06-.4623.6056.6056,0,0,0-.3586-.2758.5835.5835,0,0,0-.4623.0605q-.8982.67-1.7935,1.3447a.6572.6572,0,0,0-.2757.3586.6132.6132,0,0,0,.06.4623.606.606,0,0,0,.3586.2758.5824.5824,0,0,0,.4624-.06Z" transform="translate(-11.4375 -14.5521)" fill="#fef480"/><path d="M64.093,39.2805c1.6588,2.3971,4.0145,4.9284,3.8286,8.0512a1.38,1.38,0,0,1-.2906.93,2.6358,2.6358,0,0,1-1.3559.3617,25.4178,25.4178,0,0,1-5.028.29c-.77-.0644-.7653,1.1359,0,1.2a24.099,24.099,0,0,0,4.5125-.234,4.4627,4.4627,0,0,0,2.7421-.7958,3.4808,3.4808,0,0,0,.5965-2.7958,9.84,9.84,0,0,0-1.3959-3.877c-.7638-1.3093-1.7123-2.4915-2.5731-3.7354-.4365-.6308-1.4771-.0315-1.0362.6056Z" transform="translate(-11.4375 -14.5521)" fill="#fef480"/><path d="M67.5232,51.6038a10.3079,10.3079,0,0,0-2.8745.1509,8.4906,8.4906,0,0,0-2.5842.8269c-.68.3673-.0745,1.4037.6057,1.0361a4.8024,4.8024,0,0,1,.9863-.397,10.7919,10.7919,0,0,1,1.3112-.3088,9.1793,9.1793,0,0,1,2.5555-.1081.6038.6038,0,0,0,.6-.6.6139.6139,0,0,0-.6-.6Z" transform="translate(-11.4375 -14.5521)" fill="#fef480"/><path d="M67.0742,56.087c-.8892-.0025-1.777-.0769-2.6665-.052a5.2592,5.2592,0,0,0-2.568.5815.6.6,0,0,0,.6057,1.0362,2.6785,2.6785,0,0,1,.9344-.3251,7.3365,7.3365,0,0,1,1.1785-.0959c.8392-.0135,1.6769.053,2.5159.0553a.6.6,0,0,0,0-1.2Z" transform="translate(-11.4375 -14.5521)" fill="#fef480"/><path d="M73.5118,47.6275c-.0663.0262-.4871-.0106-.5484-.1338.0051.01.0219.0189.0291.0277.0291.0355.0641.0676.0949.1018.0977.1089.1915.2214.2853.3336.2889.3452.5734.6941.86,1.0411.71.8591,1.4236,1.7206,2.1967,2.5246a6.7183,6.7183,0,0,0,1.1023.9768.6.6,0,0,0,.6056-1.0362c-.0316-.0209-.0622-.043-.0933-.0646-.1173-.0812.0591.0532-.005-.0037-.073-.065-.15-.1259-.2222-.1917-.1745-.1583-.3414-.3248-.5051-.4941-.3971-.4106-.7754-.8393-1.148-1.272-.6817-.7916-1.3345-1.6071-2.0075-2.4059-.2245-.2666-.5493-.7246-.9637-.5607a.6182.6182,0,0,0-.4191.738.6042.6042,0,0,0,.7381.4191Z" transform="translate(-11.4375 -14.5521)" fill="#fef480"/><path d="M77.48,52.1407c.2077,1.2311.3608,2.47.6156,3.6928a13.4253,13.4253,0,0,0,.5212,1.9313,3.08,3.08,0,0,0,.81,1.3659.6185.6185,0,0,0,.8485,0,.6044.6044,0,0,0,0-.8486c-.0447-.0357-.1824-.1821-.1579-.1509.0515.0656-.0546-.0849-.0638-.1-.0282-.0453-.0545-.0918-.08-.1387a3.171,3.171,0,0,1-.257-.6082,15.0927,15.0927,0,0,1-.4971-1.9332c-.2362-1.17-.3837-2.3534-.5822-3.53a.6048.6048,0,0,0-.7381-.419.6139.6139,0,0,0-.419.738Z" transform="translate(-11.4375 -14.5521)" fill="#fef480"/><path d="M79.5572,59.0761a18.9919,18.9919,0,0,0-1.63,4.6264.6.6,0,0,0,1.1571.319,17.92,17.92,0,0,1,1.5094-4.34.6.6,0,0,0-1.0362-.6057Z" transform="translate(-11.4375 -14.5521)" fill="#fef480"/><path d="M79.4809,63.7077a4.6335,4.6335,0,0,1,2.7943-.0178,10.9767,10.9767,0,0,1,2.8764,1.14.6.6,0,0,0,.6057-1.0361c-1.9707-1.1166-4.6746-2.0632-6.8821-1.1218a.6037.6037,0,0,0-.2152.8209.616.616,0,0,0,.8209.2153Z" transform="translate(-11.4375 -14.5521)" fill="#fef480"/><path d="M79.8512,59.5306a9.83,9.83,0,0,1,2.6425.3357,9.42,9.42,0,0,1,2.4344,1.1523c.6537.4153,1.2564-.6228.6056-1.0361a10.56,10.56,0,0,0-2.721-1.2733,11.0966,11.0966,0,0,0-2.9615-.3786.6.6,0,0,0,0,1.2Z" transform="translate(-11.4375 -14.5521)" fill="#fef480"/><path d="M77.9137,50.93c.5408-.3175,1.0732-.65,1.6189-.9588.2634-.1493.53-.2933.8014-.427.1446-.0712.291-.1381.438-.204q.0993-.0426.0234-.0106.0558-.0231.1119-.0455c.0748-.03.15-.0584.2258-.0864a.6133.6133,0,0,0,.4191-.7381.6071.6071,0,0,0-.7381-.419,22.4116,22.4116,0,0,0-3.5061,1.8532.6.6,0,0,0,.6057,1.0362Z" transform="translate(-11.4375 -14.5521)" fill="#fef480"/><path d="M72.0777,43.0924c.0832-.1279.1689-.2541.2583-.3777.0454-.0627.0894-.1285.14-.1875-.0943.1109.01-.0108.0226-.0269l.06-.0735a6.8494,6.8494,0,0,1,.67-.7088q.0873-.08.178-.1557c.03-.0252.0607-.05.0911-.0746.0879-.0719-.0507.0352.0083-.0067.1262-.09.2511-.179.3841-.2586.1307-.0781.2658-.1445.4031-.21.067-.0319-.1055.0381.0018,0,.0352-.0124.07-.0263.105-.0386.0773-.0269.1555-.05.2345-.0712a.6.6,0,1,0-.319-1.1572,6.0586,6.0586,0,0,0-3.2731,2.7411.6047.6047,0,0,0,.2153.8209.6135.6135,0,0,0,.8209-.2152Z" transform="translate(-11.4375 -14.5521)" fill="#fef480"/><path d="M65.8624,37.6975c-.74-2.2844-1.886-6.424,1.1513-7.5558.7172-.2672.4068-1.4275-.319-1.1571-3.8214,1.4239-2.9818,5.97-1.9895,9.0319.2371.7316,1.3962.4186,1.1572-.319Z" transform="translate(-11.4375 -14.5521)" fill="#fef480"/><path d="M67.143,30.1418c6.3331,2.3068,10.6332,7.9227,16.2359,11.4359a29.9408,29.9408,0,0,1,3.92,2.6608A10.561,10.561,0,0,1,89.9954,48.35a67.3832,67.3832,0,0,0,5.2814,10.3009,28.5161,28.5161,0,0,1,2.686,4.6911,8.5237,8.5237,0,0,1,.2656,5.4649,21.5793,21.5793,0,0,1-5.048,9.449c-2.4473,2.6639-4.756,5.3638-7.0239,8.1849-2.1646,2.6928-4.607,5.1879-6.5614,8.0418-3.9,5.6951-6.3944,12.8763-12.16,17.0548-.6193.4489-.0211,1.49.6057,1.0362,5.2561-3.81,7.9027-9.9484,11.1993-15.328a80.279,80.279,0,0,1,6.7368-8.6868c2.504-3.0631,4.932-6.1225,7.6392-9.01a23.8146,23.8146,0,0,0,5.28-8.8052,12.6742,12.6742,0,0,0,.8565-5.193,11.6713,11.6713,0,0,0-1.6289-4.5966c-.9309-1.66-2.0577-3.1989-3.0247-4.8367a59.9081,59.9081,0,0,1-2.827-5.5589,34.1314,34.1314,0,0,0-2.5012-5.3573,12.0456,12.0456,0,0,0-3.1476-2.9824c-1.54-1.0644-3.1865-1.9594-4.7013-3.0623-1.647-1.1991-3.18-2.5465-4.731-3.865-2.9693-2.5246-6.0265-4.9578-9.7289-6.3064-.7268-.2647-1.04.8945-.319,1.1571Z" transform="translate(-11.4375 -14.5521)" fill="#fef480"/><path d="M56.6117,92.0334C55,91.0051,53.7552,89.3936,51.7461,89.16c-2.1535-.2507-4.1138.9058-6.08,1.5812-4.0931,1.4058-8.6018,1.1074-12.5248,3.0823-.69.3473-.083,1.3828.6057,1.0361,3.5869-1.8057,7.7473-1.6263,11.5413-2.74,1.8469-.5422,3.614-1.6582,5.5645-1.7871,2.1738-.1438,3.4836,1.672,5.1535,2.7374.6529.4166,1.2555-.6216.6056-1.0362Z" transform="translate(-11.4375 -14.5521)" fill="#fef480"/><path d="M54.5161,90.0129a10.1706,10.1706,0,0,0,2.2306-.1088,2.5627,2.5627,0,0,1,1.95.4759.6048.6048,0,0,0,.8209-.2152.6131.6131,0,0,0-.2153-.8209,3.6523,3.6523,0,0,0-2.431-.65,11.6827,11.6827,0,0,1-2.355.119.6031.6031,0,0,0-.6.6.6151.6151,0,0,0,.6.6Z" transform="translate(-11.4375 -14.5521)" fill="#fef480"/><path d="M33.8922,95.39c3.5233-.047,4.9909,5.0578,6.0143,7.6685,1.7878,4.5609,3.6319,9.3515,2.5685,14.3448-.2459,1.1546-.8259,2.1681-2.136,2.2412a3.46,3.46,0,0,1-2.8167-1.759c-1.3585-1.8648-2.527-3.9478-3.7455-5.909a23.3508,23.3508,0,0,1-3.6277-9.51c-.2042-1.5776-1.0181-7.7246,2.0145-7.0977.7537.1557,1.076-1.0007.319-1.1572-3.5369-.731-3.8327,3.65-3.7236,6.1088a23.53,23.53,0,0,0,3.3384,11.2021c.7691,1.3079,1.6115,2.57,2.43,3.8474.7428,1.1585,1.3878,2.41,2.2376,3.4939,1.3,1.6593,3.6017,2.7752,5.5113,1.31,1.6924-1.2988,1.6845-4.1962,1.6749-6.1091a26.2461,26.2461,0,0,0-2.2951-9.8835c-1.4359-3.4391-3.0225-10.0535-7.7641-9.99a.6.6,0,0,0,0,1.2Z" transform="translate(-11.4375 -14.5521)" fill="#fef480"/><path d="M41.8128,120.4153c1.8221-1.0211,3.9046-1.3654,5.86-2.04,2.0993-.7238,4.0412-1.8772,6.2234-2.3581,2.3213-.5115,4.7092-.6755,7.0529-1.0562,2.2436-.3645,4.2929-1.3744,6.5-1.8789.7525-.172.434-1.3293-.319-1.1571-2.2875.5228-4.4045,1.5488-6.7343,1.9155-2.3962.3771-4.8744.5123-7.2292,1.1169-2.1591.5542-4.1016,1.7131-6.2172,2.3943a30.48,30.48,0,0,0-5.7426,2.0272.6.6,0,0,0,.6057,1.0362Z" transform="translate(-11.4375 -14.5521)" fill="#fef480"/></g></svg>