<svg id="Livello_1" data-name="Livello 1" xmlns="http://www.w3.org/2000/svg" width="210.55" height="71.0097" viewBox="0 0 210.55 71.0097"><path d="M112.0883,42.1917c6.2311,0,6.2311,4,12.4622,4s6.2317-4,12.4634-4,6.2319,4,12.4638,4c6.23,0,6.23-4,12.46-4,6.2315,0,6.2315,4,12.463,4,6.2336,0,6.2336-4,12.4673-4,6.2316,0,6.2316,4,12.4633,4,6.2359,0,6.2359-4,12.4719-4s6.2359,4,12.4719,4" transform="translate(-13.7248 -37.2396)" fill="none" stroke="#fef480" stroke-miterlimit="10" stroke-width="1.5"/><g id="Eyes"><path d="M20.3933,69.682A43.5357,43.5357,0,0,0,32.5839,81.5635,48.02,48.02,0,0,0,45.395,87.225c9.2743,2.6937,18.8658,2.7047,28.307,1.11A48.6888,48.6888,0,0,0,87.5811,83.53l3.0358-2.3454a11.2437,11.2437,0,0,0,3.1015-4.8274,15.1548,15.1548,0,0,0,.7561-9.7668c-2.69-10.9-11.4041-20.3012-21.583-24.7667A52.3387,52.3387,0,0,0,64.1027,38.58a51.0829,51.0829,0,0,0-9.2621-1.3031c-7.2552-.3627-14.227,1.9412-20.6973,4.9613-5.8681,2.739-9.9768,7.2153-13.75,12.3019a11.1644,11.1644,0,0,0-1.78,5.577,11.3627,11.3627,0,0,0,.2679,5.9814,15.2988,15.2988,0,0,0,6.8934,8.9645c3.4812,1.8393,7.6985,2.7612,11.5584,1.5121l3.5832-1.5121a15.0742,15.0742,0,0,0,5.3813-5.3813c.0751-.1013.1523-.2011.2294-.3009l-2.3455,3.0358a25.7452,25.7452,0,0,1,4.385-4.5116l-3.0358,2.3455a24.684,24.684,0,0,1,4.937-2.6342l-3.5832,1.5121a32.08,32.08,0,0,1,7.9225-2.2257l-3.9876.5358a25.374,25.374,0,0,1,6.3195.0509l-3.9876-.5358a32.3557,32.3557,0,0,1,7.864,2.1512L57.4319,67.593a31.5777,31.5777,0,0,1,6.8478,3.96l-3.0358-2.3454a26.2743,26.2743,0,0,1,4.5473,4.52l-2.3454-3.0358a21.7649,21.7649,0,0,1,2.68,4.5894l-1.5121-3.5832a20.8378,20.8378,0,0,1,.9326,2.8674l6.8934-16.94q-.9924.5058-2.016.9417l3.5832-1.5122a39.24,39.24,0,0,1-9.8218,2.5834l3.9876-.5358a48.3168,48.3168,0,0,1-12.4879-.0208l3.9876.5358a42.144,42.144,0,0,1-10.48-2.7992l3.5832,1.5121a31.724,31.724,0,0,1-6.9022-3.993l3.0359,2.3454A25.4425,25.4425,0,0,1,44.6635,52.47l2.3455,3.0358q-.3659-.4758-.7116-.9652a11.3359,11.3359,0,0,0-3.8634-4.2085,11.2972,11.2972,0,0,0-5.1011-2.6849,15.33,15.33,0,0,0-11.5584,1.5122c-3.2028,2.0649-6.0222,5.14-6.8934,8.9644C18.0291,61.8645,18.09,66.4222,20.3933,69.682Z" transform="translate(-13.7248 -37.2396)"/><path d="M49.3734,38.1029a23.2318,23.2318,0,0,0-6.6334,2.97,26.7718,26.7718,0,0,0-7.5112,7.4863,27.7278,27.7278,0,0,0-3.0643,6.4006,17.6573,17.6573,0,0,0-.922,3.4915,30.22,30.22,0,0,0,.4419,13.7835C33.258,77.6436,36.68,83.0605,41.8236,85.7152A15.8658,15.8658,0,0,0,53.382,87.2273a11.297,11.297,0,0,0,5.1011-2.6848,11.3354,11.3354,0,0,0,3.8634-4.2086c1.8393-3.4812,2.7612-7.6984,1.5121-11.5583-1.1677-3.6085-3.4191-7.1713-6.8934-8.9645a6.0118,6.0118,0,0,1-.7682-.4724l3.0359,2.3455a6.46,6.46,0,0,1-.9742-.9644l2.3455,3.0358a8.8735,8.8735,0,0,1-1.084-1.883l1.5121,3.5831a13.7679,13.7679,0,0,1-.8406-3.211l.5358,3.9876a14.7566,14.7566,0,0,1-.0208-3.7939l-.5358,3.9876A16.5341,16.5341,0,0,1,61.1966,62.68l-1.5121,3.5832a12.866,12.866,0,0,1,1.6083-2.7708l-2.3454,3.0358a11.0286,11.0286,0,0,1,1.6553-1.6609l-3.0358,2.3454a10.53,10.53,0,0,1,2.0509-1.2258l-3.5832,1.5122a12.4721,12.4721,0,0,1,1.314-.4674,15.6358,15.6358,0,0,0,8.9645-6.8934,11.1637,11.1637,0,0,0,1.78-5.5769,11.3627,11.3627,0,0,0-.2679-5.9814c-1.1746-3.63-3.4238-7.1314-6.8934-8.9645a15.4165,15.4165,0,0,0-11.5584-1.5121Z" transform="translate(-13.7248 -37.2396)"/><path d="M52.7309,62.7273a13.7029,13.7029,0,0,1,1.6018,2.8046l-1.5121-3.5832a15.5044,15.5044,0,0,1,1.0087,3.7773l-.5358-3.9876a15.5428,15.5428,0,0,1-.0008,3.8679l.5358-3.9876a13.3424,13.3424,0,0,1-.8594,3.2074l1.5122-3.5832a10.9436,10.9436,0,0,1-1.3,2.2538l2.3455-3.0358a9.4949,9.4949,0,0,1-1.5259,1.5458l3.0358-2.3454a9.0236,9.0236,0,0,1-1.9194,1.1228L58.7,59.272a9.92,9.92,0,0,1-2.0891.5808A11.2967,11.2967,0,0,0,51.51,62.5377a11.3357,11.3357,0,0,0-3.8633,4.2085,11.1644,11.1644,0,0,0-1.78,5.577,11.3627,11.3627,0,0,0,.2679,5.9814c1.1746,3.63,3.4238,7.1313,6.8934,8.9644l3.5832,1.5122a15.1064,15.1064,0,0,0,7.9752,0A22.0568,22.0568,0,0,0,76.23,82.28a25.6663,25.6663,0,0,0,6.3225-11.5442A31.9784,31.9784,0,0,0,82.62,56.89a30.977,30.977,0,0,0-2.3835-6.5,14.1591,14.1591,0,0,0-1.6018-2.8046,11.3362,11.3362,0,0,0-3.8634-4.2086,11.297,11.297,0,0,0-5.1011-2.6848,11.3627,11.3627,0,0,0-5.9814-.2679,11.1637,11.1637,0,0,0-5.5769,1.78c-3.2029,2.0649-6.0223,5.14-6.8934,8.9645l-.5359,3.9876a14.9316,14.9316,0,0,0,2.048,7.5708Z" transform="translate(-13.7248 -37.2396)"/><path d="M19.353,58.9225a9.405,9.405,0,0,1-.647,2.3453l1.5122-3.5832A9.2877,9.2877,0,0,1,19.0944,59.64L21.44,56.6045A7.1271,7.1271,0,0,1,20.2081,57.86l3.0358-2.3454a5.4874,5.4874,0,0,1-1.1779.6918l3.5832-1.5121a4.8946,4.8946,0,0,1-.9009.2688,11.2972,11.2972,0,0,0-5.1011,2.6849,11.3357,11.3357,0,0,0-3.8633,4.2085,11.1644,11.1644,0,0,0-1.78,5.577,11.3617,11.3617,0,0,0,.268,5.9814l1.5121,3.5832a15.0739,15.0739,0,0,0,5.3813,5.3812l3.5831,1.5122a15.1064,15.1064,0,0,0,7.9752,0,4.7754,4.7754,0,0,0,.5816-.15c.081-.0268.1607-.0568.24-.0872,1.1827-.4508,2.5865-1.0574,3.74-1.5774a5.4131,5.4131,0,0,0,.9614-.5548c1.0646-.7735,2.1448-1.6283,3.174-2.4492.0793-.0632.1585-.1261.2354-.1922q.2163-.1856.4154-.39.2016-.2064.3857-.4288c.9157-1.102,1.805-2.2674,2.6482-3.4246a8.6947,8.6947,0,0,0,.6253-.9952,44.1468,44.1468,0,0,0,1.9716-4.5664,9.2238,9.2238,0,0,0,.5784-2.1787,11.3624,11.3624,0,0,0,.2679-5.9813,11.1627,11.1627,0,0,0-1.78-5.577,11.3354,11.3354,0,0,0-3.8634-4.2086,11.296,11.296,0,0,0-5.1011-2.6848L33.8171,47.91a14.931,14.931,0,0,0-7.5707,2.048l-3.0359,2.3454a14.9857,14.9857,0,0,0-3.8575,6.6191Z" transform="translate(-13.7248 -37.2396)"/><path d="M27.4956,74.18l.0155.1031-.5359-3.9876a5.3687,5.3687,0,0,1,.0061,1.3176l.5359-3.9876a6.181,6.181,0,0,1-.4234,1.5366l1.5121-3.5832a8.127,8.127,0,0,1-1.0282,1.7249l2.3455-3.0358a10.2357,10.2357,0,0,1-1.6607,1.668,11.2437,11.2437,0,0,0-3.1015,4.8274,11.2964,11.2964,0,0,0-1.2919,5.7792,11.2964,11.2964,0,0,0,1.2919,5.7792,11.2431,11.2431,0,0,0,3.1015,4.8274l3.0358,2.3455a14.9305,14.9305,0,0,0,7.5708,2.0479l3.9876-.5358a14.9856,14.9856,0,0,0,6.619-3.8576,10.2125,10.2125,0,0,0,1.3743-1.318c1.0186-1.1857,1.9706-2.4329,2.872-3.71a7.9291,7.9291,0,0,0,.5289-.8574q.1057-.2.1987-.4059c.5818-1.2921,1.1633-2.6271,1.6655-3.9533a5.8742,5.8742,0,0,0,.2652-.91q.0249-.1224.044-.2458c.2083-1.3373.4117-2.79.557-4.1362.0181-.1669.0342-.333.0389-.5009q.0063-.2288-.0086-.4574c-.0967-1.492-.3664-2.9767-.5877-4.45a11.297,11.297,0,0,0-2.6848-5.1011A11.3354,11.3354,0,0,0,49.5305,57.24a11.1637,11.1637,0,0,0-5.577-1.78,11.3623,11.3623,0,0,0-5.9813.2679L34.389,57.24a15.0742,15.0742,0,0,0-5.3813,5.3813l-1.5121,3.5832a15.1044,15.1044,0,0,0,0,7.9752Z" transform="translate(-13.7248 -37.2396)"/><path d="M38.4546,73.8377a15.8577,15.8577,0,0,1,.0121,4.0488l.5358-3.9876a11.3075,11.3075,0,0,1-.72,2.7446L39.795,73.06q-.0447.107-.0922.2127a11.1638,11.1638,0,0,0-1.78,5.577,11.3617,11.3617,0,0,0,.268,5.9814,11.2965,11.2965,0,0,0,2.6848,5.1011,11.3365,11.3365,0,0,0,4.2085,3.8633l3.5832,1.5122a15.1064,15.1064,0,0,0,7.9752,0l3.5832-1.5122a15.0739,15.0739,0,0,0,5.3813-5.3812,33.2429,33.2429,0,0,0,2.0794-5.2466,42.4191,42.4191,0,0,0,.8239-5.6407,15.845,15.845,0,0,0-.0556-3.69,11.2974,11.2974,0,0,0-1.2919-5.7792,11.2446,11.2446,0,0,0-3.1015-4.8274A11.2437,11.2437,0,0,0,59.2338,60.13a11.2964,11.2964,0,0,0-5.7792-1.2919l-3.9876.5358a14.9865,14.9865,0,0,0-6.619,3.8576l-2.3455,3.0358a14.9305,14.9305,0,0,0-2.0479,7.5708Z" transform="translate(-13.7248 -37.2396)"/><path d="M51.7961,78.5251a14.036,14.036,0,0,1,.7067,2.7731l-.5358-3.9876a10.785,10.785,0,0,1-.02,2.7112l.5359-3.9876c-.0833.6064-.2042,1.2048-.3467,1.8a11.3627,11.3627,0,0,0-.2679,5.9814,11.1643,11.1643,0,0,0,1.78,5.577,11.3359,11.3359,0,0,0,3.8634,4.2085,11.2972,11.2972,0,0,0,5.1011,2.6849l3.9876.5358a14.9306,14.9306,0,0,0,7.5708-2.048l3.0358-2.3454a14.9871,14.9871,0,0,0,3.8576-6.619,50.8289,50.8289,0,0,0,.8978-5.9073,11.0042,11.0042,0,0,0,.0739-1.8218,34.8391,34.8391,0,0,0-.76-5.644,15.754,15.754,0,0,0-.552-1.8863A11.2967,11.2967,0,0,0,78.04,65.4488a11.3357,11.3357,0,0,0-4.2085-3.8633,11.1644,11.1644,0,0,0-5.577-1.78,11.3627,11.3627,0,0,0-5.9814.2679L58.69,61.5855a15.0747,15.0747,0,0,0-5.3813,5.3812L51.7961,70.55a15.1064,15.1064,0,0,0,0,7.9752Z" transform="translate(-13.7248 -37.2396)"/><path d="M69.7336,85.1819l.0722.0557L66.77,82.8922a11.2644,11.2644,0,0,1,1.968,1.8981l-2.3455-3.0358a6.44,6.44,0,0,1,.8222,1.3893l-1.5122-3.5832a5.3451,5.3451,0,0,1,.3386,1.2369L65.5052,76.81a5.5985,5.5985,0,0,1,.0007,1.3907l.5359-3.9876c-.03.2179-.0706.4327-.12.647a11.3617,11.3617,0,0,0-.268,5.9814,11.1644,11.1644,0,0,0,1.78,5.577,11.3357,11.3357,0,0,0,3.8633,4.2085,11.2982,11.2982,0,0,0,5.1011,2.6849l3.9876.5358A14.931,14.931,0,0,0,87.9567,91.8l3.0358-2.3455a14.9856,14.9856,0,0,0,3.8576-6.619,29.5554,29.5554,0,0,0,.6941-5.0485,27.2916,27.2916,0,0,0-.5748-4.9644,5.3875,5.3875,0,0,0-.241-.984,29.026,29.026,0,0,0-1.8844-4.4017,6.982,6.982,0,0,0-.5475-.8237c-.8419-1.11-1.6691-2.2559-2.5741-3.3169q-.1773-.2077-.3675-.4043a40.72,40.72,0,0,0-4.48-3.6139,11.1644,11.1644,0,0,0-5.577-1.78,11.3627,11.3627,0,0,0-5.9814.2679,11.2972,11.2972,0,0,0-5.1011,2.6849,11.3359,11.3359,0,0,0-3.8634,4.2085L62.84,68.2422a15.1064,15.1064,0,0,0,0,7.9752l1.5121,3.5832a15.0742,15.0742,0,0,0,5.3813,5.3813Z" transform="translate(-13.7248 -37.2396)"/><path d="M109.4947,81.2879c.2027-.3053.4119-.5983.6339-.89l-2.3455,3.0358a18.86,18.86,0,0,1,3.048-2.9471l-3.0358,2.3454a32.0827,32.0827,0,0,1,6.8246-3.9267l-3.5832,1.5122a31.432,31.432,0,0,1,7.31-2l-3.9876.5358a31.1818,31.1818,0,0,1,8.07-.0417l-3.9876-.5358a26,26,0,0,1,6.0767,1.6136l-3.5832-1.5122a26.5243,26.5243,0,0,1,5.5525,3.2579l-3.0358-2.3455a29.9215,29.9215,0,0,1,5.2545,5.232L126.36,81.5854a24.2008,24.2008,0,0,1,2.861,4.8058L127.709,82.808q.1525.355.29.7161a11.2982,11.2982,0,0,0,2.6849,5.1011,11.3357,11.3357,0,0,0,4.2085,3.8633,15.3163,15.3163,0,0,0,11.5584,1.5121c3.63-1.1745,7.1313-3.4238,8.9645-6.8934,1.77-3.351,2.962-7.8709,1.5121-11.5583a38.82,38.82,0,0,0-3.94-8.1148,48.0874,48.0874,0,0,0-5.6751-6.96,43.529,43.529,0,0,0-15.4472-9.6621,39.76,39.76,0,0,0-9.4365-1.9009,30.9619,30.9619,0,0,0-6.2931-.1552,51.3849,51.3849,0,0,0-9.699,1.559,51.132,51.132,0,0,0-8.6642,3.4656A36.2031,36.2031,0,0,0,83.5905,66.1463c-2.0806,3.1326-2.487,8.0182-1.5121,11.5584a15.2984,15.2984,0,0,0,6.8934,8.9645C92.453,88.5085,96.67,89.43,100.53,88.1813a16.4775,16.4775,0,0,0,8.9645-6.8934Z" transform="translate(-13.7248 -37.2396)"/><path d="M131.8568,68.93c-.3058.2574-.6146.5078-.9295.7541l3.0358-2.3454a28.5609,28.5609,0,0,1-5.9787,3.4228l3.5832-1.5121a36.7037,36.7037,0,0,1-9.0322,2.4214l3.9876-.5359a32.7812,32.7812,0,0,1-8.3741-.0125l3.9876.5359a30.0156,30.0156,0,0,1-7.214-1.9759l3.5832,1.5121a42.9175,42.9175,0,0,1-9.0006-5.2495l3.0358,2.3455a33.7907,33.7907,0,0,1-5.359-5.2184,11.2437,11.2437,0,0,0-4.8274-3.1015,11.2964,11.2964,0,0,0-5.7792-1.2919A15.2646,15.2646,0,0,0,85.9687,63.072c-2.6242,2.8586-4.5724,6.6117-4.3934,10.6066l.5358,3.9876a14.9856,14.9856,0,0,0,3.8576,6.619A46.5829,46.5829,0,0,0,98.874,94.855a61.6771,61.6771,0,0,0,9.304,4.2437,47.5242,47.5242,0,0,0,27.4839.4357,53.2128,53.2128,0,0,0,9.3257-3.7276,42.5858,42.5858,0,0,0,8.0824-5.6637c2.7911-2.3494,4.3934-7.0915,4.3934-10.6066A15.2642,15.2642,0,0,0,153.07,68.93c-2.8586-2.6242-6.6117-4.5724-10.6066-4.3934l-3.9876.5358a14.9856,14.9856,0,0,0-6.619,3.8576Z" transform="translate(-13.7248 -37.2396)"/><path d="M83.486,71.3666c-.1588.4035-.3188.8066-.4871,1.2063L84.511,68.99a10.2667,10.2667,0,0,1-1.2433,2.28l2.3455-3.0358a5.5,5.5,0,0,1-.945.9466l3.0359-2.3454a6.6478,6.6478,0,0,1-1.4125.8092l3.5832-1.5121a12.514,12.514,0,0,1-1.8792.6021,11.297,11.297,0,0,0-5.1011,2.6848,11.336,11.336,0,0,0-3.8633,4.2086,11.1638,11.1638,0,0,0-1.78,5.577,11.3614,11.3614,0,0,0,.268,5.9813l1.5121,3.5832a15.0742,15.0742,0,0,0,5.3813,5.3813l3.5831,1.5121a15.1044,15.1044,0,0,0,7.9752,0c.3669-.09.7314-.1895,1.09-.3073q.2418-.0795.48-.17c1.3334-.5109,2.654-1.0872,3.9583-1.6653a7.3249,7.3249,0,0,0,.7833-.399q.175-.1043.3427-.22c.05-.0348.0992-.0706.1483-.1068,1.0324-.76,2.1606-1.6282,3.155-2.4368a5.7,5.7,0,0,0,.56-.514q.1287-.1368.2475-.2825c.87-1.0646,1.73-2.178,2.5408-3.2888a8.6658,8.6658,0,0,0,.8159-1.4158c.6874-1.4538,1.2724-2.9583,1.89-4.4411.1483-.3558.29-.7143.4311-1.073a11.3617,11.3617,0,0,0,.268-5.9814,11.1638,11.1638,0,0,0-1.78-5.5769,11.336,11.336,0,0,0-3.8633-4.2086,11.297,11.297,0,0,0-5.1011-2.6848L97.95,60.3541a14.9311,14.9311,0,0,0-7.5708,2.048l-3.0358,2.3454a14.9859,14.9859,0,0,0-3.8576,6.6191Z" transform="translate(-13.7248 -37.2396)"/><path d="M91.2787,82.0926a8.7378,8.7378,0,0,1-.0508,1.7965l.5358-3.9876a8.4958,8.4958,0,0,1-.56,2.0489l1.5121-3.5832a8.0094,8.0094,0,0,1-.9816,1.6894L94.08,77.0208a7.7278,7.7278,0,0,1-1.3557,1.3509L95.76,76.0263q-.1764.1328-.3584.2574A11.3365,11.3365,0,0,0,91.193,80.147a11.2977,11.2977,0,0,0-2.6849,5.1011A11.3627,11.3627,0,0,0,88.24,91.23a11.1644,11.1644,0,0,0,1.78,5.577l2.3454,3.0358a14.9861,14.9861,0,0,0,6.619,3.8576l3.9876.5358a14.9305,14.9305,0,0,0,7.5708-2.0479,36.6425,36.6425,0,0,0,3.8528-2.9841,7.33,7.33,0,0,0,.7671-.8058c.8883-1.088,1.7755-2.23,2.6-3.3667q.1674-.2307.317-.4737a8.0289,8.0289,0,0,0,.4994-.9549,24.6409,24.6409,0,0,0,2.074-5.4767,43.2557,43.2557,0,0,0,.64-4.9369,8.6825,8.6825,0,0,0-.0155-1.0964,11.2964,11.2964,0,0,0-1.2919-5.7792,13.4887,13.4887,0,0,0-7.9289-7.9289,11.2964,11.2964,0,0,0-5.7792-1.2919l-3.9876.5358a14.9856,14.9856,0,0,0-6.619,3.8576l-2.3455,3.0358a14.9305,14.9305,0,0,0-2.0479,7.5708Z" transform="translate(-13.7248 -37.2396)"/><path d="M104.2007,90.2173a4.867,4.867,0,0,1,.2035.8424l-.5358-3.9876a6.6175,6.6175,0,0,1-.01,1.6908l.5359-3.9876a10.5571,10.5571,0,0,1-.7495,2.6543l1.5121-3.5832a8.1368,8.1368,0,0,1-.9747,1.7538l2.3454-3.0358q-.0309.04-.0631.0783a11.2437,11.2437,0,0,0-3.1015,4.8274,11.2964,11.2964,0,0,0-1.2919,5.7792,11.2964,11.2964,0,0,0,1.2919,5.7792,11.2437,11.2437,0,0,0,3.1015,4.8274l3.0358,2.3455a14.9315,14.9315,0,0,0,7.5708,2.0479l3.9876-.5358a14.9865,14.9865,0,0,0,6.619-3.8576,24.7674,24.7674,0,0,0,3.089-4.2324c.7072-1.4049,1.2694-2.8926,1.86-4.3463.1332-.328.2544-.66.3579-.9989a9.9225,9.9225,0,0,0,.2569-1.0265c.1574-.82.2411-1.69.3492-2.4951.1065-.792.2646-1.6664.317-2.4969a6.212,6.212,0,0,0-.0266-1.0909,24.4469,24.4469,0,0,0-.7522-4.9268,11.2975,11.2975,0,0,0-2.6848-5.1011,11.336,11.336,0,0,0-4.2086-3.8633,11.1638,11.1638,0,0,0-5.577-1.78,11.3627,11.3627,0,0,0-5.9814.2679l-3.5831,1.5122a15.0739,15.0739,0,0,0-5.3813,5.3812l-1.5121,3.5832a15.1044,15.1044,0,0,0,0,7.9752Z" transform="translate(-13.7248 -37.2396)"/><path d="M116.79,89.3846a14.0023,14.0023,0,0,1,.6365,2.6092l-.5358-3.9876a9.4352,9.4352,0,0,1,.0127,2.4179l.5358-3.9876a7.42,7.42,0,0,1-.4925,1.7924l1.5121-3.5832c-.0518.1176-.1055.2333-.1618.3488a11.1637,11.1637,0,0,0-1.78,5.5769,11.3627,11.3627,0,0,0,.2679,5.9814,11.2972,11.2972,0,0,0,2.6849,5.1011,11.3351,11.3351,0,0,0,4.2085,3.8634l3.5832,1.5121a15.1064,15.1064,0,0,0,7.9752,0l3.5832-1.5121a15.075,15.075,0,0,0,5.3813-5.3813,38.5073,38.5073,0,0,0,1.8549-4.4031,6.9769,6.9769,0,0,0,.252-.9582,43.826,43.826,0,0,0,.6471-4.8361,8.688,8.688,0,0,0,.0177-.9709,34.9529,34.9529,0,0,0-.7584-5.7737,14.75,14.75,0,0,0-.4961-1.7846,11.2972,11.2972,0,0,0-2.6849-5.1011,11.3357,11.3357,0,0,0-4.2085-3.8633,11.1644,11.1644,0,0,0-5.577-1.78,11.3617,11.3617,0,0,0-5.9814.268l-3.5832,1.5121a15.0755,15.0755,0,0,0-5.3813,5.3812L116.79,81.4094a15.1064,15.1064,0,0,0,0,7.9752Z" transform="translate(-13.7248 -37.2396)"/><path d="M128.1568,88.1759a6.585,6.585,0,0,1,.4529.8774L127.0976,85.47a9.7492,9.7492,0,0,1,.6349,2.3712l-.5358-3.9876a9.074,9.074,0,0,1,.03,2.2933l.5358-3.9876a5.5492,5.5492,0,0,1-.3568,1.3763l1.5122-3.5832a3.744,3.744,0,0,1-.3826.6787,11.1638,11.1638,0,0,0-1.78,5.577,11.3627,11.3627,0,0,0,.2679,5.9814,11.2977,11.2977,0,0,0,2.6849,5.1011,11.3365,11.3365,0,0,0,4.2085,3.8633l3.5832,1.5122a15.1064,15.1064,0,0,0,7.9752,0l3.5832-1.5122a15.0739,15.0739,0,0,0,5.3813-5.3812,3.51,3.51,0,0,0,.2494-.3992c.0344-.065.0658-.1313.0972-.1977.5259-1.1119,1.1422-2.6,1.5825-3.7483a5.359,5.359,0,0,0,.26-.9026,34.9,34.9,0,0,0,.6513-4.9861,8.8775,8.8775,0,0,0-.02-1.1026c-.13-1.6721-.3686-3.34-.6653-4.99a9.8648,9.8648,0,0,0-.2528-1.0662,40.7256,40.7256,0,0,0-1.8275-4.4681,6.9159,6.9159,0,0,0-.4529-.8774,11.3365,11.3365,0,0,0-3.8633-4.2085,13.4709,13.4709,0,0,0-11.0825-2.9528,11.1641,11.1641,0,0,0-5.577,1.78l-3.0358,2.3454a14.9861,14.9861,0,0,0-3.8576,6.619l-.5358,3.9876a14.9305,14.9305,0,0,0,2.0479,7.5708Z" transform="translate(-13.7248 -37.2396)"/><path d="M114.55,72.7883c.4261.7983.822,1.6064,1.1819,2.4366L114.22,71.6417a20.1876,20.1876,0,0,1,1.3791,4.83l-.5358-3.9876a17.4344,17.4344,0,0,1,.0169,4.27l.5358-3.9876a21.0616,21.0616,0,0,1-1.4615,5.159l1.5121-3.5832c-.6214,1.4457-1.3441,2.84-2.0959,4.2211a15.7223,15.7223,0,0,0-1.5121,11.5583,11.2972,11.2972,0,0,0,2.6849,5.1011,11.3351,11.3351,0,0,0,4.2085,3.8634c3.4812,1.8393,7.6985,2.7613,11.5584,1.5121a15.3048,15.3048,0,0,0,8.9645-6.8934,71.1749,71.1749,0,0,0,3.9409-8.6324,20.1735,20.1735,0,0,0,.88-2.9023,40.9467,40.9467,0,0,0,.8974-6.7081,16.2237,16.2237,0,0,0-.0737-2.512,45.2524,45.2524,0,0,0-.9637-6.3414,40.8445,40.8445,0,0,0-3.7016-8.9627,15.3183,15.3183,0,0,0-8.9645-6.8934,11.3627,11.3627,0,0,0-5.9814-.2679,11.1643,11.1643,0,0,0-5.577,1.78c-3.2028,2.0649-6.0222,5.14-6.8934,8.9645A16.16,16.16,0,0,0,114.55,72.7883Z" transform="translate(-13.7248 -37.2396)"/><path d="M121.1366,73.3636a10.3876,10.3876,0,0,1-1.4347-1.5033l2.3454,3.0358a9.9582,9.9582,0,0,1-1.08-1.8868l1.5121,3.5832a11.2958,11.2958,0,0,1-.7077-2.71l.5358,3.9876a16.1926,16.1926,0,0,1,.0485-3.8871l-.5358,3.9876a17.828,17.828,0,0,1,1.1232-4.4162l-1.5121,3.5832a13.912,13.912,0,0,1,1.7526-3.0266l-2.3454,3.0359a9.54,9.54,0,0,1,1.4671-1.4681L119.27,78.0247a7.0547,7.0547,0,0,1,1.2811-.7578l-3.5832,1.5121a6.5339,6.5339,0,0,1,.9359-.2955,11.298,11.298,0,0,0,5.1011-2.6848,11.336,11.336,0,0,0,3.8633-4.2086,11.1638,11.1638,0,0,0,1.78-5.577,11.3613,11.3613,0,0,0-.268-5.9813c-1.1745-3.63-3.4238-7.1314-6.8934-8.9645a16.1034,16.1034,0,0,0-11.5583-1.5121,21.3832,21.3832,0,0,0-9.0348,5.0689,22.798,22.798,0,0,0-4.3835,5.45,25.9643,25.9643,0,0,0-3.4882,9.0583,52.3887,52.3887,0,0,0-.8,6.36,32.5774,32.5774,0,0,0,.6945,6.8591,10.4892,10.4892,0,0,0,.3622,1.4826,32.421,32.421,0,0,0,2.1261,5.04,20.0343,20.0343,0,0,0,4.5184,5.7032,11.2433,11.2433,0,0,0,4.8274,3.1016,13.5733,13.5733,0,0,0,11.5584,0,11.2439,11.2439,0,0,0,4.8274-3.1016c2.6241-2.8586,4.5723-6.6116,4.3934-10.6066-.1705-3.8057-1.4014-8.026-4.3934-10.6066Z" transform="translate(-13.7248 -37.2396)"/></g><g id="Eyes-2" data-name="Eyes"><path d="M32.8273,62.4141c8,11.3241,24.15,14.2136,37.0466,12.0355a36.2467,36.2467,0,0,0,10.4392-3.3532.609.609,0,0,0,.2758-.6776c-1.862-7.5456-8.0173-13.1549-14.9653-16.1609a31.1848,31.1848,0,0,0-10.783-2.5807,28.7158,28.7158,0,0,0-13.4294,2.9953,22.0962,22.0962,0,0,0-8.5839,7.1359c-.4605.6207.5806,1.22,1.0361.6057a19.9417,19.9417,0,0,1,6.6268-5.95,29.0384,29.0384,0,0,1,13.0735-3.616,29.5045,29.5045,0,0,1,19.6834,7.7186,20.6858,20.6858,0,0,1,6.1846,10.1713l.2758-.6776a39.4643,39.4643,0,0,1-18.5351,3.8376,40.184,40.184,0,0,1-19.28-4.9231,25.0389,25.0389,0,0,1-8.0287-7.1663C33.4213,61.1826,32.38,61.7814,32.8273,62.4141Z" transform="translate(-13.7248 -37.2396)" fill="#fef480"/><path d="M53.2015,51.9885c-4.6842,1.38-7.3913,5.6207-8.0734,10.29-.5415,3.7069.2793,9.1008,3.9635,11.0023.6852.3537,1.2929-.6814.6057-1.0361-3.2408-1.6727-3.8775-6.6108-3.3809-9.8509.64-4.1736,2.9923-8.0073,7.2041-9.2486a.6.6,0,0,0-.319-1.1571Z" transform="translate(-13.7248 -37.2396)" fill="#fef480"/><path d="M65.1649,55.4593c4.25,5.7186,3.7108,16.8736-4.7258,18.2791-.76.1266-.4376,1.2832.319,1.1572,9.1762-1.5288,10.14-13.7224,5.4429-20.042-.4555-.6128-1.4976-.0151-1.0361.6057Z" transform="translate(-13.7248 -37.2396)" fill="#fef480"/><path d="M32.7453,62.1112A12.6235,12.6235,0,0,1,31.4746,66.25a4.4914,4.4914,0,0,1-2.8982,2.599c-.7567.1505-.4364,1.3073.319,1.1572a5.5543,5.5543,0,0,0,3.571-3.0668,14.1779,14.1779,0,0,0,1.4789-4.828c.0431-.3217-.3066-.6-.6-.6a.6157.6157,0,0,0-.6.6Z" transform="translate(-13.7248 -37.2396)" fill="#fef480"/><path d="M41.3812,70.3514c.3454,2.3-1.24,4.41-2.9364,5.7665a.6038.6038,0,0,0,0,.8485.6145.6145,0,0,0,.8486,0c2.0838-1.6662,3.6578-4.1849,3.2449-6.934a.6041.6041,0,0,0-.7381-.4191.6153.6153,0,0,0-.419.7381Z" transform="translate(-13.7248 -37.2396)" fill="#fef480"/><path d="M52.8546,73.8377a12.7528,12.7528,0,0,1-.7178,6.7032.6191.6191,0,0,0,.2152.821.6045.6045,0,0,0,.8209-.2153,13.8071,13.8071,0,0,0,.8817-7.3089.62.62,0,0,0-.6-.6.6034.6034,0,0,0-.6.6Z" transform="translate(-13.7248 -37.2396)" fill="#fef480"/><path d="M65.6817,74.697a12.0213,12.0213,0,0,1,.7545,3.3832,12.6616,12.6616,0,0,1-.4145,3.582c-.18.7506.977,1.0709,1.1571.319a13.8766,13.8766,0,0,0,.4574-3.901,13.12,13.12,0,0,0-.7973-3.7022c-.2548-.7235-1.4146-.412-1.1572.319Z" transform="translate(-13.7248 -37.2396)" fill="#fef480"/><path d="M79.586,71.0025c2.16,1.7006,2.586,5.0176,1.9992,7.5422-.1746.7514.9821,1.0721,1.1572.319.6745-2.9022.1816-6.75-2.3078-8.71a.62.62,0,0,0-.8486,0,.6035.6035,0,0,0,0,.8485Z" transform="translate(-13.7248 -37.2396)" fill="#fef480"/><path d="M97.0607,74.02c2.2773-3.4287,6.17-5.7616,9.88-7.373a29.388,29.388,0,0,1,14.1413-2.284,25.1755,25.1755,0,0,1,20.8025,15.333c.2794.71,1.44.4011,1.1572-.319a26.7351,26.7351,0,0,0-15.005-14.6793c-7.3643-2.8022-16.0062-1.9315-22.9969,1.5169-3.4354,1.6946-6.8643,3.9608-9.0156,7.2-.4285.6451.61,1.2467,1.0362.6057Z" transform="translate(-13.7248 -37.2396)" fill="#fef480"/><path d="M142.0391,79.1122c-6.2786,5.285-15.3886,7.48-23.4522,6.4675-8.2625-1.0372-16.354-5.914-21.5874-12.3253-.4885-.5986-1.3331.2548-.8485.8485A35.63,35.63,0,0,0,118.5869,86.78c8.4065,1.03,17.7708-1.3224,24.3008-6.819.5915-.4979-.2611-1.343-.8486-.8485Z" transform="translate(-13.7248 -37.2396)" fill="#fef480"/><path d="M95.9426,73.7171c-.0076.4063-.0217.8125-.0541,1.2176a6.8766,6.8766,0,0,1-.1264.9518,5.5954,5.5954,0,0,1-.2543.8914q-.04.0979-.002.0084-.0216.05-.0445.0987c-.0313.0642-.0622.1284-.0961.1913a3.5349,3.5349,0,0,1-.207.3379c-.0142.0205-.1266.1676-.048.069-.0442.0554-.09.1093-.138.1618a3.6226,3.6226,0,0,1-.3111.3035,4.2369,4.2369,0,0,1-.71.4708,9.48,9.48,0,0,1-2.2417.786c-.75.1839-.4322,1.3414.319,1.1571a8.006,8.006,0,0,0,3.5429-1.62,4.7113,4.7113,0,0,0,1.3872-2.7511,15.1844,15.1844,0,0,0,.1838-2.2739.6.6,0,0,0-1.2,0Z" transform="translate(-13.7248 -37.2396)" fill="#fef480"/><path d="M105.6787,82.0926a7.2988,7.2988,0,0,1-3.0092,6.625c-.6333.4338-.0337,1.4741.6057,1.0362a8.4947,8.4947,0,0,0,3.6035-7.6612c-.0573-.7654-1.2578-.7716-1.2,0Z" transform="translate(-13.7248 -37.2396)" fill="#fef480"/><path d="M118.0863,86.3892a6.11,6.11,0,0,1-.1444,3.742,10.2694,10.2694,0,0,1-.6451,1.6187c-.1143.2272-.2367.4507-.3706.667-.0513.0828-.1041.1646-.1594.2449q-.0416.06-.0849.12c-.0762.1042.0473-.0566-.0348.0434a.6176.6176,0,0,0,0,.8486.6048.6048,0,0,0,.8486,0,9.4371,9.4371,0,0,0,1.6034-3.2234,7.2258,7.2258,0,0,0,.1443-4.38c-.2479-.7268-1.4074-.4147-1.1571.319Z" transform="translate(-13.7248 -37.2396)" fill="#fef480"/><path d="M130.6753,85.5565c.7354,2.1528,1.0894,4.5853.0554,6.7059-.3371.6914.6974,1.3,1.0362.6057a9.9487,9.9487,0,0,0,.0656-7.6306c-.2483-.7266-1.4078-.4146-1.1572.319Z" transform="translate(-13.7248 -37.2396)" fill="#fef480"/><path d="M141.9453,79.8393a9.7607,9.7607,0,0,1,1.2236,3.9956c.1418,1.2559.2382,2.8441-.5356,3.93-.4489.63.5913,1.23,1.0362.6057.8939-1.2545.8646-3.0754.6994-4.5357a11.1577,11.1577,0,0,0-1.3874-4.6013c-.4067-.6547-1.4452-.0528-1.0362.6057Z" transform="translate(-13.7248 -37.2396)" fill="#fef480"/><path d="M127.0782,65.6418c2.6317,3.3333,3.9786,6.9917,3.2956,11.24a17.438,17.438,0,0,1-4.2751,8.8292c-.5084.5777.3372,1.43.8486.8485A18.7306,18.7306,0,0,0,131.634,76.484c.5822-4.44-.9789-8.235-3.7072-11.6908-.4783-.6057-1.3222.2486-.8486.8486Z" transform="translate(-13.7248 -37.2396)" fill="#fef480"/><path d="M110.9542,83.546c-3.0311-2.6143-3.5256-6.51-2.8892-10.267.57-3.3639,2.3011-7.8091,6.0109-8.6811.7514-.1766.4333-1.334-.319-1.1571-4.1271.97-6.208,5.7354-6.849,9.5192-.7055,4.1645-.169,8.5307,3.1978,11.4345.5821.5021,1.4346-.3431.8485-.8485Z" transform="translate(-13.7248 -37.2396)" fill="#fef480"/></g></svg>